<svg width="730" height="448" viewBox="0 0 730 448" fill="none" xmlns="http://www.w3.org/2000/svg">
<path opacity="0.2" d="M130.967 327.957C186.297 327.957 231.152 283.107 231.152 227.783C231.152 172.458 186.297 127.609 130.967 127.609C75.6368 127.609 30.7827 172.458 30.7827 227.783C30.7827 283.107 75.6368 327.957 130.967 327.957Z" stroke="white" stroke-dasharray="2 15"/>
<path opacity="0.4" d="M130.184 301.348C170.385 301.348 202.975 268.762 202.975 228.565C202.975 188.368 170.385 155.783 130.184 155.783C89.9835 155.783 57.3942 188.368 57.3942 228.565C57.3942 268.762 89.9835 301.348 130.184 301.348Z" fill="#0A0E12" stroke="white" stroke-dasharray="2 5"/>
<path d="M130.184 302.13C170.818 302.13 203.757 269.194 203.757 228.565C203.757 187.936 170.818 155 130.184 155C89.5512 155 56.6115 187.936 56.6115 228.565C56.6115 269.194 89.5512 302.13 130.184 302.13Z" fill="#0A0E12"/>
<path d="M130.184 301.348C170.385 301.348 202.975 268.762 202.975 228.565C202.975 188.368 170.385 155.783 130.184 155.783C89.9835 155.783 57.3942 188.368 57.3942 228.565C57.3942 268.762 89.9835 301.348 130.184 301.348Z" stroke="white" stroke-opacity="0.31"/>
<path d="M128.671 194.13C109.591 194.13 94.1807 209.54 94.1807 228.617C94.1807 247.59 109.591 263 128.671 263C147.647 263 163.057 247.59 163.057 228.617C163.057 209.54 147.647 194.13 128.671 194.13ZM119.236 247.59C115.462 241.721 113.89 240.043 112.108 237.423C103.406 224.635 112.003 214.361 116.615 211.216C123.325 206.605 135.591 205.557 142.614 215.514C143.348 216.563 142.929 218.135 141.881 218.869C140.832 219.603 139.155 219.708 138.316 218.449C134.752 213.104 126.051 211.111 119.865 215.305C113.68 219.498 111.478 227.57 116.301 234.069C120.39 239.728 122.067 242.035 123.744 244.656C125.631 247.905 121.438 250.735 119.236 247.59ZM132.341 248.849C131.817 249.163 129.929 250.002 128.671 247.905C127.413 245.809 127.518 246.019 126.47 244.131C125.422 242.245 126.889 240.882 127.413 240.567C127.763 240.358 128.671 239.869 129.611 240.218C130.81 240.664 131.302 242.062 131.948 243.167C132.307 243.782 132.735 244.518 133.179 245.285C134.437 247.171 132.97 248.534 132.341 248.849ZM136.429 244.865C133.284 239.415 131.397 235.85 125.422 228.094C123.535 225.682 127.623 222.433 129.72 225.158C134.018 230.609 138.841 238.262 140.832 241.826C142.614 245.39 138.107 247.695 136.429 244.865ZM142.51 239.415C140.623 236.269 134.752 226.102 130.663 222.328C127.099 218.974 120.494 223.481 122.172 228.094C122.696 229.561 125.002 232.495 126.47 234.488C128.776 237.528 124.268 240.043 122.172 237.423C120.075 234.803 119.551 233.859 117.978 231.239C116.615 228.931 115.567 221.908 121.228 218.135C126.889 214.256 133.075 216.668 135.171 219.288C137.268 221.908 143.558 230.295 146.913 236.794C148.59 239.519 144.292 242.455 142.51 239.415ZM149.114 229.351C148.59 229.77 146.808 230.609 145.445 228.617C144.082 226.626 144.187 226.836 143.034 225.053C141.776 223.272 143.244 221.803 143.768 221.384C144.187 221.134 145.342 220.414 146.539 221.204C147.255 221.678 147.68 222.472 148.163 223.182C148.61 223.838 149.216 224.734 149.848 225.682C151.106 227.57 149.639 229.036 149.114 229.351Z" fill="white"/>
<path d="M203.757 216.826C203.325 216.826 202.975 217.177 202.975 217.609C202.975 218.041 203.325 218.391 203.757 218.391V216.826ZM277.343 217.609V218.391H277.676L277.908 218.15L277.343 217.609ZM389.973 100.217V99.4348H389.64L389.41 99.6757L389.973 100.217ZM481.384 100.771C481.689 100.465 481.689 99.9696 481.384 99.6639L476.403 94.6835C476.096 94.3779 475.601 94.3779 475.295 94.6835C474.989 94.9891 474.989 95.4846 475.295 95.7903L479.723 100.217L475.295 104.644C474.989 104.95 474.989 105.446 475.295 105.751C475.601 106.057 476.096 106.057 476.403 105.751L481.384 100.771ZM205.29 218.391C205.722 218.391 206.072 218.041 206.072 217.609C206.072 217.177 205.722 216.826 205.29 216.826V218.391ZM208.356 216.826C207.924 216.826 207.574 217.177 207.574 217.609C207.574 218.041 207.924 218.391 208.356 218.391V216.826ZM211.423 218.391C211.855 218.391 212.206 218.041 212.206 217.609C212.206 217.177 211.855 216.826 211.423 216.826V218.391ZM214.488 216.826C214.056 216.826 213.705 217.177 213.705 217.609C213.705 218.041 214.056 218.391 214.488 218.391V216.826ZM217.555 218.391C217.987 218.391 218.337 218.041 218.337 217.609C218.337 217.177 217.987 216.826 217.555 216.826V218.391ZM220.621 216.826C220.189 216.826 219.838 217.177 219.838 217.609C219.838 218.041 220.189 218.391 220.621 218.391V216.826ZM223.686 218.391C224.12 218.391 224.469 218.041 224.469 217.609C224.469 217.177 224.12 216.826 223.686 216.826V218.391ZM226.753 216.826C226.321 216.826 225.97 217.177 225.97 217.609C225.97 218.041 226.321 218.391 226.753 218.391V216.826ZM229.819 218.391C230.251 218.391 230.602 218.041 230.602 217.609C230.602 217.177 230.251 216.826 229.819 216.826V218.391ZM232.884 216.826C232.452 216.826 232.102 217.177 232.102 217.609C232.102 218.041 232.452 218.391 232.884 218.391V216.826ZM235.951 218.391C236.383 218.391 236.734 218.041 236.734 217.609C236.734 217.177 236.383 216.826 235.951 216.826V218.391ZM239.018 216.826C238.585 216.826 238.235 217.177 238.235 217.609C238.235 218.041 238.585 218.391 239.018 218.391V216.826ZM242.083 218.391C242.516 218.391 242.865 218.041 242.865 217.609C242.865 217.177 242.516 216.826 242.083 216.826V218.391ZM245.149 216.826C244.717 216.826 244.366 217.177 244.366 217.609C244.366 218.041 244.717 218.391 245.149 218.391V216.826ZM248.216 218.391C248.648 218.391 248.998 218.041 248.998 217.609C248.998 217.177 248.648 216.826 248.216 216.826V218.391ZM251.281 216.826C250.849 216.826 250.498 217.177 250.498 217.609C250.498 218.041 250.849 218.391 251.281 218.391V216.826ZM254.347 218.391C254.779 218.391 255.13 218.041 255.13 217.609C255.13 217.177 254.779 216.826 254.347 216.826V218.391ZM257.414 216.826C256.982 216.826 256.631 217.177 256.631 217.609C256.631 218.041 256.982 218.391 257.414 218.391V216.826ZM260.479 218.391C260.912 218.391 261.262 218.041 261.262 217.609C261.262 217.177 260.912 216.826 260.479 216.826V218.391ZM263.545 216.826C263.113 216.826 262.763 217.177 262.763 217.609C262.763 218.041 263.113 218.391 263.545 218.391V216.826ZM266.612 218.391C267.044 218.391 267.395 218.041 267.395 217.609C267.395 217.177 267.044 216.826 266.612 216.826V218.391ZM269.677 216.826C269.245 216.826 268.894 217.177 268.894 217.609C268.894 218.041 269.245 218.391 269.677 218.391V216.826ZM272.744 218.391C273.176 218.391 273.526 218.041 273.526 217.609C273.526 217.177 273.176 216.826 272.744 216.826V218.391ZM275.81 216.826C275.378 216.826 275.028 217.177 275.028 217.609C275.028 218.041 275.378 218.391 275.81 218.391V216.826ZM278.991 217.022C279.29 216.71 279.279 216.214 278.968 215.915C278.656 215.616 278.16 215.626 277.861 215.939L278.991 217.022ZM280.027 213.68C279.728 213.993 279.738 214.488 280.051 214.787C280.362 215.087 280.857 215.076 281.156 214.765L280.027 213.68ZM283.322 212.506C283.621 212.195 283.612 211.7 283.299 211.399C282.988 211.101 282.493 211.111 282.194 211.423L283.322 212.506ZM284.359 209.166C284.06 209.477 284.071 209.974 284.382 210.273C284.694 210.571 285.19 210.561 285.489 210.249L284.359 209.166ZM287.654 207.992C287.954 207.679 287.943 207.184 287.632 206.885C287.32 206.586 286.824 206.596 286.525 206.907L287.654 207.992ZM288.692 204.65C288.391 204.962 288.402 205.458 288.714 205.757C289.025 206.056 289.521 206.046 289.82 205.733L288.692 204.65ZM291.987 203.476C292.286 203.165 292.275 202.669 291.963 202.37C291.652 202.071 291.156 202.081 290.857 202.393L291.987 203.476ZM293.023 200.135C292.724 200.447 292.734 200.943 293.047 201.242C293.358 201.541 293.853 201.531 294.153 201.219L293.023 200.135ZM296.318 198.961C296.617 198.65 296.608 198.154 296.296 197.855C295.983 197.556 295.489 197.566 295.19 197.878L296.318 198.961ZM297.355 195.62C297.056 195.932 297.067 196.428 297.378 196.727C297.69 197.026 298.186 197.016 298.485 196.704L297.355 195.62ZM300.651 194.446C300.95 194.134 300.939 193.639 300.628 193.34C300.316 193.041 299.82 193.051 299.521 193.363L300.651 194.446ZM301.688 191.105C301.387 191.417 301.398 191.913 301.709 192.212C302.023 192.511 302.517 192.501 302.816 192.189L301.688 191.105ZM304.983 189.931C305.282 189.619 305.272 189.124 304.959 188.825C304.648 188.526 304.151 188.536 303.852 188.848L304.983 189.931ZM306.019 186.59C305.72 186.902 305.729 187.398 306.042 187.697C306.354 187.996 306.849 187.986 307.149 187.674L306.019 186.59ZM309.314 185.416C309.613 185.104 309.604 184.609 309.292 184.31C308.979 184.011 308.484 184.021 308.185 184.333L309.314 185.416ZM310.35 182.075C310.051 182.387 310.062 182.883 310.374 183.182C310.685 183.481 311.182 183.471 311.481 183.159L310.35 182.075ZM313.647 180.901C313.946 180.589 313.935 180.094 313.624 179.795C313.312 179.495 312.816 179.506 312.517 179.818L313.647 180.901ZM314.683 177.56C314.384 177.872 314.394 178.368 314.705 178.667C315.018 178.966 315.513 178.956 315.812 178.644L314.683 177.56ZM317.978 176.386C318.277 176.074 318.268 175.579 317.955 175.28C317.643 174.98 317.149 174.991 316.848 175.303L317.978 176.386ZM319.015 173.045C318.716 173.357 318.725 173.852 319.038 174.152C319.35 174.451 319.844 174.441 320.145 174.129L319.015 173.045ZM322.31 171.871C322.609 171.559 322.599 171.064 322.288 170.765C321.975 170.465 321.48 170.476 321.181 170.788L322.31 171.871ZM323.346 168.53C323.047 168.842 323.058 169.337 323.37 169.637C323.681 169.936 324.177 169.926 324.476 169.614L323.346 168.53ZM326.643 167.356C326.942 167.044 326.931 166.549 326.619 166.25C326.308 165.95 325.812 165.961 325.513 166.273L326.643 167.356ZM327.679 164.015C327.38 164.327 327.39 164.822 327.701 165.122C328.014 165.421 328.509 165.411 328.808 165.099L327.679 164.015ZM330.974 162.841C331.273 162.529 331.264 162.034 330.951 161.735C330.639 161.435 330.145 161.446 329.844 161.757L330.974 162.841ZM332.011 159.5C331.712 159.812 331.721 160.307 332.034 160.607C332.346 160.906 332.842 160.896 333.141 160.584L332.011 159.5ZM335.306 158.326C335.606 158.014 335.595 157.519 335.284 157.219C334.971 156.92 334.476 156.931 334.177 157.242L335.306 158.326ZM336.342 154.985C336.043 155.297 336.054 155.792 336.365 156.091C336.677 156.391 337.173 156.381 337.472 156.069L336.342 154.985ZM339.639 153.811C339.938 153.499 339.927 153.004 339.615 152.704C339.304 152.405 338.807 152.416 338.508 152.727L339.639 153.811ZM340.675 150.47C340.376 150.782 340.385 151.277 340.697 151.576C341.01 151.876 341.505 151.865 341.804 151.554L340.675 150.47ZM343.97 149.296C344.269 148.984 344.26 148.489 343.947 148.189C343.635 147.89 343.14 147.9 342.84 148.212L343.97 149.296ZM345.006 145.955C344.707 146.267 344.718 146.762 345.03 147.061C345.341 147.361 345.838 147.35 346.137 147.039L345.006 145.955ZM348.301 144.781C348.602 144.469 348.591 143.974 348.28 143.674C347.968 143.375 347.472 143.385 347.173 143.697L348.301 144.781ZM349.339 141.44C349.039 141.752 349.05 142.247 349.361 142.546C349.673 142.846 350.169 142.835 350.468 142.523L349.339 141.44ZM352.634 140.266C352.933 139.954 352.922 139.458 352.611 139.159C352.299 138.86 351.803 138.87 351.504 139.182L352.634 140.266ZM353.671 136.925C353.372 137.237 353.381 137.732 353.694 138.031C354.006 138.331 354.5 138.32 354.799 138.008L353.671 136.925ZM356.966 135.751C357.265 135.439 357.255 134.943 356.942 134.644C356.631 134.345 356.136 134.355 355.837 134.667L356.966 135.751ZM358.002 132.41C357.703 132.722 357.714 133.217 358.026 133.516C358.337 133.815 358.833 133.805 359.132 133.493L358.002 132.41ZM361.299 131.236C361.598 130.924 361.587 130.428 361.275 130.129C360.964 129.83 360.468 129.84 360.169 130.152L361.299 131.236ZM362.335 127.895C362.035 128.207 362.046 128.702 362.357 129.001C362.67 129.3 363.165 129.29 363.464 128.978L362.335 127.895ZM365.63 126.721C365.929 126.409 365.918 125.913 365.607 125.614C365.295 125.315 364.799 125.325 364.5 125.637L365.63 126.721ZM366.667 123.38C366.368 123.692 366.377 124.187 366.69 124.486C367.002 124.785 367.496 124.775 367.797 124.463L366.667 123.38ZM369.962 122.206C370.261 121.894 370.251 121.398 369.94 121.099C369.627 120.8 369.132 120.81 368.833 121.122L369.962 122.206ZM370.998 118.865C370.699 119.176 370.71 119.672 371.021 119.971C371.333 120.27 371.829 120.26 372.128 119.948L370.998 118.865ZM374.295 117.691C374.594 117.379 374.583 116.883 374.271 116.584C373.96 116.285 373.463 116.295 373.164 116.607L374.295 117.691ZM375.331 114.35C375.03 114.661 375.041 115.157 375.353 115.456C375.666 115.755 376.161 115.745 376.46 115.433L375.331 114.35ZM378.626 113.175C378.925 112.864 378.916 112.368 378.603 112.069C378.291 111.77 377.795 111.78 377.496 112.092L378.626 113.175ZM379.662 109.834C379.363 110.146 379.373 110.642 379.686 110.941C379.997 111.24 380.492 111.23 380.793 110.918L379.662 109.834ZM382.957 108.66C383.256 108.349 383.247 107.853 382.936 107.554C382.622 107.255 382.128 107.265 381.829 107.577L382.957 108.66ZM383.994 105.319C383.695 105.631 383.706 106.127 384.017 106.426C384.329 106.725 384.825 106.715 385.124 106.403L383.994 105.319ZM387.29 104.145C387.589 103.833 387.578 103.338 387.267 103.039C386.955 102.74 386.459 102.75 386.16 103.062L387.29 104.145ZM388.327 100.804C388.028 101.116 388.037 101.612 388.349 101.911C388.662 102.21 389.156 102.2 389.455 101.888L388.327 100.804ZM391.489 101C391.921 101 392.271 100.65 392.271 100.217C392.271 99.7852 391.921 99.4348 391.489 99.4348V101ZM394.516 99.4348C394.084 99.4348 393.734 99.7852 393.734 100.217C393.734 100.65 394.084 101 394.516 101V99.4348ZM397.545 101C397.977 101 398.328 100.65 398.328 100.217C398.328 99.7852 397.977 99.4348 397.545 99.4348V101ZM400.574 99.4348C400.142 99.4348 399.792 99.7852 399.792 100.217C399.792 100.65 400.142 101 400.574 101V99.4348ZM403.602 101C404.035 101 404.384 100.65 404.384 100.217C404.384 99.7852 404.035 99.4348 403.602 99.4348V101ZM406.631 99.4348C406.199 99.4348 405.848 99.7852 405.848 100.217C405.848 100.65 406.199 101 406.631 101V99.4348ZM409.66 101C410.092 101 410.442 100.65 410.442 100.217C410.442 99.7852 410.092 99.4348 409.66 99.4348V101ZM412.689 99.4348C412.255 99.4348 411.906 99.7852 411.906 100.217C411.906 100.65 412.255 101 412.689 101V99.4348ZM415.716 101C416.148 101 416.499 100.65 416.499 100.217C416.499 99.7852 416.148 99.4348 415.716 99.4348V101ZM418.745 99.4348C418.313 99.4348 417.963 99.7852 417.963 100.217C417.963 100.65 418.313 101 418.745 101V99.4348ZM421.774 101C422.206 101 422.557 100.65 422.557 100.217C422.557 99.7852 422.206 99.4348 421.774 99.4348V101ZM424.802 99.4348C424.37 99.4348 424.019 99.7852 424.019 100.217C424.019 100.65 424.37 101 424.802 101V99.4348ZM427.831 101C428.263 101 428.613 100.65 428.613 100.217C428.613 99.7852 428.263 99.4348 427.831 99.4348V101ZM430.86 99.4348C430.426 99.4348 430.077 99.7852 430.077 100.217C430.077 100.65 430.426 101 430.86 101V99.4348ZM433.887 101C434.319 101 434.67 100.65 434.67 100.217C434.67 99.7852 434.319 99.4348 433.887 99.4348V101ZM436.916 99.4348C436.484 99.4348 436.133 99.7852 436.133 100.217C436.133 100.65 436.484 101 436.916 101V99.4348ZM439.945 101C440.377 101 440.728 100.65 440.728 100.217C440.728 99.7852 440.377 99.4348 439.945 99.4348V101ZM442.973 99.4348C442.541 99.4348 442.19 99.7852 442.19 100.217C442.19 100.65 442.541 101 442.973 101V99.4348ZM446.002 101C446.434 101 446.784 100.65 446.784 100.217C446.784 99.7852 446.434 99.4348 446.002 99.4348V101ZM449.031 99.4348C448.599 99.4348 448.248 99.7852 448.248 100.217C448.248 100.65 448.599 101 449.031 101V99.4348ZM452.058 101C452.492 101 452.841 100.65 452.841 100.217C452.841 99.7852 452.492 99.4348 452.058 99.4348V101ZM455.087 99.4348C454.655 99.4348 454.304 99.7852 454.304 100.217C454.304 100.65 454.655 101 455.087 101V99.4348ZM458.116 101C458.548 101 458.899 100.65 458.899 100.217C458.899 99.7852 458.548 99.4348 458.116 99.4348V101ZM461.145 99.4348C460.711 99.4348 460.362 99.7852 460.362 100.217C460.362 100.65 460.711 101 461.145 101V99.4348ZM464.173 101C464.605 101 464.955 100.65 464.955 100.217C464.955 99.7852 464.605 99.4348 464.173 99.4348V101ZM467.202 99.4348C466.77 99.4348 466.419 99.7852 466.419 100.217C466.419 100.65 466.77 101 467.202 101V99.4348ZM470.231 101C470.663 101 471.013 100.65 471.013 100.217C471.013 99.7852 470.663 99.4348 470.231 99.4348V101ZM473.258 99.4348C472.826 99.4348 472.475 99.7852 472.475 100.217C472.475 100.65 472.826 101 473.258 101V99.4348ZM476.287 101C476.719 101 477.07 100.65 477.07 100.217C477.07 99.7852 476.719 99.4348 476.287 99.4348V101ZM479.316 99.4348C478.884 99.4348 478.533 99.7852 478.533 100.217C478.533 100.65 478.884 101 479.316 101V99.4348ZM203.757 218.391H205.29V216.826H203.757V218.391ZM208.356 218.391H211.423V216.826H208.356V218.391ZM214.488 218.391H217.555V216.826H214.488V218.391ZM220.621 218.391H223.686V216.826H220.621V218.391ZM226.753 218.391H229.819V216.826H226.753V218.391ZM232.884 218.391H235.951V216.826H232.884V218.391ZM239.018 218.391H242.083V216.826H239.018V218.391ZM245.149 218.391H248.216V216.826H245.149V218.391ZM251.281 218.391H254.347V216.826H251.281V218.391ZM257.414 218.391H260.479V216.826H257.414V218.391ZM263.545 218.391H266.612V216.826H263.545V218.391ZM269.677 218.391H272.744V216.826H269.677V218.391ZM275.81 218.391H277.343V216.826H275.81V218.391ZM277.908 218.15L278.991 217.022L277.861 215.939L276.778 217.067L277.908 218.15ZM281.156 214.765L283.322 212.506L282.194 211.423L280.027 213.68L281.156 214.765ZM285.489 210.249L287.654 207.992L286.525 206.907L284.359 209.166L285.489 210.249ZM289.82 205.733L291.987 203.476L290.857 202.393L288.692 204.65L289.82 205.733ZM294.153 201.219L296.318 198.961L295.19 197.878L293.023 200.135L294.153 201.219ZM298.485 196.704L300.651 194.446L299.521 193.363L297.355 195.62L298.485 196.704ZM302.816 192.189L304.983 189.931L303.852 188.848L301.688 191.105L302.816 192.189ZM307.149 187.674L309.314 185.416L308.185 184.333L306.019 186.59L307.149 187.674ZM311.481 183.159L313.647 180.901L312.517 179.818L310.35 182.075L311.481 183.159ZM315.812 178.644L317.978 176.386L316.848 175.303L314.683 177.56L315.812 178.644ZM320.145 174.129L322.31 171.871L321.181 170.788L319.015 173.045L320.145 174.129ZM324.476 169.614L326.643 167.356L325.513 166.273L323.346 168.53L324.476 169.614ZM328.808 165.099L330.974 162.841L329.844 161.757L327.679 164.015L328.808 165.099ZM333.141 160.584L335.306 158.326L334.177 157.242L332.011 159.5L333.141 160.584ZM337.472 156.069L339.639 153.811L338.508 152.727L336.342 154.985L337.472 156.069ZM341.804 151.554L343.97 149.296L342.84 148.212L340.675 150.47L341.804 151.554ZM346.137 147.039L348.301 144.781L347.173 143.697L345.006 145.955L346.137 147.039ZM350.468 142.523L352.634 140.266L351.504 139.182L349.339 141.44L350.468 142.523ZM354.799 138.008L356.966 135.751L355.837 134.667L353.671 136.925L354.799 138.008ZM359.132 133.493L361.299 131.236L360.169 130.152L358.002 132.41L359.132 133.493ZM363.464 128.978L365.63 126.721L364.5 125.637L362.335 127.895L363.464 128.978ZM367.797 124.463L369.962 122.206L368.833 121.122L366.667 123.38L367.797 124.463ZM372.128 119.948L374.295 117.691L373.164 116.607L370.998 118.865L372.128 119.948ZM376.46 115.433L378.626 113.175L377.496 112.092L375.331 114.35L376.46 115.433ZM380.793 110.918L382.957 108.66L381.829 107.577L379.662 109.834L380.793 110.918ZM385.124 106.403L387.29 104.145L386.16 103.062L383.994 105.319L385.124 106.403ZM389.455 101.888L390.539 100.759L389.41 99.6757L388.327 100.804L389.455 101.888ZM389.973 101H391.489V99.4348H389.973V101ZM394.516 101H397.545V99.4348H394.516V101ZM400.574 101H403.602V99.4348H400.574V101ZM406.631 101H409.66V99.4348H406.631V101ZM412.689 101H415.716V99.4348H412.689V101ZM418.745 101H421.774V99.4348H418.745V101ZM424.802 101H427.831V99.4348H424.802V101ZM430.86 101H433.887V99.4348H430.86V101ZM436.916 101H439.945V99.4348H436.916V101ZM442.973 101H446.002V99.4348H442.973V101ZM449.031 101H452.058V99.4348H449.031V101ZM455.087 101H458.116V99.4348H455.087V101ZM461.145 101H464.173V99.4348H461.145V101ZM467.202 101H470.231V99.4348H467.202V101ZM473.258 101H476.287V99.4348H473.258V101ZM479.316 101H480.83V99.4348H479.316V101Z" fill="url(#paint0_linear_105_35)"/>
<path d="M203.757 246.565C203.325 246.565 202.975 246.215 202.975 245.783C202.975 245.351 203.325 245 203.757 245V246.565ZM277.343 245.783V245H277.676L277.908 245.241L277.343 245.783ZM389.973 363.174V363.957H389.64L389.41 363.715L389.973 363.174ZM481.384 362.62C481.689 362.927 481.689 363.421 481.384 363.728L476.403 368.709C476.096 369.014 475.601 369.014 475.295 368.709C474.989 368.402 474.989 367.907 475.295 367.6L479.723 363.174L475.295 358.747C474.989 358.441 474.989 357.946 475.295 357.639C475.601 357.334 476.096 357.334 476.403 357.639L481.384 362.62ZM205.29 245C205.722 245 206.072 245.351 206.072 245.783C206.072 246.215 205.722 246.565 205.29 246.565V245ZM208.356 246.565C207.924 246.565 207.574 246.215 207.574 245.783C207.574 245.351 207.924 245 208.356 245V246.565ZM211.423 245C211.855 245 212.206 245.351 212.206 245.783C212.206 246.215 211.855 246.565 211.423 246.565V245ZM214.488 246.565C214.056 246.565 213.705 246.215 213.705 245.783C213.705 245.351 214.056 245 214.488 245V246.565ZM217.555 245C217.987 245 218.337 245.351 218.337 245.783C218.337 246.215 217.987 246.565 217.555 246.565V245ZM220.621 246.565C220.189 246.565 219.838 246.215 219.838 245.783C219.838 245.351 220.189 245 220.621 245V246.565ZM223.686 245C224.12 245 224.469 245.351 224.469 245.783C224.469 246.215 224.12 246.565 223.686 246.565V245ZM226.753 246.565C226.321 246.565 225.97 246.215 225.97 245.783C225.97 245.351 226.321 245 226.753 245V246.565ZM229.819 245C230.251 245 230.602 245.351 230.602 245.783C230.602 246.215 230.251 246.565 229.819 246.565V245ZM232.884 246.565C232.452 246.565 232.102 246.215 232.102 245.783C232.102 245.351 232.452 245 232.884 245V246.565ZM235.951 245C236.383 245 236.734 245.351 236.734 245.783C236.734 246.215 236.383 246.565 235.951 246.565V245ZM239.018 246.565C238.585 246.565 238.235 246.215 238.235 245.783C238.235 245.351 238.585 245 239.018 245V246.565ZM242.083 245C242.516 245 242.865 245.351 242.865 245.783C242.865 246.215 242.516 246.565 242.083 246.565V245ZM245.149 246.565C244.717 246.565 244.366 246.215 244.366 245.783C244.366 245.351 244.717 245 245.149 245V246.565ZM248.216 245C248.648 245 248.998 245.351 248.998 245.783C248.998 246.215 248.648 246.565 248.216 246.565V245ZM251.281 246.565C250.849 246.565 250.498 246.215 250.498 245.783C250.498 245.351 250.849 245 251.281 245V246.565ZM254.347 245C254.779 245 255.13 245.351 255.13 245.783C255.13 246.215 254.779 246.565 254.347 246.565V245ZM257.414 246.565C256.982 246.565 256.631 246.215 256.631 245.783C256.631 245.351 256.982 245 257.414 245V246.565ZM260.479 245C260.912 245 261.262 245.351 261.262 245.783C261.262 246.215 260.912 246.565 260.479 246.565V245ZM263.545 246.565C263.113 246.565 262.763 246.215 262.763 245.783C262.763 245.351 263.113 245 263.545 245V246.565ZM266.612 245C267.044 245 267.395 245.351 267.395 245.783C267.395 246.215 267.044 246.565 266.612 246.565V245ZM269.677 246.565C269.245 246.565 268.894 246.215 268.894 245.783C268.894 245.351 269.245 245 269.677 245V246.565ZM272.744 245C273.176 245 273.526 245.351 273.526 245.783C273.526 246.215 273.176 246.565 272.744 246.565V245ZM275.81 246.565C275.378 246.565 275.028 246.215 275.028 245.783C275.028 245.351 275.378 245 275.81 245V246.565ZM278.991 246.37C279.29 246.681 279.279 247.177 278.968 247.476C278.656 247.775 278.16 247.766 277.861 247.453L278.991 246.37ZM280.027 249.711C279.728 249.398 279.738 248.904 280.051 248.605C280.362 248.304 280.857 248.315 281.156 248.627L280.027 249.711ZM283.322 250.885C283.621 251.197 283.612 251.691 283.299 251.992C282.988 252.291 282.493 252.28 282.194 251.968L283.322 250.885ZM284.359 254.225C284.06 253.914 284.071 253.418 284.382 253.119C284.694 252.82 285.19 252.831 285.489 253.142L284.359 254.225ZM287.654 255.399C287.954 255.712 287.943 256.207 287.632 256.506C287.32 256.805 286.824 256.795 286.525 256.484L287.654 255.399ZM288.692 258.741C288.391 258.43 288.402 257.933 288.714 257.634C289.025 257.335 289.521 257.345 289.82 257.658L288.692 258.741ZM291.987 259.915C292.286 260.226 292.275 260.723 291.963 261.022C291.652 261.321 291.156 261.31 290.857 260.998L291.987 259.915ZM293.023 263.255C292.724 262.944 292.734 262.449 293.047 262.149C293.358 261.85 293.853 261.861 294.153 262.172L293.023 263.255ZM296.318 264.429C296.617 264.742 296.608 265.237 296.296 265.536C295.983 265.836 295.489 265.825 295.19 265.514L296.318 264.429ZM297.355 267.771C297.056 267.459 297.067 266.963 297.378 266.664C297.69 266.365 298.186 266.376 298.485 266.688L297.355 267.771ZM300.651 268.945C300.95 269.256 300.939 269.752 300.628 270.051C300.316 270.35 299.82 270.341 299.521 270.028L300.651 268.945ZM301.688 272.286C301.387 271.973 301.398 271.479 301.709 271.18C302.023 270.881 302.517 270.89 302.816 271.202L301.688 272.286ZM304.983 273.46C305.282 273.772 305.272 274.266 304.959 274.567C304.648 274.866 304.151 274.855 303.852 274.543L304.983 273.46ZM306.019 276.801C305.72 276.489 305.729 275.994 306.042 275.694C306.354 275.395 306.849 275.406 307.149 275.717L306.019 276.801ZM309.314 277.974C309.613 278.287 309.604 278.782 309.292 279.081C308.979 279.38 308.484 279.371 308.185 279.059L309.314 277.974ZM310.35 281.316C310.051 281.005 310.062 280.509 310.374 280.21C310.685 279.911 311.182 279.92 311.481 280.233L310.35 281.316ZM313.647 282.49C313.946 282.802 313.935 283.298 313.624 283.597C313.312 283.896 312.816 283.885 312.517 283.573L313.647 282.49ZM314.683 285.832C314.384 285.519 314.394 285.024 314.705 284.725C315.018 284.425 315.513 284.436 315.812 284.747L314.683 285.832ZM317.978 287.006C318.277 287.317 318.268 287.812 317.955 288.112C317.643 288.411 317.149 288.4 316.848 288.089L317.978 287.006ZM319.015 290.346C318.716 290.034 318.725 289.538 319.038 289.239C319.35 288.94 319.844 288.951 320.145 289.263L319.015 290.346ZM322.31 291.52C322.609 291.831 322.599 292.327 322.288 292.626C321.975 292.925 321.48 292.916 321.181 292.603L322.31 291.52ZM323.346 294.862C323.047 294.549 323.058 294.054 323.37 293.755C323.681 293.456 324.177 293.465 324.476 293.777L323.346 294.862ZM326.643 296.035C326.942 296.347 326.931 296.843 326.619 297.142C326.308 297.441 325.812 297.43 325.513 297.119L326.643 296.035ZM327.679 299.376C327.38 299.064 327.39 298.57 327.701 298.269C328.014 297.97 328.509 297.981 328.808 298.293L327.679 299.376ZM330.974 300.55C331.273 300.863 331.264 301.357 330.951 301.656C330.639 301.957 330.145 301.946 329.844 301.634L330.974 300.55ZM332.011 303.891C331.712 303.58 331.721 303.084 332.034 302.785C332.346 302.486 332.842 302.495 333.141 302.808L332.011 303.891ZM335.306 305.065C335.606 305.377 335.595 305.873 335.284 306.172C334.971 306.471 334.476 306.461 334.177 306.148L335.306 305.065ZM336.342 308.407C336.043 308.094 336.054 307.599 336.365 307.3C336.677 307 337.173 307.011 337.472 307.322L336.342 308.407ZM339.639 309.581C339.938 309.892 339.927 310.387 339.615 310.687C339.304 310.986 338.807 310.975 338.508 310.664L339.639 309.581ZM340.675 312.921C340.376 312.61 340.385 312.113 340.697 311.814C341.01 311.515 341.505 311.526 341.804 311.838L340.675 312.921ZM343.97 314.095C344.269 314.408 344.26 314.903 343.947 315.202C343.635 315.501 343.14 315.491 342.84 315.18L343.97 314.095ZM345.006 317.437C344.707 317.125 344.718 316.629 345.03 316.33C345.341 316.031 345.838 316.041 346.137 316.354L345.006 317.437ZM348.301 318.611C348.602 318.922 348.591 319.418 348.28 319.717C347.968 320.016 347.472 320.005 347.173 319.694L348.301 318.611ZM349.339 321.951C349.039 321.639 349.05 321.145 349.361 320.844C349.673 320.545 350.169 320.556 350.468 320.868L349.339 321.951ZM352.634 323.125C352.933 323.438 352.922 323.932 352.611 324.231C352.299 324.532 351.803 324.521 351.504 324.209L352.634 323.125ZM353.671 326.466C353.372 326.155 353.381 325.659 353.694 325.36C354.006 325.061 354.5 325.072 354.799 325.383L353.671 326.466ZM356.966 327.64C357.265 327.952 357.255 328.448 356.942 328.747C356.631 329.046 356.136 329.037 355.837 328.723L356.966 327.64ZM358.002 330.982C357.703 330.669 357.714 330.174 358.026 329.875C358.337 329.577 358.833 329.586 359.132 329.897L358.002 330.982ZM361.299 332.156C361.598 332.467 361.587 332.962 361.275 333.263C360.964 333.562 360.468 333.551 360.169 333.239L361.299 332.156ZM362.335 335.496C362.035 335.185 362.046 334.69 362.357 334.39C362.67 334.091 363.165 334.102 363.464 334.413L362.335 335.496ZM365.63 336.67C365.929 336.983 365.918 337.478 365.607 337.777C365.295 338.076 364.799 338.066 364.5 337.755L365.63 336.67ZM366.667 340.012C366.368 339.7 366.377 339.204 366.69 338.905C367.002 338.606 367.496 338.616 367.797 338.929L366.667 340.012ZM369.962 341.186C370.261 341.497 370.251 341.993 369.94 342.292C369.627 342.591 369.132 342.58 368.833 342.269L369.962 341.186ZM370.998 344.527C370.699 344.214 370.71 343.72 371.021 343.421C371.333 343.12 371.829 343.131 372.128 343.443L370.998 344.527ZM374.295 345.701C374.594 346.013 374.583 346.507 374.271 346.808C373.96 347.107 373.463 347.096 373.164 346.785L374.295 345.701ZM375.331 349.042C375.03 348.73 375.041 348.234 375.353 347.935C375.666 347.636 376.161 347.647 376.46 347.958L375.331 349.042ZM378.626 350.215C378.925 350.527 378.916 351.023 378.603 351.322C378.291 351.621 377.795 351.612 377.496 351.299L378.626 350.215ZM379.662 353.557C379.363 353.244 379.373 352.75 379.686 352.451C379.997 352.152 380.492 352.161 380.793 352.473L379.662 353.557ZM382.957 354.731C383.256 355.043 383.247 355.539 382.936 355.838C382.622 356.137 382.128 356.126 381.829 355.814L382.957 354.731ZM383.994 358.071C383.695 357.76 383.706 357.265 384.017 356.965C384.329 356.666 384.825 356.677 385.124 356.988L383.994 358.071ZM387.29 359.245C387.589 359.558 387.578 360.053 387.267 360.352C386.955 360.652 386.459 360.641 386.16 360.33L387.29 359.245ZM388.327 362.587C388.028 362.275 388.037 361.779 388.349 361.48C388.662 361.181 389.156 361.191 389.455 361.504L388.327 362.587ZM391.489 362.391C391.921 362.391 392.271 362.742 392.271 363.174C392.271 363.606 391.921 363.957 391.489 363.957V362.391ZM394.516 363.957C394.084 363.957 393.734 363.606 393.734 363.174C393.734 362.742 394.084 362.391 394.516 362.391V363.957ZM397.545 362.391C397.977 362.391 398.328 362.742 398.328 363.174C398.328 363.606 397.977 363.957 397.545 363.957V362.391ZM400.574 363.957C400.142 363.957 399.792 363.606 399.792 363.174C399.792 362.742 400.142 362.391 400.574 362.391V363.957ZM403.602 362.391C404.035 362.391 404.384 362.742 404.384 363.174C404.384 363.606 404.035 363.957 403.602 363.957V362.391ZM406.631 363.957C406.199 363.957 405.848 363.606 405.848 363.174C405.848 362.742 406.199 362.391 406.631 362.391V363.957ZM409.66 362.391C410.092 362.391 410.442 362.742 410.442 363.174C410.442 363.606 410.092 363.957 409.66 363.957V362.391ZM412.689 363.957C412.255 363.957 411.906 363.606 411.906 363.174C411.906 362.742 412.255 362.391 412.689 362.391V363.957ZM415.716 362.391C416.148 362.391 416.499 362.742 416.499 363.174C416.499 363.606 416.148 363.957 415.716 363.957V362.391ZM418.745 363.957C418.313 363.957 417.963 363.606 417.963 363.174C417.963 362.742 418.313 362.391 418.745 362.391V363.957ZM421.774 362.391C422.206 362.391 422.557 362.742 422.557 363.174C422.557 363.606 422.206 363.957 421.774 363.957V362.391ZM424.802 363.957C424.37 363.957 424.019 363.606 424.019 363.174C424.019 362.742 424.37 362.391 424.802 362.391V363.957ZM427.831 362.391C428.263 362.391 428.613 362.742 428.613 363.174C428.613 363.606 428.263 363.957 427.831 363.957V362.391ZM430.86 363.957C430.426 363.957 430.077 363.606 430.077 363.174C430.077 362.742 430.426 362.391 430.86 362.391V363.957ZM433.887 362.391C434.319 362.391 434.67 362.742 434.67 363.174C434.67 363.606 434.319 363.957 433.887 363.957V362.391ZM436.916 363.957C436.484 363.957 436.133 363.606 436.133 363.174C436.133 362.742 436.484 362.391 436.916 362.391V363.957ZM439.945 362.391C440.377 362.391 440.728 362.742 440.728 363.174C440.728 363.606 440.377 363.957 439.945 363.957V362.391ZM442.973 363.957C442.541 363.957 442.19 363.606 442.19 363.174C442.19 362.742 442.541 362.391 442.973 362.391V363.957ZM446.002 362.391C446.434 362.391 446.784 362.742 446.784 363.174C446.784 363.606 446.434 363.957 446.002 363.957V362.391ZM449.031 363.957C448.599 363.957 448.248 363.606 448.248 363.174C448.248 362.742 448.599 362.391 449.031 362.391V363.957ZM452.058 362.391C452.492 362.391 452.841 362.742 452.841 363.174C452.841 363.606 452.492 363.957 452.058 363.957V362.391ZM455.087 363.957C454.655 363.957 454.304 363.606 454.304 363.174C454.304 362.742 454.655 362.391 455.087 362.391V363.957ZM458.116 362.391C458.548 362.391 458.899 362.742 458.899 363.174C458.899 363.606 458.548 363.957 458.116 363.957V362.391ZM461.145 363.957C460.711 363.957 460.362 363.606 460.362 363.174C460.362 362.742 460.711 362.391 461.145 362.391V363.957ZM464.173 362.391C464.605 362.391 464.955 362.742 464.955 363.174C464.955 363.606 464.605 363.957 464.173 363.957V362.391ZM467.202 363.957C466.77 363.957 466.419 363.606 466.419 363.174C466.419 362.742 466.77 362.391 467.202 362.391V363.957ZM470.231 362.391C470.663 362.391 471.013 362.742 471.013 363.174C471.013 363.606 470.663 363.957 470.231 363.957V362.391ZM473.258 363.957C472.826 363.957 472.475 363.606 472.475 363.174C472.475 362.742 472.826 362.391 473.258 362.391V363.957ZM476.287 362.391C476.719 362.391 477.07 362.742 477.07 363.174C477.07 363.606 476.719 363.957 476.287 363.957V362.391ZM479.316 363.957C478.884 363.957 478.533 363.606 478.533 363.174C478.533 362.742 478.884 362.391 479.316 362.391V363.957ZM203.757 245H205.29V246.565H203.757V245ZM208.356 245H211.423V246.565H208.356V245ZM214.488 245H217.555V246.565H214.488V245ZM220.621 245H223.686V246.565H220.621V245ZM226.753 245H229.819V246.565H226.753V245ZM232.884 245H235.951V246.565H232.884V245ZM239.018 245H242.083V246.565H239.018V245ZM245.149 245H248.216V246.565H245.149V245ZM251.281 245H254.347V246.565H251.281V245ZM257.414 245H260.479V246.565H257.414V245ZM263.545 245H266.612V246.565H263.545V245ZM269.677 245H272.744V246.565H269.677V245ZM275.81 245H277.343V246.565H275.81V245ZM277.908 245.241L278.991 246.37L277.861 247.453L276.778 246.324L277.908 245.241ZM281.156 248.627L283.322 250.885L282.194 251.968L280.027 249.711L281.156 248.627ZM285.489 253.142L287.654 255.399L286.525 256.484L284.359 254.225L285.489 253.142ZM289.82 257.658L291.987 259.915L290.857 260.998L288.692 258.741L289.82 257.658ZM294.153 262.172L296.318 264.429L295.19 265.514L293.023 263.255L294.153 262.172ZM298.485 266.688L300.651 268.945L299.521 270.028L297.355 267.771L298.485 266.688ZM302.816 271.202L304.983 273.46L303.852 274.543L301.688 272.286L302.816 271.202ZM307.149 275.717L309.314 277.974L308.185 279.059L306.019 276.801L307.149 275.717ZM311.481 280.233L313.647 282.49L312.517 283.573L310.35 281.316L311.481 280.233ZM315.812 284.747L317.978 287.006L316.848 288.089L314.683 285.832L315.812 284.747ZM320.145 289.263L322.31 291.52L321.181 292.603L319.015 290.346L320.145 289.263ZM324.476 293.777L326.643 296.035L325.513 297.119L323.346 294.862L324.476 293.777ZM328.808 298.293L330.974 300.55L329.844 301.634L327.679 299.376L328.808 298.293ZM333.141 302.808L335.306 305.065L334.177 306.148L332.011 303.891L333.141 302.808ZM337.472 307.322L339.639 309.581L338.508 310.664L336.342 308.407L337.472 307.322ZM341.804 311.838L343.97 314.095L342.84 315.18L340.675 312.921L341.804 311.838ZM346.137 316.354L348.301 318.611L347.173 319.694L345.006 317.437L346.137 316.354ZM350.468 320.868L352.634 323.125L351.504 324.209L349.339 321.951L350.468 320.868ZM354.799 325.383L356.966 327.64L355.837 328.723L353.671 326.466L354.799 325.383ZM359.132 329.897L361.299 332.156L360.169 333.239L358.002 330.982L359.132 329.897ZM363.464 334.413L365.63 336.67L364.5 337.755L362.335 335.496L363.464 334.413ZM367.797 338.929L369.962 341.186L368.833 342.269L366.667 340.012L367.797 338.929ZM372.128 343.443L374.295 345.701L373.164 346.785L370.998 344.527L372.128 343.443ZM376.46 347.958L378.626 350.215L377.496 351.299L375.331 349.042L376.46 347.958ZM380.793 352.473L382.957 354.731L381.829 355.814L379.662 353.557L380.793 352.473ZM385.124 356.988L387.29 359.245L386.16 360.33L383.994 358.071L385.124 356.988ZM389.455 361.504L390.539 362.632L389.41 363.715L388.327 362.587L389.455 361.504ZM389.973 362.391H391.489V363.957H389.973V362.391ZM394.516 362.391H397.545V363.957H394.516V362.391ZM400.574 362.391H403.602V363.957H400.574V362.391ZM406.631 362.391H409.66V363.957H406.631V362.391ZM412.689 362.391H415.716V363.957H412.689V362.391ZM418.745 362.391H421.774V363.957H418.745V362.391ZM424.802 362.391H427.831V363.957H424.802V362.391ZM430.86 362.391H433.887V363.957H430.86V362.391ZM436.916 362.391H439.945V363.957H436.916V362.391ZM442.973 362.391H446.002V363.957H442.973V362.391ZM449.031 362.391H452.058V363.957H449.031V362.391ZM455.087 362.391H458.116V363.957H455.087V362.391ZM461.145 362.391H464.173V363.957H461.145V362.391ZM467.202 362.391H470.231V363.957H467.202V362.391ZM473.258 362.391H476.287V363.957H473.258V362.391ZM479.316 362.391H480.83V363.957H479.316V362.391Z" fill="url(#paint1_linear_105_35)"/>
<path d="M203.757 230.913C203.325 230.913 202.975 231.264 202.975 231.696C202.975 232.128 203.325 232.478 203.757 232.478V230.913ZM478.253 232.25C478.558 231.943 478.558 231.448 478.253 231.142L473.272 226.161C472.965 225.856 472.471 225.856 472.164 226.161C471.859 226.468 471.859 226.962 472.164 227.269L476.592 231.696L472.164 236.122C471.859 236.429 471.859 236.923 472.164 237.23C472.471 237.535 472.965 237.535 473.272 237.23L478.253 232.25ZM205.313 232.478C205.745 232.478 206.096 232.128 206.096 231.696C206.096 231.264 205.745 230.913 205.313 230.913V232.478ZM208.427 230.913C207.995 230.913 207.644 231.264 207.644 231.696C207.644 232.128 207.995 232.478 208.427 232.478V230.913ZM211.54 232.478C211.972 232.478 212.323 232.128 212.323 231.696C212.323 231.264 211.972 230.913 211.54 230.913V232.478ZM214.652 230.913C214.22 230.913 213.87 231.264 213.87 231.696C213.87 232.128 214.22 232.478 214.652 232.478V230.913ZM217.766 232.478C218.198 232.478 218.549 232.128 218.549 231.696C218.549 231.264 218.198 230.913 217.766 230.913V232.478ZM220.879 230.913C220.446 230.913 220.097 231.264 220.097 231.696C220.097 232.128 220.446 232.478 220.879 232.478V230.913ZM223.991 232.478C224.423 232.478 224.774 232.128 224.774 231.696C224.774 231.264 224.423 230.913 223.991 230.913V232.478ZM227.105 230.913C226.673 230.913 226.322 231.264 226.322 231.696C226.322 232.128 226.673 232.478 227.105 232.478V230.913ZM230.217 232.478C230.651 232.478 231 232.128 231 231.696C231 231.264 230.651 230.913 230.217 230.913V232.478ZM233.33 230.913C232.898 230.913 232.548 231.264 232.548 231.696C232.548 232.128 232.898 232.478 233.33 232.478V230.913ZM236.444 232.478C236.876 232.478 237.227 232.128 237.227 231.696C237.227 231.264 236.876 230.913 236.444 230.913V232.478ZM239.556 230.913C239.124 230.913 238.773 231.264 238.773 231.696C238.773 232.128 239.124 232.478 239.556 232.478V230.913ZM242.67 232.478C243.102 232.478 243.452 232.128 243.452 231.696C243.452 231.264 243.102 230.913 242.67 230.913V232.478ZM245.783 230.913C245.349 230.913 245 231.264 245 231.696C245 232.128 245.349 232.478 245.783 232.478V230.913ZM248.895 232.478C249.327 232.478 249.678 232.128 249.678 231.696C249.678 231.264 249.327 230.913 248.895 230.913V232.478ZM252.009 230.913C251.577 230.913 251.226 231.264 251.226 231.696C251.226 232.128 251.577 232.478 252.009 232.478V230.913ZM255.121 232.478C255.554 232.478 255.903 232.128 255.903 231.696C255.903 231.264 255.554 230.913 255.121 230.913V232.478ZM258.234 230.913C257.802 230.913 257.451 231.264 257.451 231.696C257.451 232.128 257.802 232.478 258.234 232.478V230.913ZM261.348 232.478C261.78 232.478 262.13 232.128 262.13 231.696C262.13 231.264 261.78 230.913 261.348 230.913V232.478ZM264.46 230.913C264.028 230.913 263.677 231.264 263.677 231.696C263.677 232.128 264.028 232.478 264.46 232.478V230.913ZM267.573 232.478C268.005 232.478 268.356 232.128 268.356 231.696C268.356 231.264 268.005 230.913 267.573 230.913V232.478ZM270.687 230.913C270.255 230.913 269.904 231.264 269.904 231.696C269.904 232.128 270.255 232.478 270.687 232.478V230.913ZM273.799 232.478C274.231 232.478 274.581 232.128 274.581 231.696C274.581 231.264 274.231 230.913 273.799 230.913V232.478ZM276.912 230.913C276.48 230.913 276.13 231.264 276.13 231.696C276.13 232.128 276.48 232.478 276.912 232.478V230.913ZM280.026 232.478C280.458 232.478 280.808 232.128 280.808 231.696C280.808 231.264 280.458 230.913 280.026 230.913V232.478ZM283.138 230.913C282.706 230.913 282.355 231.264 282.355 231.696C282.355 232.128 282.706 232.478 283.138 232.478V230.913ZM286.251 232.478C286.683 232.478 287.034 232.128 287.034 231.696C287.034 231.264 286.683 230.913 286.251 230.913V232.478ZM289.363 230.913C288.931 230.913 288.581 231.264 288.581 231.696C288.581 232.128 288.931 232.478 289.363 232.478V230.913ZM292.477 232.478C292.909 232.478 293.26 232.128 293.26 231.696C293.26 231.264 292.909 230.913 292.477 230.913V232.478ZM295.59 230.913C295.158 230.913 294.808 231.264 294.808 231.696C294.808 232.128 295.158 232.478 295.59 232.478V230.913ZM298.702 232.478C299.136 232.478 299.485 232.128 299.485 231.696C299.485 231.264 299.136 230.913 298.702 230.913V232.478ZM301.816 230.913C301.384 230.913 301.033 231.264 301.033 231.696C301.033 232.128 301.384 232.478 301.816 232.478V230.913ZM304.929 232.478C305.361 232.478 305.712 232.128 305.712 231.696C305.712 231.264 305.361 230.913 304.929 230.913V232.478ZM308.041 230.913C307.609 230.913 307.259 231.264 307.259 231.696C307.259 232.128 307.609 232.478 308.041 232.478V230.913ZM311.155 232.478C311.587 232.478 311.938 232.128 311.938 231.696C311.938 231.264 311.587 230.913 311.155 230.913V232.478ZM314.269 230.913C313.835 230.913 313.486 231.264 313.486 231.696C313.486 232.128 313.835 232.478 314.269 232.478V230.913ZM317.38 232.478C317.813 232.478 318.163 232.128 318.163 231.696C318.163 231.264 317.813 230.913 317.38 230.913V232.478ZM320.494 230.913C320.062 230.913 319.711 231.264 319.711 231.696C319.711 232.128 320.062 232.478 320.494 232.478V230.913ZM323.608 232.478C324.04 232.478 324.39 232.128 324.39 231.696C324.39 231.264 324.04 230.913 323.608 230.913V232.478ZM326.72 230.913C326.287 230.913 325.937 231.264 325.937 231.696C325.937 232.128 326.287 232.478 326.72 232.478V230.913ZM329.833 232.478C330.265 232.478 330.616 232.128 330.616 231.696C330.616 231.264 330.265 230.913 329.833 230.913V232.478ZM332.945 230.913C332.513 230.913 332.162 231.264 332.162 231.696C332.162 232.128 332.513 232.478 332.945 232.478V230.913ZM336.059 232.478C336.491 232.478 336.841 232.128 336.841 231.696C336.841 231.264 336.491 230.913 336.059 230.913V232.478ZM339.172 230.913C338.74 230.913 338.389 231.264 338.389 231.696C338.389 232.128 338.74 232.478 339.172 232.478V230.913ZM342.284 232.478C342.718 232.478 343.067 232.128 343.067 231.696C343.067 231.264 342.718 230.913 342.284 230.913V232.478ZM345.398 230.913C344.966 230.913 344.615 231.264 344.615 231.696C344.615 232.128 344.966 232.478 345.398 232.478V230.913ZM348.511 232.478C348.943 232.478 349.294 232.128 349.294 231.696C349.294 231.264 348.943 230.913 348.511 230.913V232.478ZM351.623 230.913C351.191 230.913 350.841 231.264 350.841 231.696C350.841 232.128 351.191 232.478 351.623 232.478V230.913ZM354.737 232.478C355.169 232.478 355.519 232.128 355.519 231.696C355.519 231.264 355.169 230.913 354.737 230.913V232.478ZM357.85 230.913C357.417 230.913 357.068 231.264 357.068 231.696C357.068 232.128 357.417 232.478 357.85 232.478V230.913ZM360.962 232.478C361.394 232.478 361.745 232.128 361.745 231.696C361.745 231.264 361.394 230.913 360.962 230.913V232.478ZM364.076 230.913C363.644 230.913 363.293 231.264 363.293 231.696C363.293 232.128 363.644 232.478 364.076 232.478V230.913ZM367.188 232.478C367.621 232.478 367.97 232.128 367.97 231.696C367.97 231.264 367.621 230.913 367.188 230.913V232.478ZM370.301 230.913C369.869 230.913 369.519 231.264 369.519 231.696C369.519 232.128 369.869 232.478 370.301 232.478V230.913ZM373.415 232.478C373.847 232.478 374.198 232.128 374.198 231.696C374.198 231.264 373.847 230.913 373.415 230.913V232.478ZM376.527 230.913C376.095 230.913 375.744 231.264 375.744 231.696C375.744 232.128 376.095 232.478 376.527 232.478V230.913ZM379.64 232.478C380.072 232.478 380.423 232.128 380.423 231.696C380.423 231.264 380.072 230.913 379.64 230.913V232.478ZM382.754 230.913C382.322 230.913 381.971 231.264 381.971 231.696C381.971 232.128 382.322 232.478 382.754 232.478V230.913ZM385.866 232.478C386.298 232.478 386.649 232.128 386.649 231.696C386.649 231.264 386.298 230.913 385.866 230.913V232.478ZM388.979 230.913C388.547 230.913 388.197 231.264 388.197 231.696C388.197 232.128 388.547 232.478 388.979 232.478V230.913ZM392.093 232.478C392.525 232.478 392.876 232.128 392.876 231.696C392.876 231.264 392.525 230.913 392.093 230.913V232.478ZM395.205 230.913C394.773 230.913 394.422 231.264 394.422 231.696C394.422 232.128 394.773 232.478 395.205 232.478V230.913ZM398.319 232.478C398.751 232.478 399.101 232.128 399.101 231.696C399.101 231.264 398.751 230.913 398.319 230.913V232.478ZM401.432 230.913C400.998 230.913 400.649 231.264 400.649 231.696C400.649 232.128 400.998 232.478 401.432 232.478V230.913ZM404.544 232.478C404.976 232.478 405.327 232.128 405.327 231.696C405.327 231.264 404.976 230.913 404.544 230.913V232.478ZM407.658 230.913C407.226 230.913 406.875 231.264 406.875 231.696C406.875 232.128 407.226 232.478 407.658 232.478V230.913ZM410.77 232.478C411.203 232.478 411.552 232.128 411.552 231.696C411.552 231.264 411.203 230.913 410.77 230.913V232.478ZM413.883 230.913C413.451 230.913 413.1 231.264 413.1 231.696C413.1 232.128 413.451 232.478 413.883 232.478V230.913ZM416.997 232.478C417.429 232.478 417.779 232.128 417.779 231.696C417.779 231.264 417.429 230.913 416.997 230.913V232.478ZM420.109 230.913C419.677 230.913 419.326 231.264 419.326 231.696C419.326 232.128 419.677 232.478 420.109 232.478V230.913ZM423.222 232.478C423.654 232.478 424.005 232.128 424.005 231.696C424.005 231.264 423.654 230.913 423.222 230.913V232.478ZM426.336 230.913C425.902 230.913 425.553 231.264 425.553 231.696C425.553 232.128 425.902 232.478 426.336 232.478V230.913ZM429.448 232.478C429.88 232.478 430.23 232.128 430.23 231.696C430.23 231.264 429.88 230.913 429.448 230.913V232.478ZM432.561 230.913C432.129 230.913 431.779 231.264 431.779 231.696C431.779 232.128 432.129 232.478 432.561 232.478V230.913ZM435.673 232.478C436.107 232.478 436.456 232.128 436.456 231.696C436.456 231.264 436.107 230.913 435.673 230.913V232.478ZM438.787 230.913C438.355 230.913 438.004 231.264 438.004 231.696C438.004 232.128 438.355 232.478 438.787 232.478V230.913ZM441.9 232.478C442.332 232.478 442.683 232.128 442.683 231.696C442.683 231.264 442.332 230.913 441.9 230.913V232.478ZM445.012 230.913C444.58 230.913 444.23 231.264 444.23 231.696C444.23 232.128 444.58 232.478 445.012 232.478V230.913ZM448.126 232.478C448.558 232.478 448.908 232.128 448.908 231.696C448.908 231.264 448.558 230.913 448.126 230.913V232.478ZM451.239 230.913C450.806 230.913 450.457 231.264 450.457 231.696C450.457 232.128 450.806 232.478 451.239 232.478V230.913ZM454.351 232.478C454.783 232.478 455.134 232.128 455.134 231.696C455.134 231.264 454.783 230.913 454.351 230.913V232.478ZM457.465 230.913C457.033 230.913 456.682 231.264 456.682 231.696C456.682 232.128 457.033 232.478 457.465 232.478V230.913ZM460.578 232.478C461.01 232.478 461.361 232.128 461.361 231.696C461.361 231.264 461.01 230.913 460.578 230.913V232.478ZM463.69 230.913C463.258 230.913 462.908 231.264 462.908 231.696C462.908 232.128 463.258 232.478 463.69 232.478V230.913ZM466.804 232.478C467.236 232.478 467.587 232.128 467.587 231.696C467.587 231.264 467.236 230.913 466.804 230.913V232.478ZM469.916 230.913C469.484 230.913 469.133 231.264 469.133 231.696C469.133 232.128 469.484 232.478 469.916 232.478V230.913ZM473.029 232.478C473.461 232.478 473.812 232.128 473.812 231.696C473.812 231.264 473.461 230.913 473.029 230.913V232.478ZM476.143 230.913C475.711 230.913 475.36 231.264 475.36 231.696C475.36 232.128 475.711 232.478 476.143 232.478V230.913ZM203.757 232.478H205.313V230.913H203.757V232.478ZM208.427 232.478H211.54V230.913H208.427V232.478ZM214.652 232.478H217.766V230.913H214.652V232.478ZM220.879 232.478H223.991V230.913H220.879V232.478ZM227.105 232.478H230.217V230.913H227.105V232.478ZM233.33 232.478H236.444V230.913H233.33V232.478ZM239.556 232.478H242.67V230.913H239.556V232.478ZM245.783 232.478H248.895V230.913H245.783V232.478ZM252.009 232.478H255.121V230.913H252.009V232.478ZM258.234 232.478H261.348V230.913H258.234V232.478ZM264.46 232.478H267.573V230.913H264.46V232.478ZM270.687 232.478H273.799V230.913H270.687V232.478ZM276.912 232.478H280.026V230.913H276.912V232.478ZM283.138 232.478H286.251V230.913H283.138V232.478ZM289.363 232.478H292.477V230.913H289.363V232.478ZM295.59 232.478H298.702V230.913H295.59V232.478ZM301.816 232.478H304.929V230.913H301.816V232.478ZM308.041 232.478H311.155V230.913H308.041V232.478ZM314.269 232.478H317.38V230.913H314.269V232.478ZM320.494 232.478H323.608V230.913H320.494V232.478ZM326.72 232.478H329.833V230.913H326.72V232.478ZM332.945 232.478H336.059V230.913H332.945V232.478ZM339.172 232.478H342.284V230.913H339.172V232.478ZM345.398 232.478H348.511V230.913H345.398V232.478ZM351.623 232.478H354.737V230.913H351.623V232.478ZM357.85 232.478H360.962V230.913H357.85V232.478ZM364.076 232.478H367.188V230.913H364.076V232.478ZM370.301 232.478H373.415V230.913H370.301V232.478ZM376.527 232.478H379.64V230.913H376.527V232.478ZM382.754 232.478H385.866V230.913H382.754V232.478ZM388.979 232.478H392.093V230.913H388.979V232.478ZM395.205 232.478H398.319V230.913H395.205V232.478ZM401.432 232.478H404.544V230.913H401.432V232.478ZM407.658 232.478H410.77V230.913H407.658V232.478ZM413.883 232.478H416.997V230.913H413.883V232.478ZM420.109 232.478H423.222V230.913H420.109V232.478ZM426.336 232.478H429.448V230.913H426.336V232.478ZM432.561 232.478H435.673V230.913H432.561V232.478ZM438.787 232.478H441.9V230.913H438.787V232.478ZM445.012 232.478H448.126V230.913H445.012V232.478ZM451.239 232.478H454.351V230.913H451.239V232.478ZM457.465 232.478H460.578V230.913H457.465V232.478ZM463.69 232.478H466.804V230.913H463.69V232.478ZM469.916 232.478H473.029V230.913H469.916V232.478ZM476.143 232.478H477.699V230.913H476.143V232.478Z" fill="url(#paint2_linear_105_35)"/>
<path d="M515.833 78.4972L537.184 68.2166L558.534 78.4972L563.808 101.598L549.032 120.123H525.335L510.56 101.598L515.833 78.4972Z" stroke="white"/>
<path d="M515.833 209.975L537.184 199.695L558.534 209.975L563.808 233.076L549.032 251.6H525.335L510.56 233.076L515.833 209.975Z" stroke="white"/>
<path d="M515.833 341.453L537.184 331.173L558.534 341.453L563.808 364.554L549.032 383.079H525.335L510.56 364.554L515.833 341.453Z" stroke="white"/>
<path opacity="0.2" d="M523.177 84.3525L537.184 77.6078L551.191 84.3525L554.65 99.5081L544.957 111.662H529.41L519.717 99.5081L523.177 84.3525Z" stroke="white"/>
<path opacity="0.2" d="M523.177 215.831L537.184 209.086L551.191 215.831L554.65 230.987L544.957 243.14H529.41L519.717 230.987L523.177 215.831Z" stroke="white"/>
<path opacity="0.2" d="M523.177 347.309L537.184 340.564L551.191 347.309L554.65 362.465L544.957 374.619H529.41L519.717 362.465L523.177 347.309Z" stroke="white"/>
<path opacity="0.1" d="M530.52 90.208L537.183 86.9991L543.847 90.208L545.494 97.4182L540.882 103.2H533.484L528.873 97.4182L530.52 90.208Z" stroke="white"/>
<path opacity="0.1" d="M530.52 221.686L537.183 218.477L543.847 221.686L545.494 228.897L540.882 234.679H533.484L528.873 228.897L530.52 221.686Z" stroke="white"/>
<path opacity="0.1" d="M530.52 353.164L537.183 349.956L543.847 353.164L545.494 360.375L540.882 366.157H533.484L528.873 360.375L530.52 353.164Z" stroke="white"/>
<path opacity="0.3" d="M649.891 47.7826H537.183C511.68 47.7826 491.005 68.4554 491.005 93.9565V97.0869C491.005 122.588 511.68 143.261 537.183 143.261H649.891C675.395 143.261 696.07 122.588 696.07 97.0869V93.9565C696.07 68.4554 675.395 47.7826 649.891 47.7826Z" fill="#0A0E12" stroke="white" stroke-dasharray="2 5"/>
<path opacity="0.3" d="M649.891 179.261H537.183C511.68 179.261 491.005 199.934 491.005 225.435V228.565C491.005 254.066 511.68 274.739 537.183 274.739H649.891C675.395 274.739 696.07 254.066 696.07 228.565V225.435C696.07 199.934 675.395 179.261 649.891 179.261Z" fill="#0A0E12" stroke="white" stroke-dasharray="2 5"/>
<path opacity="0.3" d="M649.891 310.739H537.183C511.68 310.739 491.005 331.412 491.005 356.913V360.043C491.005 385.545 511.68 406.217 537.183 406.217H649.891C675.395 406.217 696.07 385.545 696.07 360.043V356.913C696.07 331.412 675.395 310.739 649.891 310.739Z" fill="#0A0E12" stroke="white" stroke-dasharray="2 5"/>
<path opacity="0.7" d="M595.893 95.5217H594.24C594.141 95.0459 593.971 94.628 593.725 94.2678C593.486 93.9077 593.191 93.6053 592.845 93.3606C592.502 93.1116 592.122 92.9249 591.704 92.8004C591.286 92.6758 590.851 92.6135 590.397 92.6135C589.57 92.6135 588.821 92.8226 588.149 93.2406C587.482 93.6586 586.95 94.2744 586.554 95.0881C586.163 95.9019 585.967 96.9002 585.967 98.083C585.967 99.2657 586.163 100.264 586.554 101.078C586.95 101.892 587.482 102.507 588.149 102.925C588.821 103.343 589.57 103.552 590.397 103.552C590.851 103.552 591.286 103.49 591.704 103.366C592.122 103.241 592.502 103.057 592.845 102.812C593.191 102.563 593.486 102.258 593.725 101.898C593.971 101.534 594.141 101.116 594.24 100.644H595.893C595.769 101.342 595.542 101.967 595.214 102.519C594.883 103.07 594.475 103.539 593.986 103.926C593.496 104.308 592.947 104.6 592.338 104.8C591.734 105 591.086 105.1 590.397 105.1C589.232 105.1 588.196 104.815 587.288 104.246C586.382 103.677 585.668 102.868 585.147 101.818C584.627 100.769 584.367 99.5237 584.367 98.083C584.367 96.6422 584.627 95.3973 585.147 94.3478C585.668 93.2983 586.382 92.4891 587.288 91.92C588.196 91.3507 589.232 91.0662 590.397 91.0662C591.086 91.0662 591.734 91.1662 592.338 91.3664C592.947 91.5664 593.496 91.8599 593.986 92.2468C594.475 92.6292 594.883 93.0961 595.214 93.6475C595.542 94.1944 595.769 94.8191 595.893 95.5217ZM598.567 104.913V91.2529H600.221V103.446H606.572V104.913H598.567ZM618.098 91.2529H619.753V100.297C619.753 101.231 619.533 102.065 619.092 102.799C618.657 103.528 618.04 104.104 617.245 104.526C616.448 104.944 615.515 105.153 614.443 105.153C613.371 105.153 612.438 104.944 611.641 104.526C610.846 104.104 610.227 103.528 609.787 102.799C609.351 102.065 609.133 101.231 609.133 100.297V91.2529H610.788V100.164C610.788 100.831 610.935 101.425 611.228 101.945C611.522 102.461 611.94 102.868 612.481 103.165C613.029 103.459 613.682 103.606 614.443 103.606C615.204 103.606 615.858 103.459 616.404 103.165C616.951 102.868 617.369 102.461 617.658 101.945C617.952 101.425 618.098 100.831 618.098 100.164V91.2529ZM630.527 94.6679C630.447 93.992 630.123 93.4674 629.553 93.0939C628.985 92.7203 628.287 92.5336 627.459 92.5336C626.855 92.5336 626.326 92.6314 625.872 92.827C625.422 93.0227 625.072 93.2917 624.818 93.6341C624.569 93.9765 624.444 94.3656 624.444 94.8014C624.444 95.1659 624.53 95.4794 624.704 95.7418C624.882 95.9997 625.109 96.2154 625.385 96.3888C625.66 96.5577 625.95 96.6978 626.252 96.8089C626.554 96.9157 626.833 97.0024 627.085 97.0691L628.473 97.4427C628.829 97.536 629.225 97.665 629.66 97.8295C630.101 97.994 630.521 98.2186 630.922 98.5031C631.325 98.7833 631.659 99.1435 631.922 99.5838C632.185 100.024 632.315 100.564 632.315 101.205C632.315 101.943 632.122 102.61 631.736 103.206C631.352 103.801 630.792 104.275 630.054 104.626C629.32 104.977 628.428 105.153 627.379 105.153C626.401 105.153 625.554 104.995 624.837 104.68C624.126 104.364 623.566 103.924 623.157 103.359C622.752 102.794 622.523 102.138 622.47 101.391H624.178C624.222 101.907 624.396 102.334 624.698 102.672C625.004 103.005 625.391 103.254 625.858 103.419C626.33 103.579 626.836 103.659 627.379 103.659C628.01 103.659 628.578 103.557 629.081 103.352C629.583 103.143 629.981 102.854 630.274 102.485C630.568 102.112 630.715 101.676 630.715 101.178C630.715 100.724 630.588 100.355 630.335 100.071C630.081 99.786 629.748 99.5548 629.334 99.377C628.92 99.199 628.473 99.0434 627.993 98.9101L626.312 98.4299C625.244 98.1229 624.4 97.685 623.777 97.1159C623.154 96.5466 622.843 95.8019 622.843 94.8814C622.843 94.1166 623.049 93.4495 623.464 92.8804C623.882 92.3068 624.443 91.8621 625.144 91.5464C625.851 91.2263 626.64 91.0662 627.512 91.0662C628.394 91.0662 629.176 91.2241 629.86 91.5398C630.546 91.851 631.088 92.278 631.488 92.8203C631.892 93.3628 632.107 93.9787 632.129 94.6679H630.527ZM634.289 92.7203V91.2529H644.534V92.7203H640.239V104.913H638.584V92.7203H634.289ZM647.087 104.913V91.2529H655.332V92.7203H648.742V97.336H654.905V98.8033H648.742V103.446H655.439V104.913H647.087ZM658.314 104.913V91.2529H662.931C663.998 91.2529 664.873 91.4352 665.559 91.7999C666.243 92.1601 666.75 92.6558 667.079 93.2872C667.409 93.9188 667.573 94.6369 667.573 95.4417C667.573 96.2466 667.409 96.9601 667.079 97.5828C666.75 98.2053 666.246 98.6944 665.565 99.0502C664.884 99.4014 664.015 99.577 662.957 99.577H659.222V98.083H662.904C663.633 98.083 664.22 97.9763 664.665 97.7628C665.114 97.5494 665.438 97.247 665.639 96.8557C665.844 96.4599 665.945 95.9886 665.945 95.4417C665.945 94.8947 665.844 94.4167 665.639 94.0077C665.434 93.5985 665.108 93.2828 664.659 93.0606C664.209 92.8338 663.615 92.7203 662.877 92.7203H659.969V104.913H658.314ZM664.745 98.7766L668.107 104.913H666.185L662.877 98.7766H664.745Z" fill="white"/>
<path opacity="0.7" d="M595.893 225.435H594.24C594.141 224.959 593.971 224.541 593.725 224.181C593.486 223.821 593.191 223.519 592.845 223.273C592.502 223.024 592.122 222.838 591.704 222.713C591.286 222.589 590.851 222.527 590.397 222.527C589.57 222.527 588.821 222.736 588.149 223.154C587.482 223.572 586.95 224.187 586.554 225.001C586.163 225.815 585.967 226.814 585.967 227.996C585.967 229.179 586.163 230.177 586.554 230.991C586.95 231.805 587.482 232.42 588.149 232.838C588.821 233.256 589.57 233.466 590.397 233.466C590.851 233.466 591.286 233.403 591.704 233.278C592.122 233.154 592.502 232.97 592.845 232.726C593.191 232.477 593.486 232.172 593.725 231.812C593.971 231.447 594.141 231.029 594.24 230.558H595.893C595.769 231.256 595.542 231.88 595.214 232.431C594.883 232.982 594.475 233.452 593.986 233.838C593.496 234.222 592.947 234.513 592.338 234.713C591.734 234.912 591.086 235.012 590.397 235.012C589.232 235.012 588.196 234.729 587.288 234.159C586.382 233.59 585.668 232.78 585.147 231.732C584.627 230.681 584.367 229.437 584.367 227.996C584.367 226.556 584.627 225.31 585.147 224.261C585.668 223.212 586.382 222.401 587.288 221.833C588.196 221.264 589.232 220.979 590.397 220.979C591.086 220.979 591.734 221.079 592.338 221.279C592.947 221.48 593.496 221.774 593.986 222.16C594.475 222.542 594.883 223.009 595.214 223.561C595.542 224.108 595.769 224.732 595.893 225.435ZM598.567 234.826V221.166H600.221V233.358H606.572V234.826H598.567ZM618.098 221.166H619.753V230.21C619.753 231.145 619.533 231.977 619.092 232.712C618.657 233.441 618.04 234.017 617.245 234.44C616.448 234.857 615.515 235.066 614.443 235.066C613.371 235.066 612.438 234.857 611.641 234.44C610.846 234.017 610.227 233.441 609.787 232.712C609.351 231.977 609.133 231.145 609.133 230.21V221.166H610.788V230.077C610.788 230.744 610.935 231.337 611.228 231.858C611.522 232.373 611.94 232.78 612.481 233.079C613.029 233.372 613.682 233.519 614.443 233.519C615.204 233.519 615.858 233.372 616.404 233.079C616.951 232.78 617.369 232.373 617.658 231.858C617.952 231.337 618.098 230.744 618.098 230.077V221.166ZM630.527 224.582C630.447 223.906 630.123 223.381 629.553 223.007C628.985 222.633 628.287 222.447 627.459 222.447C626.855 222.447 626.326 222.544 625.872 222.74C625.422 222.935 625.072 223.204 624.818 223.547C624.569 223.89 624.444 224.278 624.444 224.715C624.444 225.08 624.53 225.393 624.704 225.656C624.882 225.912 625.109 226.128 625.385 226.302C625.66 226.471 625.95 226.61 626.252 226.721C626.554 226.829 626.833 226.916 627.085 226.983L628.473 227.355C628.829 227.449 629.225 227.578 629.66 227.742C630.101 227.908 630.521 228.132 630.922 228.417C631.325 228.697 631.659 229.057 631.922 229.497C632.185 229.936 632.315 230.478 632.315 231.118C632.315 231.855 632.122 232.522 631.736 233.118C631.352 233.715 630.792 234.188 630.054 234.54C629.32 234.89 628.428 235.066 627.379 235.066C626.401 235.066 625.554 234.909 624.837 234.593C624.126 234.277 623.566 233.837 623.157 233.272C622.752 232.707 622.523 232.051 622.47 231.304H624.178C624.222 231.821 624.396 232.247 624.698 232.585C625.004 232.918 625.391 233.167 625.858 233.331C626.33 233.493 626.836 233.572 627.379 233.572C628.01 233.572 628.578 233.471 629.081 233.266C629.583 233.056 629.981 232.768 630.274 232.398C630.568 232.024 630.715 231.589 630.715 231.092C630.715 230.638 630.588 230.268 630.335 229.983C630.081 229.698 629.748 229.468 629.334 229.29C628.92 229.112 628.473 228.957 627.993 228.824L626.312 228.343C625.244 228.036 624.4 227.598 623.777 227.028C623.154 226.46 622.843 225.715 622.843 224.795C622.843 224.029 623.049 223.362 623.464 222.793C623.882 222.22 624.443 221.775 625.144 221.459C625.851 221.14 626.64 220.979 627.512 220.979C628.394 220.979 629.176 221.137 629.86 221.453C630.546 221.764 631.088 222.192 631.488 222.733C631.892 223.276 632.107 223.892 632.129 224.582H630.527ZM634.289 222.633V221.166H644.534V222.633H640.239V234.826H638.584V222.633H634.289ZM647.087 234.826V221.166H655.332V222.633H648.742V227.249H654.905V228.717H648.742V233.358H655.439V234.826H647.087ZM658.314 234.826V221.166H662.931C663.998 221.166 664.873 221.348 665.559 221.713C666.243 222.073 666.75 222.569 667.079 223.2C667.409 223.832 667.573 224.55 667.573 225.355C667.573 226.16 667.409 226.873 667.079 227.496C666.75 228.118 666.246 228.608 665.565 228.963C664.884 229.315 664.015 229.49 662.957 229.49H659.222V227.996H662.904C663.633 227.996 664.22 227.889 664.665 227.676C665.114 227.462 665.438 227.16 665.639 226.768C665.844 226.372 665.945 225.901 665.945 225.355C665.945 224.807 665.844 224.33 665.639 223.921C665.434 223.511 665.108 223.197 664.659 222.974C664.209 222.747 663.615 222.633 662.877 222.633H659.969V234.826H658.314ZM664.745 228.69L668.107 234.826H666.185L662.877 228.69H664.745Z" fill="white"/>
<path opacity="0.7" d="M595.893 356.913H594.24C594.141 356.437 593.971 356.019 593.725 355.659C593.486 355.299 593.191 354.997 592.845 354.751C592.502 354.503 592.122 354.316 591.704 354.191C591.286 354.067 590.851 354.005 590.397 354.005C589.57 354.005 588.821 354.215 588.149 354.632C587.482 355.05 586.95 355.666 586.554 356.479C586.163 357.293 585.967 358.292 585.967 359.474C585.967 360.657 586.163 361.656 586.554 362.47C586.95 363.283 587.482 363.899 588.149 364.316C588.821 364.734 589.57 364.944 590.397 364.944C590.851 364.944 591.286 364.882 591.704 364.756C592.122 364.633 592.502 364.448 592.845 364.204C593.191 363.955 593.486 363.65 593.725 363.29C593.971 362.925 594.141 362.507 594.24 362.036H595.893C595.769 362.734 595.542 363.359 595.214 363.91C594.883 364.461 594.475 364.93 593.986 365.317C593.496 365.7 592.947 365.991 592.338 366.192C591.734 366.39 591.086 366.491 590.397 366.491C589.232 366.491 588.196 366.207 587.288 365.638C586.382 365.068 585.668 364.259 585.147 363.21C584.627 362.16 584.367 360.915 584.367 359.474C584.367 358.034 584.627 356.788 585.147 355.739C585.668 354.69 586.382 353.88 587.288 353.311C588.196 352.742 589.232 352.457 590.397 352.457C591.086 352.457 591.734 352.557 592.338 352.757C592.947 352.958 593.496 353.252 593.986 353.639C594.475 354.021 594.883 354.487 595.214 355.039C595.542 355.586 595.769 356.21 595.893 356.913ZM598.567 366.304V352.645H600.221V364.836H606.572V366.304H598.567ZM618.098 352.645H619.753V361.688C619.753 362.623 619.533 363.456 619.092 364.19C618.657 364.919 618.04 365.495 617.245 365.918C616.448 366.336 615.515 366.544 614.443 366.544C613.371 366.544 612.438 366.336 611.641 365.918C610.846 365.495 610.227 364.919 609.787 364.19C609.351 363.456 609.133 362.623 609.133 361.688V352.645H610.788V361.555C610.788 362.222 610.935 362.815 611.228 363.337C611.522 363.852 611.94 364.259 612.481 364.558C613.029 364.85 613.682 364.997 614.443 364.997C615.204 364.997 615.858 364.85 616.404 364.558C616.951 364.259 617.369 363.852 617.658 363.337C617.952 362.815 618.098 362.222 618.098 361.555V352.645ZM630.527 356.06C630.447 355.384 630.123 354.859 629.553 354.485C628.985 354.111 628.287 353.925 627.459 353.925C626.855 353.925 626.326 354.022 625.872 354.218C625.422 354.413 625.072 354.683 624.818 355.025C624.569 355.368 624.444 355.756 624.444 356.193C624.444 356.558 624.53 356.871 624.704 357.134C624.882 357.39 625.109 357.606 625.385 357.78C625.66 357.949 625.95 358.089 626.252 358.2C626.554 358.308 626.833 358.394 627.085 358.461L628.473 358.834C628.829 358.927 629.225 359.056 629.66 359.22C630.101 359.386 630.521 359.61 630.922 359.895C631.325 360.175 631.659 360.535 631.922 360.975C632.185 361.415 632.315 361.956 632.315 362.596C632.315 363.334 632.122 364 631.736 364.597C631.352 365.193 630.792 365.666 630.054 366.018C629.32 366.369 628.428 366.544 627.379 366.544C626.401 366.544 625.554 366.387 624.837 366.071C624.126 365.755 623.566 365.315 623.157 364.75C622.752 364.185 622.523 363.529 622.47 362.783H624.178C624.222 363.299 624.396 363.725 624.698 364.063C625.004 364.396 625.391 364.645 625.858 364.81C626.33 364.971 626.836 365.051 627.379 365.051C628.01 365.051 628.578 364.949 629.081 364.744C629.583 364.534 629.981 364.246 630.274 363.877C630.568 363.503 630.715 363.067 630.715 362.57C630.715 362.116 630.588 361.746 630.335 361.462C630.081 361.177 629.748 360.947 629.334 360.768C628.92 360.59 628.473 360.435 627.993 360.302L626.312 359.821C625.244 359.514 624.4 359.076 623.777 358.506C623.154 357.938 622.843 357.193 622.843 356.273C622.843 355.507 623.049 354.841 623.464 354.271C623.882 353.698 624.443 353.254 625.144 352.937C625.851 352.618 626.64 352.457 627.512 352.457C628.394 352.457 629.176 352.615 629.86 352.931C630.546 353.243 631.088 353.67 631.488 354.211C631.892 354.755 632.107 355.37 632.129 356.06H630.527ZM634.289 354.111V352.645H644.534V354.111H640.239V366.304H638.584V354.111H634.289ZM647.087 366.304V352.645H655.332V354.111H648.742V358.727H654.905V360.195H648.742V364.836H655.439V366.304H647.087ZM658.314 366.304V352.645H662.931C663.998 352.645 664.873 352.826 665.559 353.191C666.243 353.551 666.75 354.047 667.079 354.678C667.409 355.31 667.573 356.029 667.573 356.833C667.573 357.638 667.409 358.351 667.079 358.974C666.75 359.596 666.246 360.086 665.565 360.441C664.884 360.793 664.015 360.969 662.957 360.969H659.222V359.474H662.904C663.633 359.474 664.22 359.367 664.665 359.154C665.114 358.94 665.438 358.638 665.639 358.247C665.844 357.851 665.945 357.379 665.945 356.833C665.945 356.285 665.844 355.808 665.639 355.399C665.434 354.989 665.108 354.675 664.659 354.452C664.209 354.226 663.615 354.111 662.877 354.111H659.969V366.304H658.314ZM664.745 360.169L668.107 366.304H666.185L662.877 360.169H664.745Z" fill="white"/>
<path d="M393.435 68.384H391.594V77.0396C391.594 79.3186 391.879 80.3923 392.777 81.4223C393.763 82.6056 395.319 83.2629 397.029 83.2629C398.694 83.2629 400.163 82.6494 401.149 81.5318C402.091 80.48 402.442 79.2309 402.442 77.0396V68.384H400.557V77.0396C400.557 78.9899 400.36 79.7349 399.571 80.5019C398.935 81.1593 397.905 81.5756 396.985 81.5756C396.064 81.5756 395.013 81.1812 394.399 80.5896C393.698 79.8883 393.435 78.9461 393.435 77.0835V68.384ZM405.017 79.0776V79.3843C405.017 80.0856 405.17 80.6991 405.521 81.2908C406.288 82.6056 407.559 83.2629 409.422 83.2629C412.161 83.2629 414.024 81.5537 414.024 79.0337C414.024 78.0476 413.673 77.1273 413.038 76.448C412.446 75.8125 411.701 75.4181 410.145 74.8702C408.655 74.3443 408.26 74.169 407.8 73.8403C407.274 73.4678 406.967 72.8542 406.967 72.153C406.967 70.7506 407.997 69.7645 409.444 69.7645C410.386 69.7645 411.197 70.1589 411.613 70.7944C411.854 71.2108 411.942 71.5614 411.964 72.3064H413.805C413.739 69.7645 412.052 68.121 409.466 68.121C406.88 68.121 405.105 69.8083 405.105 72.2845C405.105 73.4021 405.499 74.3662 406.244 75.0456C406.902 75.6372 407.471 75.9221 409.203 76.5137C411.504 77.2807 412.161 77.8723 412.161 79.1433C412.161 80.6115 411 81.6195 409.356 81.6195C407.756 81.6195 406.858 80.7429 406.77 79.0776H405.017ZM418.412 69.9617H424.176V68.384H416.571V83H424.176V81.4223H418.412V76.4261H424.176V74.8483H418.412V69.9617ZM428.947 76.8643L434.623 83H436.968L431.292 76.9301C432.629 76.8424 433.286 76.689 433.987 76.3165C435.346 75.5934 436.091 74.2786 436.091 72.6351C436.091 69.9836 434.207 68.384 431.095 68.384H427.106V83H428.947V76.8643ZM428.947 75.6153V69.9617H431.095C433.111 69.9617 434.207 70.9478 434.207 72.7666C434.207 74.6073 433.001 75.6153 430.788 75.6153H428.947Z" fill="white"/>
<path d="M399.232 209.968V211.546H404.316C404.163 212.817 403.944 213.54 403.374 214.307C402.476 215.6 400.788 216.455 399.166 216.455C396.186 216.455 393.885 213.891 393.885 210.582C393.885 207.229 396.186 204.687 399.21 204.687C400.262 204.687 401.292 205.016 402.103 205.608C402.497 205.871 402.76 206.134 403.33 206.769L404.711 205.651C403.33 203.92 401.424 203 399.21 203C395.024 203 392 206.177 392 210.604C392 214.965 395.046 218.142 399.21 218.142C401.424 218.142 403.308 217.222 404.711 215.469C405.785 214.11 406.223 212.751 406.223 210.801C406.223 210.67 406.223 210.275 406.201 209.968H399.232ZM410.747 211.743L416.423 217.879H418.768L413.092 211.809C414.429 211.721 415.086 211.568 415.788 211.195C417.146 210.472 417.891 209.158 417.891 207.514C417.891 204.863 416.007 203.263 412.895 203.263H408.906V217.879H410.747V211.743ZM410.747 210.494V204.841H412.895C414.911 204.841 416.007 205.827 416.007 207.646C416.007 209.486 414.801 210.494 412.588 210.494H410.747ZM427.204 203C423.062 203 419.972 206.287 419.972 210.648C419.972 212.488 420.498 214.132 421.506 215.403C422.865 217.112 424.99 218.142 427.16 218.142C428.848 218.142 430.513 217.528 431.828 216.389C433.428 215.03 434.304 212.992 434.304 210.713C434.304 208.522 433.778 206.901 432.595 205.52C431.192 203.92 429.242 203 427.204 203ZM427.16 204.709C428.453 204.709 429.79 205.279 430.754 206.221C431.894 207.317 432.42 208.741 432.42 210.691C432.42 212.182 431.872 213.759 431.017 214.702C430.031 215.819 428.585 216.455 427.116 216.455C424.092 216.455 421.857 213.978 421.857 210.582C421.857 207.207 424.114 204.709 427.16 204.709ZM438.67 203.263H436.829V211.919C436.829 214.198 437.114 215.271 438.013 216.301C438.999 217.485 440.555 218.142 442.264 218.142C443.93 218.142 445.398 217.528 446.384 216.411C447.327 215.359 447.677 214.11 447.677 211.919V203.263H445.793V211.919C445.793 213.869 445.596 214.614 444.807 215.381C444.171 216.038 443.141 216.455 442.221 216.455C441.3 216.455 440.248 216.06 439.635 215.469C438.933 214.767 438.67 213.825 438.67 211.962V203.263ZM452.865 212.291H455.122C456.744 212.291 457.884 211.962 458.738 211.283C459.725 210.472 460.294 209.179 460.294 207.733C460.294 204.841 458.388 203.263 454.925 203.263H451.024V217.879H452.865V212.291ZM452.865 210.713V204.841H454.531C455.407 204.841 455.999 204.928 456.569 205.126C457.73 205.52 458.432 206.528 458.432 207.777C458.432 209.026 457.708 210.056 456.591 210.45C456.087 210.648 455.561 210.713 454.772 210.713H452.865Z" fill="white"/>
<path d="M393.698 338.256L399.374 344.391H401.719L396.043 338.321C397.379 338.234 398.037 338.08 398.738 337.708C400.097 336.985 400.842 335.67 400.842 334.026C400.842 331.375 398.957 329.775 395.845 329.775H391.857V344.391H393.698V338.256ZM393.698 337.007V331.353H395.845C397.861 331.353 398.957 332.339 398.957 334.158C398.957 335.999 397.752 337.007 395.538 337.007H393.698ZM410.154 329.512C406.012 329.512 402.922 332.799 402.922 337.16C402.922 339.001 403.448 340.644 404.456 341.915C405.815 343.624 407.941 344.654 410.111 344.654C411.798 344.654 413.464 344.041 414.779 342.901C416.378 341.543 417.255 339.505 417.255 337.226C417.255 335.034 416.729 333.413 415.546 332.032C414.143 330.433 412.193 329.512 410.154 329.512ZM410.111 331.222C411.404 331.222 412.74 331.791 413.705 332.734C414.844 333.829 415.37 335.254 415.37 337.204C415.37 338.694 414.822 340.272 413.968 341.214C412.982 342.331 411.535 342.967 410.067 342.967C407.042 342.967 404.807 340.491 404.807 337.094C404.807 333.72 407.064 331.222 410.111 331.222ZM421.884 342.726V329.775H420.043V344.391H427.034V342.726H421.884ZM431.06 331.353H436.824V329.775H429.219V344.391H436.824V342.814H431.06V337.817H436.824V336.24H431.06V331.353Z" fill="white"/>
<defs>
<linearGradient id="paint0_linear_105_35" x1="28.2779" y1="334.217" x2="612.389" y2="5.35378" gradientUnits="userSpaceOnUse">
<stop stop-color="#0A0E12" stop-opacity="0"/>
<stop offset="1" stop-color="white"/>
</linearGradient>
<linearGradient id="paint1_linear_105_35" x1="-0.849758" y1="133.086" x2="611.173" y2="457.123" gradientUnits="userSpaceOnUse">
<stop stop-color="#0A0E12" stop-opacity="0"/>
<stop offset="1" stop-color="white"/>
</linearGradient>
<linearGradient id="paint2_linear_105_35" x1="-9.8604" y1="200.391" x2="657.251" y2="200.391" gradientUnits="userSpaceOnUse">
<stop stop-color="#0A0E12" stop-opacity="0"/>
<stop offset="1" stop-color="white"/>
</linearGradient>
</defs>
</svg>
