<svg width="697" height="281" viewBox="0 0 697 281" fill="none" xmlns="http://www.w3.org/2000/svg">
<rect width="697" height="281" fill="#0A0E12"/>
<path d="M504.636 140.684L527.325 129.76L550.013 140.684L555.617 165.232L539.916 184.918H514.734L499.032 165.232L504.636 140.684Z" stroke="white"/>
<path opacity="0.2" d="M512.44 146.906L527.325 139.739L542.21 146.906L545.886 163.011L535.586 175.926H519.064L508.764 163.011L512.44 146.906Z" stroke="white"/>
<path opacity="0.1" d="M520.243 153.129L527.325 149.719L534.406 153.129L536.156 160.79L531.255 166.935H523.394L518.493 160.79L520.243 153.129Z" stroke="white"/>
<path d="M22.9296 54.4436H24.6876V64.0546C24.6876 65.0469 24.4537 65.9329 23.9857 66.7124C23.5226 67.4875 22.8682 68.0994 22.0222 68.5482C21.1763 68.9924 20.1838 69.2145 19.045 69.2145C17.906 69.2145 16.9136 68.9924 16.0677 68.5482C15.2218 68.0994 14.5649 67.4875 14.097 66.7124C13.6339 65.9329 13.4023 65.0469 13.4023 64.0546V54.4436H15.1603V63.9128C15.1603 64.6216 15.3163 65.2524 15.6282 65.8053C15.9401 66.3533 16.3843 66.7858 16.9608 67.1023C17.5422 67.4142 18.2369 67.5702 19.045 67.5702C19.8531 67.5702 20.5478 67.4142 21.129 67.1023C21.7103 66.7858 22.1546 66.3533 22.4616 65.8053C22.7736 65.2524 22.9296 64.6216 22.9296 63.9128V54.4436ZM35.684 60.5107L34.1811 60.936C34.0866 60.6855 33.9472 60.4422 33.7629 60.2059C33.5834 59.965 33.3375 59.7665 33.0256 59.6106C32.7137 59.4546 32.3145 59.3767 31.8277 59.3767C31.1613 59.3767 30.6061 59.5302 30.1618 59.8374C29.7223 60.1398 29.5025 60.5249 29.5025 60.9927C29.5025 61.4085 29.6539 61.7369 29.9563 61.9779C30.2587 62.2189 30.7313 62.4197 31.3739 62.5803L32.9902 62.9773C33.9638 63.2135 34.6891 63.575 35.1665 64.0617C35.6438 64.5437 35.8825 65.165 35.8825 65.9257C35.8825 66.5494 35.7028 67.1071 35.3437 67.5985C34.9892 68.09 34.493 68.4773 33.855 68.7609C33.2171 69.0443 32.4752 69.1862 31.6293 69.1862C30.5186 69.1862 29.5995 68.9452 28.8717 68.4632C28.1439 67.9812 27.6832 67.2771 27.4894 66.351L29.0773 65.9542C29.2285 66.5401 29.5143 66.9796 29.935 67.2725C30.3604 67.5654 30.9156 67.7119 31.6008 67.7119C32.3807 67.7119 32.9997 67.5466 33.4581 67.2157C33.9212 66.8803 34.1528 66.4786 34.1528 66.0109C34.1528 65.6328 34.0205 65.3162 33.7559 65.0611C33.4912 64.8012 33.0848 64.6074 32.5365 64.4799L30.7218 64.0546C29.7248 63.8183 28.9922 63.4521 28.5244 62.956C28.0613 62.4551 27.8297 61.829 27.8297 61.0777C27.8297 60.4635 28.0022 59.9201 28.3471 59.4475C28.6969 58.975 29.1718 58.6041 29.772 58.3348C30.3768 58.0654 31.062 57.9308 31.8277 57.9308C32.9052 57.9308 33.7511 58.167 34.3654 58.6395C34.9845 59.112 35.424 59.7358 35.684 60.5107ZM42.9658 69.1862C41.9168 69.1862 41.0117 68.9547 40.2508 68.4915C39.4947 68.0238 38.911 67.3718 38.5 66.5353C38.0936 65.6942 37.8903 64.7161 37.8903 63.601C37.8903 62.4858 38.0936 61.503 38.5 60.6525C38.911 59.7972 39.4829 59.131 40.2154 58.6537C40.9526 58.1717 41.8128 57.9308 42.7957 57.9308C43.3628 57.9308 43.9228 58.0253 44.4757 58.2143C45.0286 58.4033 45.5318 58.7104 45.9856 59.1357C46.4393 59.5562 46.8008 60.1138 47.0702 60.8084C47.3396 61.503 47.4743 62.3583 47.4743 63.3742V64.0829H39.0812V62.637H45.7729C45.7729 62.0228 45.6501 61.4746 45.4043 60.9927C45.1634 60.5107 44.8184 60.1303 44.3694 59.8516C43.9251 59.5728 43.4006 59.4334 42.7957 59.4334C42.1294 59.4334 41.5528 59.5988 41.0661 59.9295C40.584 60.2555 40.213 60.6808 39.9532 61.2053C39.6932 61.7298 39.5633 62.2921 39.5633 62.8922V63.8561C39.5633 64.6783 39.705 65.3753 39.9886 65.947C40.2769 66.514 40.6761 66.9465 41.1865 67.244C41.697 67.5371 42.29 67.6836 42.9658 67.6836C43.4052 67.6836 43.8023 67.6221 44.1566 67.4993C44.516 67.3718 44.8254 67.1826 45.0854 66.9322C45.3452 66.677 45.5462 66.3605 45.6879 65.9824L47.3041 66.4362C47.1339 66.9842 46.848 67.4662 46.4464 67.882C46.0447 68.293 45.5485 68.6144 44.9578 68.8459C44.3671 69.0728 43.703 69.1862 42.9658 69.1862ZM50.0191 68.9593V58.0725H51.6353V59.7169H51.7488C51.9472 59.1782 52.3064 58.7411 52.8262 58.4056C53.3461 58.0701 53.9321 57.9024 54.5842 57.9024C54.7071 57.9024 54.8607 57.9048 55.045 57.9095C55.2293 57.9142 55.3687 57.9213 55.4632 57.9308V59.6318C55.4065 59.6176 55.2765 59.5964 55.0733 59.568C54.8748 59.5349 54.6645 59.5184 54.4425 59.5184C53.9131 59.5184 53.4406 59.6295 53.0247 59.8516C52.6136 60.0689 52.2874 60.3713 52.0464 60.7588C51.8102 61.1415 51.6921 61.5786 51.6921 62.07V68.9593H50.0191ZM85.9412 58.9798C85.7852 58.5025 85.5796 58.0749 85.3244 57.6969C85.0739 57.3141 84.7738 56.9881 84.4241 56.7187C84.0791 56.4494 83.6869 56.2439 83.2474 56.1021C82.8079 55.9604 82.326 55.8895 81.8013 55.8895C80.9413 55.8895 80.1591 56.1116 79.455 56.5557C78.7508 56.9999 78.1909 57.6543 77.775 58.519C77.3591 59.3837 77.1512 60.4446 77.1512 61.7015C77.1512 62.9583 77.3615 64.0192 77.782 64.8839C78.2027 65.7486 78.7721 66.4031 79.4904 66.8472C80.2087 67.2914 81.0168 67.5135 81.9147 67.5135C82.7465 67.5135 83.4789 67.3362 84.1122 66.9819C84.7502 66.6228 85.2464 66.1172 85.6009 65.4651C85.96 64.8083 86.1397 64.0357 86.1397 63.1474L86.6783 63.2608H82.3117V61.7015H87.8409V63.2608C87.8409 64.4562 87.5857 65.4958 87.0754 66.3795C86.5697 67.263 85.8702 67.9481 84.9771 68.4349C84.0886 68.9168 83.0679 69.1578 81.9147 69.1578C80.6294 69.1578 79.4999 68.8554 78.5264 68.2506C77.5576 67.6457 76.8014 66.7858 76.2579 65.6706C75.7193 64.5555 75.4498 63.2324 75.4498 61.7015C75.4498 60.5532 75.6035 59.5208 75.9106 58.6041C76.2225 57.6827 76.662 56.8983 77.229 56.2509C77.7961 55.6036 78.4673 55.1075 79.2424 54.7625C80.0174 54.4176 80.8704 54.2451 81.8013 54.2451C82.5668 54.2451 83.2805 54.3609 83.942 54.5924C84.6084 54.8192 85.2016 55.1429 85.7215 55.5634C86.246 55.9793 86.6831 56.4778 87.0328 57.059C87.3825 57.6354 87.6235 58.2757 87.7559 58.9798H85.9412ZM90.6249 68.9593V58.0725H92.2412V59.7169H92.3546C92.5531 59.1782 92.9122 58.7411 93.432 58.4056C93.9519 58.0701 94.5379 57.9024 95.1902 57.9024C95.313 57.9024 95.4667 57.9048 95.651 57.9095C95.8353 57.9142 95.9747 57.9213 96.0692 57.9307V59.6318C96.0124 59.6176 95.8825 59.5964 95.6792 59.568C95.4808 59.5349 95.2705 59.5184 95.0483 59.5184C94.5191 59.5184 94.0465 59.6295 93.6307 59.8515C93.2195 60.0689 92.8934 60.3713 92.6524 60.7588C92.4162 61.1415 92.2979 61.5786 92.2979 62.07V68.9593H90.6249ZM102.144 69.1862C101.161 69.1862 100.299 68.9522 99.5568 68.4845C98.8196 68.0166 98.243 67.3623 97.8271 66.5212C97.4159 65.68 97.2105 64.6972 97.2105 63.5726C97.2105 62.4386 97.4159 61.4487 97.8271 60.6028C98.243 59.757 98.8196 59.1002 99.5568 58.6324C100.299 58.1647 101.161 57.9307 102.144 57.9307C103.127 57.9307 103.987 58.1647 104.724 58.6324C105.466 59.1002 106.043 59.757 106.454 60.6028C106.87 61.4487 107.078 62.4386 107.078 63.5726C107.078 64.6972 106.87 65.68 106.454 66.5212C106.043 67.3623 105.466 68.0166 104.724 68.4845C103.987 68.9522 103.127 69.1862 102.144 69.1862ZM102.144 67.6835C102.891 67.6835 103.505 67.4922 103.987 67.1095C104.469 66.7267 104.826 66.2234 105.058 65.5997C105.289 64.976 105.405 64.3003 105.405 63.5726C105.405 62.8449 105.289 62.1669 105.058 61.5384C104.826 60.91 104.469 60.402 103.987 60.0146C103.505 59.6271 102.891 59.4334 102.144 59.4334C101.397 59.4334 100.783 59.6271 100.301 60.0146C99.819 60.402 99.4622 60.91 99.2306 61.5384C98.9991 62.1669 98.8833 62.8449 98.8833 63.5726C98.8833 64.3003 98.9991 64.976 99.2306 65.5997C99.4622 66.2234 99.819 66.7267 100.301 67.1095C100.783 67.4922 101.397 67.6835 102.144 67.6835ZM116.493 64.5082V58.0725H118.166V68.9593H116.493V67.1164H116.38C116.125 67.6693 115.728 68.1395 115.189 68.5271C114.65 68.9098 113.97 69.1011 113.148 69.1011C112.467 69.1011 111.862 68.9522 111.333 68.6546C110.804 68.3521 110.388 67.8985 110.085 67.2937C109.783 66.6842 109.632 65.9162 109.632 64.9902V58.0725H111.305V64.8768C111.305 65.6706 111.527 66.3038 111.971 66.7763C112.42 67.2488 112.992 67.485 113.686 67.485C114.102 67.485 114.525 67.3787 114.955 67.1662C115.39 66.9534 115.754 66.6274 116.047 66.188C116.345 65.7486 116.493 65.1886 116.493 64.5082ZM121.231 73.0418V58.0725H122.847V59.8019H123.045C123.168 59.6129 123.338 59.3719 123.556 59.079C123.778 58.7813 124.094 58.5167 124.505 58.2851C124.921 58.0489 125.484 57.9307 126.193 57.9307C127.109 57.9307 127.918 58.1599 128.617 58.6183C129.316 59.0766 129.862 59.7263 130.254 60.5674C130.647 61.4085 130.843 62.4008 130.843 63.5443C130.843 64.6972 130.647 65.6965 130.254 66.5425C129.862 67.3836 129.319 68.0356 128.624 68.4986C127.929 68.957 127.128 69.1862 126.221 69.1862C125.521 69.1862 124.962 69.0704 124.541 68.8389C124.12 68.6026 123.797 68.3356 123.57 68.0379C123.343 67.7355 123.168 67.485 123.045 67.2866H122.904V73.0418H121.231ZM122.875 63.5159C122.875 64.3381 122.996 65.0634 123.237 65.6919C123.478 66.3156 123.83 66.8046 124.293 67.159C124.756 67.5086 125.323 67.6835 125.994 67.6835C126.694 67.6835 127.277 67.4993 127.745 67.1307C128.218 66.7573 128.572 66.2565 128.808 65.6281C129.049 64.9949 129.17 64.2909 129.17 63.5159C129.17 62.7504 129.052 62.0606 128.815 61.4463C128.584 60.8273 128.232 60.3382 127.759 59.9791C127.291 59.6153 126.703 59.4334 125.994 59.4334C125.314 59.4334 124.742 59.6058 124.279 59.9508C123.816 60.291 123.466 60.7682 123.23 61.3825C122.993 61.992 122.875 62.7032 122.875 63.5159Z" fill="white"/>
<path d="M68.1927 53.7627L63.5141 71.1419H61.9829L66.6615 53.7627H68.1927Z" fill="white" fill-opacity="0.25"/>
<path d="M287.877 68.9591V54.4434H292.783C293.918 54.4434 294.847 54.6371 295.576 55.0246C296.303 55.4073 296.842 55.9341 297.191 56.6051C297.541 57.2761 297.717 58.0392 297.717 58.8945C297.717 59.7497 297.541 60.5081 297.191 61.1697C296.842 61.8312 296.306 62.351 295.583 62.729C294.859 63.1023 293.936 63.2889 292.811 63.2889H288.841V61.7012H292.755C293.53 61.7012 294.154 61.5878 294.626 61.361C295.104 61.1342 295.448 60.8129 295.661 60.3971C295.877 59.9765 295.987 59.4757 295.987 58.8945C295.987 58.3133 295.877 57.8053 295.661 57.3706C295.443 56.9359 295.095 56.6004 294.618 56.3641C294.14 56.1232 293.51 56.0027 292.726 56.0027H289.636V68.9591H287.877ZM294.711 62.4384L298.283 68.9591H296.241L292.726 62.4384H294.711ZM304.725 69.186C303.742 69.186 302.88 68.952 302.138 68.4843C301.4 68.0164 300.824 67.3621 300.408 66.5209C299.998 65.6798 299.791 64.697 299.791 63.5724C299.791 62.4384 299.998 61.4484 300.408 60.6026C300.824 59.7568 301.4 59.1 302.138 58.6322C302.88 58.1644 303.742 57.9305 304.725 57.9305C305.708 57.9305 306.568 58.1644 307.305 58.6322C308.047 59.1 308.624 59.7568 309.035 60.6026C309.451 61.4484 309.659 62.4384 309.659 63.5724C309.659 64.697 309.451 65.6798 309.035 66.5209C308.624 67.3621 308.047 68.0164 307.305 68.4843C306.568 68.952 305.708 69.186 304.725 69.186ZM304.725 67.6834C305.472 67.6834 306.086 67.492 306.568 67.1092C307.051 66.7265 307.407 66.2232 307.638 65.5995C307.871 64.9758 307.986 64.3001 307.986 63.5724C307.986 62.8447 307.871 62.1667 307.638 61.5382C307.407 60.9098 307.051 60.4018 306.568 60.0143C306.086 59.6269 305.472 59.4332 304.725 59.4332C303.978 59.4332 303.364 59.6269 302.882 60.0143C302.4 60.4018 302.044 60.9098 301.812 61.5382C301.58 62.1667 301.465 62.8447 301.465 63.5724C301.465 64.3001 301.58 64.9758 301.812 65.5995C302.044 66.2232 302.4 66.7265 302.882 67.1092C303.364 67.492 303.978 67.6834 304.725 67.6834ZM313.886 54.4434V68.9591H312.213V54.4434H313.886ZM321.515 69.186C320.465 69.186 319.56 68.9545 318.8 68.4914C318.043 68.0235 317.461 67.3715 317.048 66.5351C316.642 65.694 316.439 64.7159 316.439 63.6008C316.439 62.4856 316.642 61.5028 317.048 60.6522C317.461 59.797 318.031 59.1307 318.765 58.6535C319.502 58.1715 320.362 57.9305 321.345 57.9305C321.912 57.9305 322.471 58.0251 323.025 58.214C323.577 58.4031 324.082 58.7102 324.534 59.1355C324.988 59.556 325.349 60.1136 325.619 60.8082C325.888 61.5028 326.023 62.358 326.023 63.374V64.0827H317.631V62.6368H324.323C324.323 62.0226 324.2 61.4744 323.953 60.9925C323.712 60.5105 323.368 60.1301 322.919 59.8513C322.475 59.5725 321.949 59.4332 321.345 59.4332C320.678 59.4332 320.102 59.5985 319.615 59.9293C319.133 60.2553 318.762 60.6806 318.502 61.2051C318.243 61.7296 318.113 62.2919 318.113 62.892V63.8559C318.113 64.6781 318.254 65.3751 318.537 65.9468C318.827 66.5138 319.226 66.9462 319.735 67.244C320.245 67.5369 320.839 67.6834 321.515 67.6834C321.954 67.6834 322.351 67.6219 322.706 67.4991C323.065 67.3715 323.375 67.1824 323.634 66.9319C323.894 66.6768 324.095 66.3603 324.236 65.9822L325.853 66.436C325.683 66.984 325.397 67.466 324.995 67.8818C324.594 68.2928 324.098 68.6142 323.506 68.8457C322.915 69.0726 322.252 69.186 321.515 69.186Z" fill="white"/>
<path d="M486.985 68.9591H482.505V54.4434H487.183C488.592 54.4434 489.796 54.734 490.799 55.3152C491.801 55.8916 492.569 56.7209 493.103 57.803C493.637 58.8803 493.904 60.1703 493.904 61.6729C493.904 63.185 493.634 64.4867 493.095 65.5783C492.556 66.665 491.773 67.5014 490.743 68.0874C489.712 68.6686 488.459 68.9591 486.985 68.9591ZM484.264 67.3998H486.872C488.071 67.3998 489.066 67.1683 489.856 66.7052C490.645 66.2422 491.234 65.583 491.621 64.7277C492.009 63.8725 492.202 62.8542 492.202 61.6729C492.202 60.501 492.01 59.4922 491.628 58.6464C491.245 57.7959 490.673 57.1438 489.913 56.6902C489.153 56.2318 488.204 56.0027 487.07 56.0027H484.264V67.3998ZM501.191 69.186C500.142 69.186 499.237 68.9545 498.476 68.4914C497.72 68.0235 497.136 67.3715 496.725 66.5351C496.319 65.694 496.116 64.7159 496.116 63.6008C496.116 62.4856 496.319 61.5028 496.725 60.6523C497.136 59.797 497.708 59.1307 498.44 58.6535C499.178 58.1715 500.038 57.9306 501.022 57.9306C501.587 57.9306 502.148 58.0251 502.7 58.2141C503.254 58.4031 503.756 58.7102 504.211 59.1355C504.665 59.556 505.026 60.1136 505.295 60.8082C505.565 61.5028 505.699 62.358 505.699 63.374V64.0827H497.307V62.6368H503.998C503.998 62.0226 503.875 61.4744 503.63 60.9925C503.389 60.5105 503.043 60.1301 502.595 59.8513C502.149 59.5725 501.625 59.4332 501.022 59.4332C500.355 59.4332 499.777 59.5985 499.292 59.9293C498.809 60.2553 498.438 60.6806 498.179 61.2051C497.918 61.7296 497.788 62.2919 497.788 62.892V63.8559C497.788 64.6781 497.931 65.3751 498.214 65.9468C498.501 66.5138 498.901 66.9462 499.411 67.244C499.922 67.5369 500.516 67.6834 501.191 67.6834C501.63 67.6834 502.028 67.6219 502.382 67.4991C502.742 67.3715 503.051 67.1824 503.311 66.9319C503.57 66.6768 503.771 66.3603 503.913 65.9822L505.53 66.436C505.358 66.984 505.074 67.466 504.671 67.8818C504.27 68.2928 503.773 68.6142 503.182 68.8457C502.592 69.0726 501.928 69.186 501.191 69.186ZM515.956 60.5105L514.454 60.9358C514.359 60.6853 514.22 60.442 514.035 60.2057C513.855 59.9647 513.611 59.7663 513.298 59.6104C512.987 59.4544 512.588 59.3765 512.1 59.3765C511.433 59.3765 510.879 59.53 510.435 59.8372C509.994 60.1396 509.775 60.5247 509.775 60.9925C509.775 61.4083 509.926 61.7367 510.229 61.9777C510.532 62.2187 511.004 62.4195 511.646 62.5801L513.263 62.977C514.236 63.2133 514.962 63.5748 515.439 64.0615C515.916 64.5434 516.156 65.1648 516.156 65.9255C516.156 66.5492 515.976 67.1069 515.617 67.5982C515.263 68.0897 514.765 68.4771 514.128 68.7607C513.489 69.0441 512.748 69.186 511.902 69.186C510.791 69.186 509.873 68.945 509.144 68.463C508.417 67.981 507.957 67.2769 507.762 66.3508L509.351 65.9539C509.502 66.5399 509.786 66.9793 510.207 67.2722C510.633 67.5652 511.189 67.7117 511.874 67.7117C512.653 67.7117 513.273 67.5464 513.731 67.2155C514.195 66.8801 514.426 66.4784 514.426 66.0107C514.426 65.6326 514.293 65.316 514.028 65.0609C513.764 64.801 513.358 64.6072 512.809 64.4797L510.994 64.0544C509.998 63.8181 509.264 63.4519 508.797 62.9558C508.334 62.4549 508.103 61.8288 508.103 61.0775C508.103 60.4633 508.274 59.9199 508.62 59.4473C508.97 58.9748 509.444 58.6039 510.044 58.3346C510.65 58.0652 511.335 57.9306 512.1 57.9306C513.178 57.9306 514.023 58.1668 514.639 58.6393C515.258 59.1119 515.697 59.7356 515.956 60.5105ZM523.409 58.0723V59.4899H517.766V58.0723H523.409ZM519.411 55.464H521.083V65.8405C521.083 66.313 521.151 66.6675 521.29 66.9037C521.431 67.1352 521.611 67.2912 521.828 67.3715C522.05 67.4471 522.284 67.4848 522.53 67.4848C522.713 67.4848 522.865 67.4755 522.983 67.4565C523.101 67.4329 523.196 67.414 523.267 67.3998L523.607 68.9024C523.494 68.945 523.336 68.9874 523.133 69.03C522.93 69.0772 522.672 69.1008 522.359 69.1008C521.887 69.1008 521.424 68.9992 520.97 68.7961C520.521 68.5929 520.148 68.2835 519.851 67.8677C519.558 67.4519 519.411 66.9273 519.411 66.2941V55.464ZM525.926 68.9591V58.0723H527.597V68.9591H525.926ZM526.776 56.2578C526.45 56.2578 526.168 56.1468 525.932 55.9247C525.701 55.7026 525.585 55.4357 525.585 55.1238C525.585 54.8119 525.701 54.545 525.932 54.3229C526.168 54.1008 526.45 53.9897 526.776 53.9897C527.102 53.9897 527.381 54.1008 527.612 54.3229C527.849 54.545 527.967 54.8119 527.967 55.1238C527.967 55.4357 527.849 55.7026 527.612 55.9247C527.381 56.1468 527.102 56.2578 526.776 56.2578ZM532.335 62.41V68.9591H530.662V58.0723H532.278V59.7734H532.42C532.676 59.2205 533.064 58.7764 533.583 58.4409C534.103 58.1007 534.774 57.9306 535.595 57.9306C536.332 57.9306 536.978 58.0818 537.532 58.3842C538.084 58.6819 538.515 59.1355 538.821 59.745C539.129 60.3498 539.282 61.1153 539.282 62.0415V68.9591H537.61V62.1549C537.61 61.2996 537.387 60.6334 536.943 60.1561C536.499 59.6741 535.888 59.4332 535.115 59.4332C534.581 59.4332 534.103 59.5489 533.682 59.7805C533.267 60.012 532.937 60.3498 532.696 60.794C532.456 61.2382 532.335 61.7769 532.335 62.41ZM545.543 69.2143C544.853 69.2143 544.227 69.0844 543.665 68.8244C543.103 68.5598 542.655 68.1794 542.324 67.6834C541.995 67.1824 541.829 66.5777 541.829 65.8688C541.829 65.2451 541.952 64.7395 542.198 64.3521C542.442 63.9599 542.772 63.6528 543.183 63.4307C543.593 63.2086 544.048 63.0432 544.543 62.9345C545.044 62.8211 545.548 62.7313 546.054 62.6652C546.716 62.5801 547.252 62.5163 547.662 62.4738C548.078 62.4266 548.381 62.3486 548.571 62.2399C548.764 62.1312 548.86 61.9422 548.86 61.6729V61.6162C548.86 60.9169 548.669 60.3735 548.286 59.986C547.909 59.5985 547.335 59.4048 546.565 59.4048C545.766 59.4048 545.139 59.5796 544.685 59.9293C544.232 60.279 543.913 60.6523 543.728 61.0492L542.141 60.4822C542.424 59.8206 542.802 59.3056 543.274 58.937C543.752 58.5637 544.272 58.3038 544.834 58.1574C545.402 58.0061 545.959 57.9306 546.508 57.9306C546.857 57.9306 547.258 57.9731 547.712 58.0581C548.171 58.1385 548.612 58.3062 549.038 58.5614C549.467 58.8165 549.825 59.2016 550.108 59.7167C550.392 60.2317 550.534 60.9216 550.534 61.7863V68.9591H548.86V67.4848H548.775C548.662 67.7212 548.472 67.974 548.208 68.2433C547.943 68.5125 547.593 68.7417 547.152 68.9309C546.713 69.1198 546.177 69.2143 545.543 69.2143ZM545.798 67.7117C546.46 67.7117 547.017 67.5818 547.471 67.3218C547.93 67.062 548.275 66.7265 548.506 66.3154C548.742 65.9044 548.86 65.4719 548.86 65.0183V63.4874C548.79 63.5724 548.634 63.6504 548.393 63.7213C548.156 63.7874 547.882 63.8465 547.571 63.8985C547.263 63.9457 546.964 63.9882 546.671 64.026C546.382 64.0591 546.149 64.0875 545.969 64.1111C545.533 64.1678 545.127 64.2599 544.75 64.3875C544.375 64.5104 544.074 64.697 543.841 64.9475C543.615 65.1932 543.502 65.5286 543.502 65.9539C543.502 66.5351 543.717 66.9745 544.147 67.2722C544.582 67.5652 545.132 67.7117 545.798 67.7117ZM558.322 58.0723V59.4899H552.679V58.0723H558.322ZM554.325 55.464H555.998V65.8405C555.998 66.313 556.066 66.6675 556.203 66.9037C556.344 67.1352 556.524 67.2912 556.742 67.3715C556.963 67.4471 557.197 67.4848 557.444 67.4848C557.628 67.4848 557.78 67.4755 557.898 67.4565C558.016 67.4329 558.109 67.414 558.181 67.3998L558.522 68.9024C558.407 68.945 558.249 68.9874 558.046 69.03C557.843 69.0772 557.585 69.1008 557.274 69.1008C556.8 69.1008 556.337 68.9992 555.883 68.7961C555.434 68.5929 555.062 68.2835 554.764 67.8677C554.471 67.4519 554.325 66.9273 554.325 66.2941V55.464ZM560.839 68.9591V58.0723H562.512V68.9591H560.839ZM561.689 56.2578C561.363 56.2578 561.082 56.1468 560.846 55.9247C560.614 55.7026 560.498 55.4357 560.498 55.1238C560.498 54.8119 560.614 54.545 560.846 54.3229C561.082 54.1008 561.363 53.9897 561.689 53.9897C562.015 53.9897 562.294 54.1008 562.526 54.3229C562.762 54.545 562.88 54.8119 562.88 55.1238C562.88 55.4357 562.762 55.7026 562.526 55.9247C562.294 56.1468 562.015 56.2578 561.689 56.2578ZM570 69.186C569.017 69.186 568.153 68.952 567.411 68.4843C566.674 68.0164 566.099 67.3621 565.683 66.521C565.27 65.6798 565.066 64.697 565.066 63.5724C565.066 62.4384 565.27 61.4484 565.683 60.6026C566.099 59.7568 566.674 59.1 567.411 58.6322C568.153 58.1644 569.017 57.9306 570 57.9306C570.983 57.9306 571.843 58.1644 572.58 58.6322C573.322 59.1 573.899 59.7568 574.31 60.6026C574.726 61.4484 574.934 62.4384 574.934 63.5724C574.934 64.697 574.726 65.6798 574.31 66.521C573.899 67.3621 573.322 68.0164 572.58 68.4843C571.843 68.952 570.983 69.186 570 69.186ZM570 67.6834C570.747 67.6834 571.36 67.492 571.843 67.1093C572.324 66.7265 572.681 66.2232 572.912 65.5995C573.144 64.9758 573.26 64.3001 573.26 63.5724C573.26 62.8447 573.144 62.1667 572.912 61.5382C572.681 60.9098 572.324 60.4018 571.843 60.0144C571.36 59.6269 570.747 59.4332 570 59.4332C569.253 59.4332 568.639 59.6269 568.157 60.0144C567.674 60.4018 567.318 60.9098 567.085 61.5382C566.854 62.1667 566.739 62.8447 566.739 63.5724C566.739 64.3001 566.854 64.9758 567.085 65.5995C567.318 66.2232 567.674 66.7265 568.157 67.1093C568.639 67.492 569.253 67.6834 570 67.6834ZM579.16 62.41V68.9591H577.487V58.0723H579.102V59.7734H579.245C579.5 59.2205 579.887 58.7764 580.408 58.4409C580.927 58.1007 581.597 57.9306 582.421 57.9306C583.158 57.9306 583.803 58.0818 584.356 58.3842C584.908 58.6819 585.339 59.1355 585.646 59.745C585.952 60.3498 586.107 61.1153 586.107 62.0415V68.9591H584.434V62.1549C584.434 61.2996 584.211 60.6334 583.767 60.1561C583.322 59.6741 582.714 59.4332 581.938 59.4332C581.404 59.4332 580.927 59.5489 580.506 59.7805C580.09 60.012 579.763 60.3498 579.521 60.794C579.28 61.2382 579.16 61.7769 579.16 62.41ZM595.005 68.9591V54.4434H599.911C601.044 54.4434 601.975 54.6371 602.704 55.0246C603.431 55.4073 603.97 55.9342 604.319 56.6051C604.668 57.2761 604.843 58.0392 604.843 58.8945C604.843 59.7498 604.668 60.5081 604.319 61.1697C603.97 61.8312 603.432 62.351 602.71 62.729C601.987 63.1023 601.064 63.2889 599.939 63.2889H595.968V61.7012H599.883C600.656 61.7012 601.28 61.5878 601.754 61.361C602.23 61.1342 602.576 60.8129 602.789 60.3971C603.005 59.9766 603.115 59.4757 603.115 58.8945C603.115 58.3133 603.005 57.8053 602.789 57.3706C602.571 56.9359 602.223 56.6004 601.746 56.3642C601.268 56.1232 600.638 56.0027 599.853 56.0027H596.763V68.9591H595.005ZM601.839 62.4384L605.41 68.9591H603.369L599.853 62.4384H601.839ZM611.994 69.186C610.945 69.186 610.04 68.9545 609.28 68.4914C608.523 68.0235 607.94 67.3715 607.528 66.5351C607.122 65.694 606.919 64.7159 606.919 63.6008C606.919 62.4856 607.122 61.5028 607.528 60.6523C607.94 59.797 608.511 59.1307 609.245 58.6535C609.982 58.1715 610.842 57.9306 611.825 57.9306C612.392 57.9306 612.951 58.0251 613.505 58.2141C614.057 58.4031 614.561 58.7102 615.014 59.1355C615.468 59.556 615.83 60.1136 616.098 60.8082C616.368 61.5028 616.502 62.358 616.502 63.374V64.0827H608.11V62.6368H614.802C614.802 62.0226 614.679 61.4744 614.433 60.9925C614.192 60.5105 613.847 60.1301 613.398 59.8513C612.954 59.5725 612.43 59.4332 611.825 59.4332C611.158 59.4332 610.582 59.5985 610.095 59.9293C609.612 60.2553 609.241 60.6806 608.982 61.2051C608.722 61.7296 608.593 62.2919 608.593 62.892V63.8559C608.593 64.6781 608.734 65.3751 609.017 65.9468C609.306 66.5138 609.705 66.9462 610.216 67.244C610.725 67.5369 611.319 67.6834 611.994 67.6834C612.433 67.6834 612.831 67.6219 613.185 67.4991C613.545 67.3715 613.854 67.1824 614.114 66.9319C614.375 66.6768 614.574 66.3603 614.717 65.9822L616.333 66.436C616.163 66.984 615.877 67.466 615.474 67.8818C615.073 68.2928 614.578 68.6142 613.987 68.8457C613.395 69.0726 612.731 69.186 611.994 69.186ZM626.761 60.5105L625.257 60.9358C625.162 60.6853 625.024 60.442 624.84 60.2057C624.66 59.9647 624.414 59.7663 624.103 59.6104C623.79 59.4544 623.391 59.3765 622.903 59.3765C622.238 59.3765 621.682 59.53 621.238 59.8372C620.799 60.1396 620.58 60.5247 620.58 60.9925C620.58 61.4083 620.731 61.7367 621.032 61.9777C621.335 62.2187 621.807 62.4195 622.451 62.5801L624.066 62.977C625.039 63.2133 625.766 63.5748 626.242 64.0615C626.719 64.5434 626.959 65.1648 626.959 65.9255C626.959 66.5492 626.779 67.1069 626.42 67.5982C626.066 68.0897 625.57 68.4771 624.931 68.7607C624.294 69.0441 623.552 69.186 622.706 69.186C621.594 69.186 620.676 68.945 619.947 68.463C619.22 67.981 618.76 67.2769 618.565 66.3508L620.154 65.9539C620.305 66.5399 620.591 66.9793 621.012 67.2722C621.436 67.5652 621.992 67.7117 622.677 67.7117C623.457 67.7117 624.076 67.5464 624.535 67.2155C624.998 66.8801 625.229 66.4784 625.229 66.0107C625.229 65.6326 625.098 65.316 624.831 65.0609C624.567 64.801 624.161 64.6072 623.614 64.4797L621.799 64.0544C620.801 63.8181 620.069 63.4519 619.601 62.9558C619.137 62.4549 618.906 61.8288 618.906 61.0775C618.906 60.4633 619.079 59.9199 619.423 59.4473C619.773 58.9748 620.249 58.6039 620.849 58.3346C621.453 58.0652 622.138 57.9306 622.903 57.9306C623.981 57.9306 624.828 58.1668 625.442 58.6393C626.061 59.1119 626.5 59.7356 626.761 60.5105ZM633.901 69.186C632.918 69.186 632.054 68.952 631.312 68.4843C630.575 68.0164 630 67.3621 629.584 66.521C629.171 65.6798 628.967 64.697 628.967 63.5724C628.967 62.4384 629.171 61.4484 629.584 60.6026C630 59.7568 630.575 59.1 631.312 58.6322C632.054 58.1644 632.918 57.9306 633.901 57.9306C634.884 57.9306 635.744 58.1644 636.481 58.6322C637.223 59.1 637.8 59.7568 638.211 60.6026C638.627 61.4484 638.835 62.4384 638.835 63.5724C638.835 64.697 638.627 65.6798 638.211 66.521C637.8 67.3621 637.223 68.0164 636.481 68.4843C635.744 68.952 634.884 69.186 633.901 69.186ZM633.901 67.6834C634.648 67.6834 635.261 67.492 635.744 67.1093C636.226 66.7265 636.582 66.2232 636.814 65.5995C637.045 64.9758 637.161 64.3001 637.161 63.5724C637.161 62.8447 637.045 62.1667 636.814 61.5382C636.582 60.9098 636.226 60.4018 635.744 60.0144C635.261 59.6269 634.648 59.4332 633.901 59.4332C633.154 59.4332 632.54 59.6269 632.058 60.0144C631.575 60.4018 631.219 60.9098 630.986 61.5382C630.755 62.1667 630.64 62.8447 630.64 63.5724C630.64 64.3001 630.755 64.9758 630.986 65.5995C631.219 66.2232 631.575 66.7265 632.058 67.1093C632.54 67.492 633.154 67.6834 633.901 67.6834ZM648.25 64.508V58.0723H649.923V68.9591H648.25V67.1162H648.137C647.881 67.6691 647.485 68.1393 646.946 68.5269C646.407 68.9096 645.726 69.1008 644.905 69.1008C644.223 69.1008 643.619 68.952 643.09 68.6544C642.559 68.3519 642.143 67.8983 641.842 67.2935C641.54 66.684 641.388 65.9162 641.388 64.99V58.0723H643.062V64.8766C643.062 65.6704 643.283 66.3036 643.727 66.7761C644.176 67.2486 644.748 67.4848 645.442 67.4848C645.858 67.4848 646.282 67.3785 646.711 67.166C647.147 66.9532 647.51 66.6272 647.802 66.1878C648.1 65.7484 648.25 65.1884 648.25 64.508ZM652.988 68.9591V58.0723H654.603V59.7167H654.716C654.916 59.178 655.275 58.7409 655.794 58.4054C656.315 58.0699 656.9 57.9022 657.552 57.9022C657.675 57.9022 657.828 57.9046 658.013 57.9093C658.198 57.914 658.336 57.9211 658.43 57.9306V59.6316C658.374 59.6174 658.244 59.5962 658.041 59.5678C657.843 59.5348 657.632 59.5182 657.411 59.5182C656.88 59.5182 656.408 59.6292 655.992 59.8513C655.581 60.0687 655.255 60.3711 655.014 60.7586C654.778 61.1413 654.659 61.5784 654.659 62.0698V68.9591H652.988ZM664.506 69.186C663.486 69.186 662.606 68.945 661.869 68.463C661.132 67.981 660.565 67.3172 660.167 66.4714C659.771 65.6255 659.572 64.6592 659.572 63.5724C659.572 62.4667 659.776 61.491 660.182 60.6452C660.593 59.7946 661.165 59.1307 661.897 58.6535C662.634 58.1715 663.494 57.9306 664.477 57.9306C665.242 57.9306 665.933 58.0723 666.548 58.3558C667.162 58.6393 667.665 59.0362 668.057 59.5466C668.45 60.0569 668.693 60.6523 668.787 61.3327H667.114C666.987 60.8365 666.703 60.3971 666.264 60.0144C665.83 59.6269 665.242 59.4332 664.506 59.4332C663.853 59.4332 663.281 59.6033 662.79 59.9435C662.303 60.279 661.924 60.7538 661.649 61.3681C661.38 61.9777 661.245 62.6935 661.245 63.5157C661.245 64.3568 661.378 65.0892 661.643 65.7129C661.912 66.3367 662.29 66.821 662.776 67.166C663.268 67.5109 663.845 67.6834 664.506 67.6834C664.941 67.6834 665.336 67.6077 665.69 67.4565C666.044 67.3053 666.344 67.088 666.59 66.8044C666.836 66.521 667.011 66.1806 667.114 65.7838H668.787C668.693 66.4265 668.46 67.0053 668.085 67.5202C667.718 68.0307 667.229 68.437 666.618 68.7394C666.014 69.0371 665.309 69.186 664.506 69.186ZM675.799 69.186C674.749 69.186 673.844 68.9545 673.084 68.4914C672.327 68.0235 671.743 67.3715 671.332 66.5351C670.927 65.694 670.722 64.7159 670.722 63.6008C670.722 62.4856 670.927 61.5028 671.332 60.6523C671.743 59.797 672.316 59.1307 673.048 58.6535C673.784 58.1715 674.644 57.9306 675.628 57.9306C676.195 57.9306 676.755 58.0251 677.308 58.2141C677.862 58.4031 678.364 58.7102 678.818 59.1355C679.272 59.556 679.633 60.1136 679.903 60.8082C680.172 61.5028 680.307 62.358 680.307 63.374V64.0827H671.913V62.6368H678.605C678.605 62.0226 678.482 61.4744 678.238 60.9925C677.996 60.5105 677.65 60.1301 677.201 59.8513C676.757 59.5725 676.233 59.4332 675.628 59.4332C674.962 59.4332 674.385 59.5985 673.899 59.9293C673.417 60.2553 673.046 60.6806 672.786 61.2051C672.525 61.7296 672.395 62.2919 672.395 62.892V63.8559C672.395 64.6781 672.537 65.3751 672.821 65.9468C673.109 66.5138 673.508 66.9462 674.019 67.244C674.53 67.5369 675.122 67.6834 675.799 67.6834C676.238 67.6834 676.634 67.6219 676.99 67.4991C677.348 67.3715 677.659 67.1824 677.918 66.9319C678.178 66.6768 678.379 66.3603 678.52 65.9822L680.137 66.436C679.966 66.984 679.68 67.466 679.279 67.8818C678.876 68.2928 678.381 68.6142 677.79 68.8457C677.2 69.0726 676.536 69.186 675.799 69.186ZM690.564 60.5105L689.062 60.9358C688.967 60.6853 688.827 60.442 688.643 60.2057C688.463 59.9647 688.218 59.7663 687.906 59.6104C687.595 59.4544 687.194 59.3765 686.708 59.3765C686.041 59.3765 685.485 59.53 685.041 59.8372C684.602 60.1396 684.383 60.5247 684.383 60.9925C684.383 61.4083 684.534 61.7367 684.837 61.9777C685.139 62.2187 685.612 62.4195 686.254 62.5801L687.871 62.977C688.844 63.2133 689.569 63.5748 690.047 64.0615C690.524 64.5434 690.762 65.1648 690.762 65.9255C690.762 66.5492 690.582 67.1069 690.223 67.5982C689.869 68.0897 689.373 68.4771 688.736 68.7607C688.097 69.0441 687.355 69.186 686.51 69.186C685.399 69.186 684.479 68.945 683.752 68.463C683.023 67.981 682.563 67.2769 682.37 66.3508L683.957 65.9539C684.108 66.5399 684.394 66.9793 684.815 67.2722C685.241 67.5652 685.796 67.7117 686.48 67.7117C687.26 67.7117 687.879 67.5464 688.338 67.2155C688.801 66.8801 689.034 66.4784 689.034 66.0107C689.034 65.6326 688.901 65.316 688.636 65.0609C688.372 64.801 687.966 64.6072 687.417 64.4797L685.602 64.0544C684.605 63.8181 683.872 63.4519 683.404 62.9558C682.942 62.4549 682.709 61.8288 682.709 61.0775C682.709 60.4633 682.882 59.9199 683.228 59.4473C683.577 58.9748 684.051 58.6039 684.652 58.3346C685.258 58.0652 685.943 57.9306 686.708 57.9306C687.786 57.9306 688.631 58.1668 689.245 58.6393C689.865 59.1119 690.305 59.7356 690.564 60.5105Z" fill="white"/>
<path opacity="0.3" d="M139.732 108.046H4.99025C2.69346 108.046 0.831543 109.908 0.831543 112.204V205.347C0.831543 207.643 2.69346 209.505 4.99025 209.505H139.732C142.029 209.505 143.891 207.643 143.891 205.347V112.204C143.891 109.908 142.029 108.046 139.732 108.046Z" stroke="white"/>
<path d="M29.9428 128.005H116.141C119.356 128.005 121.963 130.611 121.963 133.826V176.119C121.963 179.334 119.356 181.941 116.141 181.941H29.9428C26.7273 181.941 24.1206 179.334 24.1206 176.119V133.826C24.1206 130.611 26.7273 128.005 29.9428 128.005Z" stroke="white"/>
<path opacity="0.2" d="M121.963 138.512V176.119C121.963 179.334 119.356 181.94 116.141 181.94H48.8357C42.8357 181.94 40.7578 173.964 45.9955 171.037L113.3 133.431C117.181 131.262 121.963 134.067 121.963 138.512Z" stroke="white"/>
<path opacity="0.2" d="M92.0649 134.589H64.2618C62.2967 134.589 60.7036 136.182 60.7036 138.147C60.7036 140.112 62.2967 141.704 64.2618 141.704H92.0649C94.0301 141.704 95.6231 140.112 95.6231 138.147C95.6231 136.182 94.0301 134.589 92.0649 134.589Z" stroke="white"/>
<path opacity="0.2" d="M92.0649 144.831H64.2618C62.2967 144.831 60.7036 146.424 60.7036 148.389C60.7036 150.354 62.2967 151.947 64.2618 151.947H92.0649C94.0301 151.947 95.6231 150.354 95.6231 148.389C95.6231 146.424 94.0301 144.831 92.0649 144.831Z" stroke="white"/>
<path opacity="0.2" d="M112.551 157.167H31.3369C30.5287 157.167 29.8735 157.823 29.8735 158.631C29.8735 159.439 30.5287 160.094 31.3369 160.094H112.551C113.359 160.094 114.015 159.439 114.015 158.631C114.015 157.823 113.359 157.167 112.551 157.167Z" fill="#C4C4C4"/>
<path d="M89.8698 165.215H31.3369C30.5287 165.215 29.8735 165.87 29.8735 166.678C29.8735 167.486 30.5287 168.141 31.3369 168.141H89.8698C90.678 168.141 91.3331 167.486 91.3331 166.678C91.3331 165.87 90.678 165.215 89.8698 165.215Z" fill="#C4C4C4"/>
<path opacity="0.2" d="M67.92 173.262H31.3369C30.5287 173.262 29.8735 173.917 29.8735 174.725V174.725C29.8735 175.533 30.5287 176.188 31.3369 176.188H67.92C68.7281 176.188 69.3833 175.533 69.3833 174.725C69.3833 173.917 68.7281 173.262 67.92 173.262Z" fill="#C4C4C4"/>
<path d="M43.0434 144C44.6597 144 45.97 142.69 45.97 141.074C45.97 139.457 44.6597 138.147 43.0434 138.147C41.427 138.147 40.1167 139.457 40.1167 141.074C40.1167 142.69 41.427 144 43.0434 144Z" stroke="white" stroke-linecap="round" stroke-linejoin="round"/>
<path d="M54.1 134.489H31.9875C31.2243 134.489 30.6055 134.926 30.6055 135.464V151.071C30.6055 151.61 31.2243 152.046 31.9875 152.046H54.1C54.8632 152.046 55.4821 151.61 55.4821 151.071V135.464C55.4821 134.926 54.8632 134.489 54.1 134.489Z" stroke="white" stroke-linecap="round" stroke-linejoin="round"/>
<path d="M37.9224 152.047C37.9224 149.218 40.2153 146.926 43.0439 146.926C45.8725 146.926 48.1656 149.218 48.1656 152.047" stroke="white" stroke-linecap="round" stroke-linejoin="round"/>
<path opacity="0.5" d="M242.869 153.786L234.551 148.984V158.587L242.869 153.786ZM128.088 154.618H129.776V152.954H128.088V154.618ZM133.152 154.618H136.528V152.954H133.152V154.618ZM139.904 154.618H143.28V152.954H139.904V154.618ZM146.656 154.618H150.032V152.954H146.656V154.618ZM153.408 154.618H156.783V152.954H153.408V154.618ZM160.159 154.618H163.535V152.954H160.159V154.618ZM166.911 154.618H170.288V152.954H166.911V154.618ZM173.663 154.618H177.038V152.954H173.663V154.618ZM180.415 154.618H183.79V152.954H180.415V154.618ZM187.167 154.618H190.542V152.954H187.167V154.618ZM193.919 154.618H197.294V152.954H193.919V154.618ZM200.67 154.618H204.046V152.954H200.67V154.618ZM207.422 154.618H210.798V152.954H207.422V154.618ZM214.174 154.618H217.549V152.954H214.174V154.618ZM220.926 154.618H224.301V152.954H220.926V154.618ZM227.678 154.618H231.053V152.954H227.678V154.618ZM234.428 154.618H237.805V152.954H234.428V154.618Z" fill="url(#paint0_linear_150_982)"/>
<path opacity="0.5" d="M460.785 153.786L452.468 148.984V158.587L460.785 153.786ZM362.64 154.618H364.275V152.954H362.64V154.618ZM367.547 154.618H370.819V152.954H367.547V154.618ZM374.089 154.618H377.361V152.954H374.089V154.618ZM380.634 154.618H383.904V152.954H380.634V154.618ZM387.176 154.618H390.448V152.954H387.176V154.618ZM393.719 154.618H396.991V152.954H393.719V154.618ZM400.263 154.618H403.533V152.954H400.263V154.618ZM406.805 154.618H410.077V152.954H406.805V154.618ZM413.348 154.618H416.62V152.954H413.348V154.618ZM419.892 154.618H423.162V152.954H419.892V154.618ZM426.434 154.618H429.706V152.954H426.434V154.618ZM432.977 154.618H436.249V152.954H432.977V154.618ZM439.521 154.618H442.791V152.954H439.521V154.618ZM446.063 154.618H449.335V152.954H446.063V154.618ZM452.606 154.618H455.878V152.954H452.606V154.618Z" fill="url(#paint1_linear_150_982)"/>
<path d="M306.359 210.891C334.992 210.891 358.204 187.682 358.204 159.053C358.204 130.423 334.992 107.214 306.359 107.214C277.726 107.214 254.514 130.423 254.514 159.053C254.514 187.682 277.726 210.891 306.359 210.891Z" fill="#0A0E12"/>
<path d="M306.359 210.06C334.533 210.06 357.372 187.223 357.372 159.053C357.372 130.882 334.533 108.046 306.359 108.046C278.185 108.046 255.345 130.882 255.345 159.053C255.345 187.223 278.185 210.06 306.359 210.06Z" stroke="white" stroke-opacity="0.31"/>
<path d="M298.18 175.408V171.458H302.13H302.475L302.719 171.214L307.77 166.163C309.022 166.498 310.34 166.676 311.696 166.676C320.079 166.676 326.875 159.881 326.875 151.499C326.875 143.116 320.079 136.321 311.696 136.321C303.312 136.321 296.516 143.116 296.516 151.499C296.516 152.855 296.694 154.171 297.029 155.423L287.194 165.256L286.951 165.5V165.844V175.408V176.24H287.783H297.348H298.18V175.408ZM310.137 144.326C310.137 143.465 310.834 142.766 311.696 142.766C316.518 142.766 320.429 146.676 320.429 151.499C320.429 152.36 319.73 153.058 318.87 153.058C318.008 153.058 317.31 152.36 317.31 151.499C317.31 148.398 314.796 145.885 311.696 145.885C310.834 145.885 310.137 145.187 310.137 144.326Z" stroke="white"/>
<path opacity="0.3" d="M647.096 108.046H527.325C500.223 108.046 478.252 130.014 478.252 157.112V160.439C478.252 187.537 500.223 209.505 527.325 209.505H647.096C674.198 209.505 696.168 187.537 696.168 160.439V157.112C696.168 130.014 674.198 108.046 647.096 108.046Z" stroke="white"/>
<path opacity="0.7" d="M589.714 152.122H587.957C587.852 151.617 587.671 151.173 587.41 150.79C587.155 150.407 586.842 150.086 586.475 149.826C586.11 149.561 585.706 149.363 585.262 149.231C584.818 149.098 584.355 149.032 583.873 149.032C582.995 149.032 582.198 149.254 581.484 149.698C580.776 150.143 580.21 150.797 579.789 151.662C579.373 152.526 579.165 153.587 579.165 154.844C579.165 156.101 579.373 157.162 579.789 158.026C580.21 158.891 580.776 159.546 581.484 159.99C582.198 160.434 582.995 160.656 583.873 160.656C584.355 160.656 584.818 160.59 585.262 160.458C585.706 160.325 586.11 160.129 586.475 159.869C586.842 159.605 587.155 159.281 587.41 158.898C587.671 158.511 587.852 158.067 587.957 157.566H589.714C589.582 158.308 589.341 158.972 588.992 159.557C588.641 160.143 588.206 160.642 587.687 161.053C587.167 161.459 586.583 161.769 585.936 161.982C585.294 162.194 584.605 162.3 583.873 162.3C582.635 162.3 581.534 161.998 580.569 161.393C579.606 160.788 578.848 159.928 578.294 158.813C577.741 157.698 577.465 156.375 577.465 154.844C577.465 153.313 577.741 151.99 578.294 150.875C578.848 149.76 579.606 148.9 580.569 148.295C581.534 147.69 582.635 147.388 583.873 147.388C584.605 147.388 585.294 147.494 585.936 147.707C586.583 147.919 587.167 148.231 587.687 148.642C588.206 149.049 588.641 149.545 588.992 150.131C589.341 150.712 589.582 151.376 589.714 152.122ZM592.555 162.102V147.586H594.313V160.543H601.062V162.102H592.555ZM613.31 147.586H615.068V157.197C615.068 158.189 614.836 159.075 614.366 159.855C613.904 160.63 613.249 161.242 612.403 161.691C611.557 162.135 610.565 162.357 609.426 162.357C608.286 162.357 607.295 162.135 606.448 161.691C605.603 161.242 604.946 160.63 604.479 159.855C604.015 159.075 603.783 158.189 603.783 157.197V147.586H605.542V157.055C605.542 157.764 605.698 158.395 606.009 158.948C606.322 159.496 606.766 159.928 607.342 160.245C607.924 160.557 608.617 160.713 609.426 160.713C610.234 160.713 610.93 160.557 611.51 160.245C612.091 159.928 612.535 159.496 612.843 158.948C613.155 158.395 613.31 157.764 613.31 157.055V147.586ZM626.518 151.215C626.433 150.497 626.089 149.939 625.483 149.542C624.88 149.145 624.138 148.947 623.258 148.947C622.616 148.947 622.053 149.051 621.571 149.259C621.094 149.467 620.721 149.753 620.451 150.116C620.187 150.48 620.054 150.894 620.054 151.357C620.054 151.744 620.145 152.077 620.33 152.356C620.52 152.63 620.761 152.86 621.054 153.044C621.346 153.223 621.654 153.372 621.975 153.49C622.296 153.604 622.592 153.696 622.86 153.767L624.336 154.164C624.713 154.263 625.134 154.4 625.597 154.575C626.066 154.749 626.511 154.988 626.937 155.291C627.367 155.588 627.721 155.971 628 156.439C628.28 156.907 628.418 157.481 628.418 158.161C628.418 158.946 628.213 159.654 627.802 160.287C627.395 160.921 626.799 161.424 626.016 161.797C625.236 162.17 624.287 162.357 623.173 162.357C622.133 162.357 621.233 162.189 620.471 161.854C619.716 161.518 619.121 161.051 618.686 160.45C618.256 159.85 618.013 159.153 617.956 158.36H619.771C619.818 158.908 620.002 159.361 620.323 159.72C620.649 160.075 621.06 160.339 621.556 160.514C622.058 160.684 622.596 160.769 623.173 160.769C623.843 160.769 624.447 160.661 624.981 160.443C625.515 160.221 625.938 159.914 626.249 159.522C626.561 159.125 626.718 158.662 626.718 158.133C626.718 157.651 626.583 157.259 626.314 156.956C626.044 156.654 625.69 156.408 625.251 156.219C624.81 156.03 624.336 155.865 623.825 155.723L622.038 155.213C620.904 154.887 620.007 154.421 619.345 153.816C618.683 153.211 618.352 152.42 618.352 151.442C618.352 150.629 618.572 149.92 619.013 149.316C619.457 148.706 620.052 148.233 620.797 147.898C621.549 147.558 622.388 147.388 623.314 147.388C624.251 147.388 625.083 147.556 625.81 147.891C626.538 148.222 627.114 148.675 627.54 149.252C627.969 149.828 628.197 150.483 628.22 151.215H626.518ZM630.516 149.145V147.586H641.403V149.145H636.838V162.102H635.08V149.145H630.516ZM644.116 162.102V147.586H652.878V149.145H645.874V154.05H652.424V155.61H645.874V160.543H652.991V162.102H644.116ZM656.047 162.102V147.586H660.952C662.087 147.586 663.017 147.78 663.745 148.167C664.472 148.55 665.011 149.077 665.361 149.748C665.712 150.419 665.886 151.182 665.886 152.037C665.886 152.893 665.712 153.651 665.361 154.313C665.011 154.974 664.476 155.494 663.752 155.872C663.028 156.245 662.105 156.432 660.981 156.432H657.012V154.844H660.924C661.699 154.844 662.323 154.731 662.795 154.504C663.273 154.277 663.617 153.956 663.83 153.54C664.048 153.119 664.156 152.618 664.156 152.037C664.156 151.456 664.048 150.948 663.83 150.513C663.612 150.079 663.266 149.743 662.789 149.507C662.311 149.266 661.679 149.145 660.896 149.145H657.805V162.102H656.047ZM662.88 155.581L666.453 162.102H664.411L660.896 155.581H662.88Z" fill="white"/>
<defs>
<linearGradient id="paint0_linear_150_982" x1="242.869" y1="155.45" x2="113.213" y2="154.9" gradientUnits="userSpaceOnUse">
<stop stop-color="white"/>
<stop offset="1" stop-color="white" stop-opacity="0"/>
</linearGradient>
<linearGradient id="paint1_linear_150_982" x1="460.785" y1="155.45" x2="349.919" y2="155.048" gradientUnits="userSpaceOnUse">
<stop stop-color="white"/>
<stop offset="1" stop-color="white" stop-opacity="0"/>
</linearGradient>
</defs>
</svg>
