<svg width="695" height="432" viewBox="0 0 695 432" fill="none" xmlns="http://www.w3.org/2000/svg">
<rect width="695" height="432" fill="#0A0E12"/>
<path opacity="0.4" d="M474.057 114V105.273H475.114V109.602H475.216L479.136 105.273H480.517L476.852 109.21L480.517 114H479.239L476.205 109.943L475.114 111.17V114H474.057ZM487.612 105.273H488.669V111.051C488.669 111.648 488.528 112.18 488.247 112.649C487.969 113.115 487.575 113.483 487.067 113.753C486.558 114.02 485.962 114.153 485.277 114.153C484.592 114.153 483.996 114.02 483.487 113.753C482.979 113.483 482.584 113.115 482.303 112.649C482.024 112.18 481.885 111.648 481.885 111.051V105.273H482.942V110.966C482.942 111.392 483.036 111.771 483.223 112.104C483.411 112.433 483.678 112.693 484.024 112.883C484.374 113.071 484.791 113.165 485.277 113.165C485.763 113.165 486.18 113.071 486.53 112.883C486.879 112.693 487.146 112.433 487.331 112.104C487.518 111.771 487.612 111.392 487.612 110.966V105.273ZM490.779 114V105.273H493.831C494.439 105.273 494.94 105.378 495.335 105.588C495.73 105.795 496.024 106.075 496.217 106.428C496.41 106.777 496.507 107.165 496.507 107.591C496.507 107.966 496.44 108.276 496.306 108.52C496.176 108.764 496.002 108.957 495.787 109.099C495.574 109.241 495.342 109.347 495.092 109.415V109.5C495.359 109.517 495.627 109.611 495.897 109.781C496.167 109.952 496.393 110.196 496.575 110.514C496.757 110.832 496.848 111.222 496.848 111.682C496.848 112.119 496.748 112.513 496.549 112.862C496.35 113.212 496.037 113.489 495.608 113.693C495.179 113.898 494.62 114 493.933 114H490.779ZM491.836 113.062H493.933C494.623 113.062 495.113 112.929 495.403 112.662C495.696 112.392 495.842 112.065 495.842 111.682C495.842 111.386 495.767 111.114 495.616 110.864C495.466 110.611 495.251 110.409 494.973 110.258C494.694 110.105 494.365 110.028 493.984 110.028H491.836V113.062ZM491.836 109.108H493.797C494.115 109.108 494.402 109.045 494.657 108.92C494.916 108.795 495.12 108.619 495.271 108.392C495.424 108.165 495.501 107.898 495.501 107.591C495.501 107.207 495.368 106.882 495.1 106.615C494.833 106.345 494.41 106.21 493.831 106.21H491.836V109.108ZM498.584 114V105.273H503.851V106.21H499.641V109.159H503.578V110.097H499.641V113.062H503.919V114H498.584ZM505.756 114V105.273H508.705C509.387 105.273 509.946 105.389 510.384 105.622C510.821 105.852 511.145 106.169 511.355 106.572C511.566 106.976 511.671 107.435 511.671 107.949C511.671 108.463 511.566 108.919 511.355 109.317C511.145 109.714 510.823 110.027 510.388 110.254C509.953 110.479 509.398 110.591 508.722 110.591H506.336V109.636H508.688C509.154 109.636 509.529 109.568 509.813 109.432C510.1 109.295 510.307 109.102 510.435 108.852C510.566 108.599 510.631 108.298 510.631 107.949C510.631 107.599 510.566 107.294 510.435 107.033C510.304 106.771 510.096 106.57 509.809 106.428C509.522 106.283 509.142 106.21 508.671 106.21H506.813V114H505.756ZM509.864 110.079L512.012 114H510.784L508.671 110.079H509.864ZM520.352 105.273V114H519.33L514.574 107.148H514.489V114H513.432V105.273H514.455L519.227 112.142H519.312V105.273H520.352ZM522.467 114V105.273H527.734V106.21H523.524V109.159H527.461V110.097H523.524V113.062H527.802V114H522.467ZM529.162 106.21V105.273H535.707V106.21H532.963V114H531.906V106.21H529.162ZM537.338 114V105.273H542.605V106.21H538.395V109.159H542.332V110.097H538.395V113.062H542.673V114H537.338ZM549.283 107.454C549.232 107.023 549.024 106.687 548.661 106.449C548.297 106.21 547.851 106.091 547.322 106.091C546.936 106.091 546.598 106.153 546.308 106.278C546.021 106.403 545.797 106.575 545.635 106.794C545.476 107.013 545.396 107.261 545.396 107.54C545.396 107.773 545.452 107.973 545.562 108.141C545.676 108.305 545.821 108.443 545.997 108.554C546.173 108.662 546.358 108.751 546.551 108.822C546.744 108.891 546.922 108.946 547.084 108.989L547.97 109.227C548.197 109.287 548.45 109.369 548.729 109.474C549.01 109.579 549.278 109.723 549.534 109.905C549.793 110.084 550.006 110.314 550.173 110.595C550.341 110.876 550.425 111.222 550.425 111.631C550.425 112.102 550.301 112.528 550.054 112.909C549.81 113.29 549.452 113.592 548.98 113.817C548.511 114.041 547.942 114.153 547.271 114.153C546.646 114.153 546.105 114.053 545.648 113.851C545.193 113.649 544.835 113.368 544.574 113.007C544.315 112.646 544.169 112.227 544.135 111.75H545.226C545.254 112.079 545.365 112.352 545.558 112.568C545.754 112.781 546.001 112.94 546.3 113.045C546.601 113.148 546.925 113.199 547.271 113.199C547.675 113.199 548.037 113.133 548.358 113.003C548.679 112.869 548.933 112.685 549.121 112.449C549.308 112.21 549.402 111.932 549.402 111.614C549.402 111.324 549.321 111.088 549.159 110.906C548.997 110.724 548.784 110.577 548.52 110.463C548.256 110.349 547.97 110.25 547.663 110.165L546.589 109.858C545.908 109.662 545.368 109.382 544.97 109.018C544.572 108.655 544.374 108.179 544.374 107.591C544.374 107.102 544.506 106.676 544.77 106.312C545.037 105.946 545.395 105.662 545.844 105.46C546.295 105.256 546.8 105.153 547.357 105.153C547.919 105.153 548.419 105.254 548.857 105.456C549.294 105.655 549.641 105.928 549.896 106.274C550.155 106.621 550.291 107.014 550.305 107.454H549.283ZM562.56 108H561.503C561.441 107.696 561.331 107.429 561.175 107.199C561.022 106.969 560.834 106.776 560.613 106.619C560.394 106.46 560.151 106.341 559.884 106.261C559.617 106.182 559.338 106.142 559.049 106.142C558.52 106.142 558.042 106.276 557.613 106.543C557.186 106.81 556.847 107.203 556.594 107.723C556.344 108.243 556.219 108.881 556.219 109.636C556.219 110.392 556.344 111.03 556.594 111.55C556.847 112.07 557.186 112.463 557.613 112.73C558.042 112.997 558.52 113.131 559.049 113.131C559.338 113.131 559.617 113.091 559.884 113.011C560.151 112.932 560.394 112.814 560.613 112.658C560.834 112.499 561.022 112.304 561.175 112.074C561.331 111.841 561.441 111.574 561.503 111.273H562.56C562.48 111.719 562.336 112.118 562.125 112.47C561.915 112.822 561.654 113.122 561.341 113.369C561.029 113.614 560.678 113.8 560.289 113.928C559.902 114.055 559.489 114.119 559.049 114.119C558.304 114.119 557.642 113.937 557.063 113.574C556.483 113.21 556.027 112.693 555.695 112.023C555.363 111.352 555.196 110.557 555.196 109.636C555.196 108.716 555.363 107.92 555.695 107.25C556.027 106.579 556.483 106.062 557.063 105.699C557.642 105.335 558.304 105.153 559.049 105.153C559.489 105.153 559.902 105.217 560.289 105.345C560.678 105.473 561.029 105.66 561.341 105.908C561.654 106.152 561.915 106.45 562.125 106.803C562.336 107.152 562.48 107.551 562.56 108ZM564.268 114V105.273H565.325V113.062H569.381V114H564.268ZM576.745 105.273H577.802V111.051C577.802 111.648 577.661 112.18 577.38 112.649C577.102 113.115 576.708 113.483 576.2 113.753C575.691 114.02 575.094 114.153 574.41 114.153C573.725 114.153 573.129 114.02 572.62 113.753C572.112 113.483 571.717 113.115 571.435 112.649C571.157 112.18 571.018 111.648 571.018 111.051V105.273H572.075V110.966C572.075 111.392 572.168 111.771 572.356 112.104C572.543 112.433 572.81 112.693 573.157 112.883C573.506 113.071 573.924 113.165 574.41 113.165C574.896 113.165 575.313 113.071 575.663 112.883C576.012 112.693 576.279 112.433 576.464 112.104C576.651 111.771 576.745 111.392 576.745 110.966V105.273ZM584.685 107.454C584.634 107.023 584.426 106.687 584.063 106.449C583.699 106.21 583.253 106.091 582.725 106.091C582.338 106.091 582 106.153 581.711 106.278C581.424 106.403 581.199 106.575 581.037 106.794C580.878 107.013 580.799 107.261 580.799 107.54C580.799 107.773 580.854 107.973 580.965 108.141C581.078 108.305 581.223 108.443 581.4 108.554C581.576 108.662 581.76 108.751 581.953 108.822C582.147 108.891 582.324 108.946 582.486 108.989L583.373 109.227C583.6 109.287 583.853 109.369 584.131 109.474C584.412 109.579 584.681 109.723 584.936 109.905C585.195 110.084 585.408 110.314 585.576 110.595C585.743 110.876 585.827 111.222 585.827 111.631C585.827 112.102 585.703 112.528 585.456 112.909C585.212 113.29 584.854 113.592 584.382 113.817C583.914 114.041 583.344 114.153 582.674 114.153C582.049 114.153 581.507 114.053 581.05 113.851C580.596 113.649 580.238 113.368 579.976 113.007C579.718 112.646 579.571 112.227 579.537 111.75H580.628C580.657 112.079 580.767 112.352 580.961 112.568C581.157 112.781 581.404 112.94 581.702 113.045C582.003 113.148 582.327 113.199 582.674 113.199C583.077 113.199 583.439 113.133 583.76 113.003C584.081 112.869 584.336 112.685 584.523 112.449C584.711 112.21 584.804 111.932 584.804 111.614C584.804 111.324 584.723 111.088 584.561 110.906C584.4 110.724 584.186 110.577 583.922 110.463C583.658 110.349 583.373 110.25 583.066 110.165L581.992 109.858C581.31 109.662 580.77 109.382 580.373 109.018C579.975 108.655 579.776 108.179 579.776 107.591C579.776 107.102 579.908 106.676 580.172 106.312C580.439 105.946 580.797 105.662 581.246 105.46C581.698 105.256 582.202 105.153 582.759 105.153C583.321 105.153 583.821 105.254 584.259 105.456C584.696 105.655 585.043 105.928 585.299 106.274C585.557 106.621 585.694 107.014 585.708 107.454H584.685ZM587.087 106.21V105.273H593.633V106.21H590.888V114H589.832V106.21H587.087ZM595.264 114V105.273H600.531V106.21H596.321V109.159H600.258V110.097H596.321V113.062H600.599V114H595.264ZM602.436 114V105.273H605.385C606.066 105.273 606.626 105.389 607.064 105.622C607.501 105.852 607.825 106.169 608.035 106.572C608.245 106.976 608.35 107.435 608.35 107.949C608.35 108.463 608.245 108.919 608.035 109.317C607.825 109.714 607.502 110.027 607.068 110.254C606.633 110.479 606.078 110.591 605.402 110.591H603.015V109.636H605.368C605.833 109.636 606.208 109.568 606.493 109.432C606.779 109.295 606.987 109.102 607.115 108.852C607.245 108.599 607.311 108.298 607.311 107.949C607.311 107.599 607.245 107.294 607.115 107.033C606.984 106.771 606.775 106.57 606.488 106.428C606.201 106.283 605.822 106.21 605.35 106.21H603.493V114H602.436ZM606.544 110.079L608.691 114H607.464L605.35 110.079H606.544Z" fill="white"/>
<path opacity="0.3" d="M611 66.5H444C422.185 66.5 404.5 84.1848 404.5 106V111C404.5 132.815 422.185 150.5 444 150.5H611C632.815 150.5 650.5 132.815 650.5 111V106C650.5 84.1848 632.815 66.5 611 66.5Z" stroke="white"/>
<path opacity="0.2" d="M454.187 112.708C454.142 112.708 454.097 112.708 454.097 112.663C454.097 112.618 454.007 112.618 453.916 112.618C453.736 112.574 453.555 112.574 453.374 112.574C453.284 112.574 453.194 112.574 453.103 112.529H453.058C452.561 112.484 452.02 112.394 451.523 112.26C451.387 112.215 451.252 112.081 451.207 111.946C451.252 111.946 451.207 111.946 451.207 111.946L450.846 111.857C451.026 110.557 450.936 109.213 450.665 107.914C450.349 106.614 449.807 105.359 449.084 104.239L449.355 103.97V103.926C449.355 103.791 449.4 103.612 449.491 103.522C449.897 103.164 450.304 102.895 450.755 102.626C450.846 102.581 450.936 102.536 451.026 102.492C451.207 102.402 451.342 102.312 451.523 102.223C451.568 102.178 451.613 102.178 451.658 102.133C451.703 102.088 451.658 102.088 451.658 102.044C452.065 101.73 452.155 101.192 451.839 100.789C451.703 100.61 451.433 100.475 451.207 100.475C450.981 100.475 450.755 100.565 450.575 100.699L450.529 100.744C450.484 100.789 450.439 100.834 450.394 100.834C450.258 100.968 450.123 101.103 450.033 101.237C449.988 101.327 449.897 101.371 449.852 101.416C449.536 101.775 449.13 102.133 448.723 102.402C448.633 102.447 448.542 102.492 448.452 102.492C448.407 102.492 448.317 102.492 448.272 102.447H448.226L447.865 102.671C447.504 102.312 447.097 101.954 446.736 101.595C445.065 100.296 442.988 99.4895 440.866 99.2654L440.821 98.907V98.9518C440.685 98.8622 440.64 98.7277 440.595 98.5933C440.595 98.1004 440.595 97.6075 440.685 97.0698V97.025C440.685 96.9354 440.73 96.8458 440.73 96.7561C440.775 96.5769 440.775 96.3977 440.821 96.2184V95.9496C440.866 95.5015 440.504 95.0534 440.053 95.0086C439.782 94.9638 439.511 95.0982 439.285 95.3222C439.105 95.5015 439.014 95.7255 439.014 95.9496V96.1736C439.014 96.3529 439.059 96.5321 439.105 96.7113C439.15 96.8009 439.15 96.8906 439.15 96.9802V97.025C439.24 97.5179 439.24 98.0108 439.24 98.5485C439.195 98.6829 439.15 98.8173 439.014 98.907V98.9966L438.969 99.3551C438.472 99.3999 437.976 99.4895 437.434 99.5791C435.311 100.027 433.37 101.147 431.879 102.716L431.608 102.536H431.563C431.518 102.536 431.473 102.581 431.383 102.581C431.292 102.581 431.202 102.536 431.112 102.492C430.705 102.178 430.299 101.82 429.983 101.461C429.938 101.371 429.847 101.327 429.802 101.282C429.667 101.147 429.576 101.013 429.441 100.879C429.396 100.834 429.351 100.834 429.305 100.789C429.26 100.744 429.26 100.744 429.26 100.744C429.08 100.61 428.854 100.52 428.628 100.52C428.357 100.52 428.131 100.61 427.996 100.834C427.725 101.237 427.815 101.775 428.176 102.088C428.222 102.088 428.222 102.133 428.222 102.133C428.222 102.133 428.312 102.223 428.357 102.223C428.493 102.312 428.673 102.402 428.854 102.492C428.944 102.536 429.034 102.581 429.125 102.626C429.576 102.895 430.028 103.164 430.389 103.522C430.479 103.612 430.57 103.791 430.525 103.926V103.881L430.796 104.15C430.75 104.239 430.705 104.284 430.66 104.374C429.26 106.569 428.673 109.168 429.08 111.722L428.718 111.812C428.718 111.857 428.673 111.857 428.673 111.857C428.628 111.991 428.493 112.081 428.357 112.17C427.86 112.305 427.364 112.394 426.822 112.439C426.731 112.439 426.641 112.439 426.551 112.484C426.37 112.484 426.189 112.529 426.009 112.529C425.964 112.529 425.919 112.574 425.828 112.574C425.783 112.574 425.783 112.574 425.738 112.618C425.241 112.708 424.925 113.156 425.015 113.649C425.106 114.052 425.512 114.321 425.919 114.276C426.009 114.276 426.054 114.276 426.144 114.232C426.189 114.232 426.189 114.232 426.189 114.187C426.189 114.142 426.325 114.187 426.37 114.187C426.551 114.142 426.731 114.052 426.867 114.008C426.957 113.963 427.047 113.918 427.138 113.918H427.183C427.68 113.739 428.131 113.604 428.673 113.515H428.718C428.854 113.515 428.989 113.559 429.08 113.649C429.125 113.649 429.125 113.694 429.125 113.694L429.531 113.649C430.208 115.71 431.473 117.547 433.234 118.892C433.64 119.205 434.002 119.474 434.453 119.698L434.228 120.012C434.228 120.057 434.273 120.057 434.273 120.057C434.363 120.191 434.363 120.37 434.318 120.505C434.137 120.953 433.866 121.401 433.595 121.804V121.849C433.55 121.939 433.505 121.984 433.415 122.073C433.324 122.163 433.234 122.342 433.099 122.521C433.053 122.566 433.053 122.611 433.008 122.656C433.008 122.656 433.008 122.7 432.963 122.7C432.737 123.149 432.918 123.686 433.324 123.91C433.415 123.955 433.55 124 433.64 124C434.002 124 434.318 123.776 434.498 123.462C434.498 123.462 434.498 123.417 434.544 123.417C434.544 123.373 434.589 123.328 434.634 123.283C434.679 123.104 434.769 122.969 434.815 122.79L434.905 122.521C435.04 122.028 435.266 121.58 435.492 121.132C435.582 120.998 435.718 120.908 435.853 120.863C435.898 120.863 435.898 120.863 435.898 120.819L436.079 120.46C437.343 120.953 438.653 121.177 440.008 121.177C440.821 121.177 441.633 121.087 442.446 120.863C442.943 120.774 443.44 120.594 443.891 120.46L444.072 120.774C444.117 120.774 444.117 120.774 444.117 120.819C444.252 120.863 444.388 120.953 444.478 121.087C444.704 121.535 444.93 121.984 445.065 122.476V122.521L445.156 122.79C445.201 122.969 445.246 123.149 445.336 123.283C445.381 123.328 445.381 123.373 445.427 123.417C445.427 123.417 445.427 123.462 445.472 123.462C445.652 123.776 445.968 124 446.33 124C446.465 124 446.556 123.955 446.691 123.91C446.872 123.821 447.052 123.641 447.097 123.417C447.143 123.193 447.143 122.969 447.052 122.745C447.052 122.7 447.007 122.7 447.007 122.7C447.007 122.656 446.962 122.611 446.917 122.566C446.826 122.387 446.736 122.252 446.601 122.118C446.556 122.028 446.51 121.984 446.42 121.894V121.804C446.104 121.401 445.878 120.953 445.698 120.505C445.652 120.37 445.652 120.191 445.743 120.057C445.743 120.012 445.788 120.012 445.788 120.012L445.652 119.653C447.955 118.264 449.717 116.114 450.529 113.559L450.891 113.604C450.936 113.604 450.936 113.559 450.936 113.559C451.026 113.47 451.162 113.425 451.297 113.425H451.342C451.839 113.515 452.336 113.649 452.787 113.828H452.832C452.923 113.873 453.013 113.918 453.103 113.918C453.284 114.008 453.419 114.097 453.6 114.142C453.645 114.142 453.69 114.187 453.781 114.187C453.826 114.187 453.826 114.187 453.871 114.232C453.961 114.276 454.007 114.276 454.097 114.276C454.503 114.276 454.865 114.008 455 113.649C454.955 113.156 454.594 112.798 454.187 112.708ZM441.137 111.319L439.917 111.902L438.698 111.319L438.382 110.02L439.24 108.944H440.595L441.453 110.02L441.137 111.319ZM448.497 108.406C448.723 109.347 448.768 110.288 448.678 111.229L444.388 110.02C443.982 109.93 443.756 109.527 443.846 109.123C443.891 108.989 443.936 108.899 444.027 108.81L447.414 105.763C447.91 106.569 448.272 107.465 448.497 108.406ZM446.059 104.105L442.356 106.704C442.04 106.883 441.588 106.838 441.362 106.524C441.272 106.435 441.227 106.345 441.227 106.211L440.956 101.685C442.943 101.909 444.704 102.76 446.059 104.105ZM437.885 101.82L438.788 101.64L438.563 106.121C438.563 106.524 438.201 106.838 437.795 106.838C437.659 106.838 437.569 106.793 437.434 106.748L433.686 104.105C434.86 102.985 436.305 102.178 437.885 101.82ZM432.376 105.763L435.718 108.72C436.034 108.989 436.079 109.437 435.808 109.751C435.718 109.885 435.627 109.93 435.447 109.975L431.066 111.229C430.931 109.347 431.383 107.421 432.376 105.763ZM431.608 113.335L436.079 112.574C436.44 112.574 436.802 112.798 436.847 113.156C436.892 113.291 436.892 113.47 436.802 113.604L435.086 117.727C433.505 116.696 432.241 115.128 431.608 113.335ZM441.859 118.892C441.227 119.026 440.595 119.116 439.917 119.116C438.969 119.116 437.976 118.937 437.072 118.668L439.285 114.68C439.511 114.411 439.872 114.321 440.188 114.5C440.324 114.59 440.414 114.68 440.55 114.814L442.717 118.712C442.446 118.757 442.175 118.802 441.859 118.892ZM447.368 114.993C446.691 116.069 445.743 117.01 444.659 117.682L442.898 113.47C442.807 113.111 442.988 112.753 443.304 112.618C443.44 112.574 443.575 112.529 443.711 112.529L448.226 113.291C448.001 113.918 447.73 114.5 447.368 114.993Z" fill="white"/>
<g filter="url(#filter0_d_150_1073)">
<path d="M527.5 170.5C538.546 170.5 547.5 161.546 547.5 150.5C547.5 139.454 538.546 130.5 527.5 130.5C516.454 130.5 507.5 139.454 507.5 150.5C507.5 161.546 516.454 170.5 527.5 170.5Z" stroke="white" stroke-opacity="0.13"/>
</g>
<path d="M527.521 137C520.041 137 514 143.041 514 150.521C514 157.959 520.041 164 527.521 164C534.959 164 541 157.959 541 150.521C541 143.041 534.959 137 527.521 137ZM523.822 157.959C522.342 155.658 521.726 155 521.027 153.973C517.616 148.959 520.986 144.932 522.795 143.699C525.425 141.89 530.233 141.479 532.986 145.384C533.274 145.795 533.11 146.411 532.699 146.699C532.288 146.986 531.63 147.027 531.301 146.534C529.904 144.438 526.493 143.658 524.068 145.301C521.644 146.945 520.781 150.11 522.671 152.658C524.274 154.877 524.932 155.781 525.589 156.808C526.329 158.082 524.685 159.192 523.822 157.959ZM528.959 158.452C528.753 158.575 528.014 158.904 527.521 158.082C527.027 157.26 527.068 157.342 526.658 156.603C526.247 155.863 526.822 155.329 527.027 155.205C527.103 155.16 527.247 155.081 527.422 155.042C528.221 154.868 528.632 155.927 529.044 156.634C529.122 156.769 529.204 156.91 529.288 157.055C529.781 157.795 529.205 158.329 528.959 158.452ZM530.562 156.89C529.329 154.753 528.589 153.356 526.247 150.315C525.507 149.37 527.11 148.096 527.932 149.164C529.616 151.301 531.507 154.301 532.288 155.699C532.986 157.096 531.219 158 530.562 156.89ZM532.945 154.753C532.205 153.521 529.904 149.534 528.301 148.055C526.904 146.74 524.315 148.507 524.973 150.315C525.178 150.89 526.082 152.041 526.658 152.822C527.562 154.014 525.795 155 524.973 153.973C524.151 152.945 523.945 152.575 523.329 151.548C522.795 150.644 522.384 147.89 524.603 146.411C526.822 144.89 529.247 145.836 530.068 146.863C530.89 147.89 533.356 151.178 534.671 153.726C535.329 154.795 533.644 155.945 532.945 154.753ZM535.534 150.808C535.329 150.973 534.63 151.301 534.096 150.521C533.562 149.74 533.603 149.822 533.151 149.123C532.658 148.425 533.233 147.849 533.438 147.685C533.568 147.607 533.878 147.414 534.234 147.49C534.771 147.604 535.032 148.198 535.34 148.653C535.484 148.866 535.651 149.113 535.822 149.37C536.315 150.11 535.74 150.685 535.534 150.808Z" fill="white"/>
<path d="M198.751 72.5H53.5V212.397H198.751V72.5Z" stroke="white" stroke-width="3"/>
<path d="M98.0749 129C91.4265 129 86.0566 134.37 86.0566 141.018C86.0566 147.63 91.4265 153 98.0749 153C104.687 153 110.057 147.63 110.057 141.018C110.057 134.37 104.687 129 98.0749 129ZM94.7872 147.63C93.4722 145.584 92.9242 145 92.3032 144.087C89.2713 139.63 92.2667 136.05 93.874 134.954C96.2119 133.347 100.486 132.982 102.933 136.452C103.189 136.817 103.043 137.365 102.678 137.621C102.312 137.877 101.728 137.913 101.436 137.475C100.194 135.612 97.1617 134.918 95.0064 136.379C92.8512 137.84 92.084 140.653 93.7644 142.918C95.1891 144.89 95.7735 145.694 96.358 146.607C97.0155 147.74 95.5544 148.726 94.7872 147.63ZM99.3534 148.068C99.1708 148.178 98.5133 148.47 98.0749 147.74C97.6366 147.009 97.6731 147.082 97.3078 146.425C96.9425 145.767 97.4539 145.292 97.6366 145.183C97.8192 145.073 98.4402 144.744 98.8786 145.511C98.8786 145.511 99.2439 146.132 99.6457 146.826C100.084 147.484 99.5726 147.959 99.3534 148.068ZM100.778 146.68C99.6822 144.781 99.0247 143.539 96.9425 140.836C96.285 139.995 97.7096 138.863 98.4402 139.813C99.9379 141.712 101.618 144.379 102.312 145.621C102.933 146.863 101.363 147.667 100.778 146.68ZM102.897 144.781C102.239 143.685 100.194 140.142 98.769 138.826C97.527 137.658 95.2256 139.228 95.8101 140.836C95.9927 141.347 96.7964 142.37 97.3078 143.064C98.1114 144.123 96.5407 145 95.8101 144.087C95.0795 143.174 94.8968 142.845 94.3489 141.932C93.874 141.128 93.5087 138.68 95.4813 137.365C97.4539 136.014 99.6092 136.854 100.34 137.767C101.07 138.68 103.262 141.603 104.431 143.868C105.016 144.817 103.518 145.84 102.897 144.781ZM105.198 141.274C105.016 141.42 104.395 141.712 103.92 141.018C103.445 140.324 103.481 140.397 103.079 139.776C102.641 139.155 103.142 138.628 103.335 138.498C103.528 138.367 104.102 138.023 104.614 138.753C104.614 138.753 105.016 139.338 105.454 139.995C105.892 140.653 105.381 141.164 105.198 141.274Z" fill="white"/>
<path d="M118.27 130.563C117.142 130.563 116.206 131.499 116.206 132.603C116.206 133.731 117.142 134.667 118.27 134.667C119.398 134.667 120.334 133.731 120.334 132.603C120.334 131.499 119.398 130.563 118.27 130.563ZM116.59 136.275V148.059H119.974V136.275H116.59Z" fill="white"/>
<path d="M128.499 136.035C127.179 136.035 125.931 136.659 125.283 137.667V136.275H121.899V148.059H125.283V140.739C125.763 139.923 126.699 139.395 127.635 139.395C129.027 139.395 129.915 140.331 129.915 141.963V148.059H133.299V141.387C133.299 138.075 131.475 136.035 128.499 136.035Z" fill="white"/>
<path d="M139.316 135.579C139.316 134.499 140.156 133.779 141.14 133.779C141.476 133.779 141.956 133.875 142.196 133.947L142.364 130.971C141.932 130.755 141.26 130.611 140.636 130.611C137.876 130.611 135.932 132.363 135.932 135.411V136.275H133.748V139.491H135.932V148.059H139.316V139.491H142.22V136.275H139.316V135.579Z" fill="white"/>
<path d="M149.702 136.035C148.718 136.035 147.446 136.659 146.87 137.667V136.275H143.486V148.059H146.87V140.931C147.446 139.779 148.67 139.155 149.438 139.155C149.918 139.155 150.494 139.251 150.95 139.419L151.142 136.251C150.782 136.107 150.302 136.035 149.702 136.035Z" fill="white"/>
<path d="M159.892 136.275V137.667C159.316 136.707 157.876 136.035 156.412 136.035C153.34 136.035 150.916 138.747 150.916 142.155C150.916 145.563 153.34 148.299 156.412 148.299C157.9 148.299 159.316 147.627 159.892 146.667V148.059H163.276V136.275H159.892ZM157.156 145.083C155.5 145.083 154.228 143.835 154.228 142.155C154.228 140.475 155.5 139.227 157.156 139.227C158.332 139.227 159.388 139.875 159.892 140.739V143.619C159.388 144.459 158.332 145.083 157.156 145.083Z" fill="white"/>
<path d="M87.291 177.377C87.291 178.309 87.8711 178.895 89.0371 179.158L89.9922 179.375C90.7656 179.551 91.0527 179.791 91.0527 180.26C91.0527 180.816 90.5371 181.174 89.7344 181.174C88.9609 181.174 88.4336 180.863 88.3047 180.318H87.1211C87.2266 181.443 88.1992 182.117 89.7051 182.117C91.2637 182.117 92.2656 181.344 92.2656 180.131C92.2656 179.193 91.6973 178.654 90.4375 178.373L89.5117 178.168C88.7676 178.004 88.457 177.752 88.457 177.295C88.457 176.768 88.9434 176.416 89.6934 176.416C90.3965 176.416 90.8945 176.738 91 177.26H92.125C92.0195 176.152 91.1055 175.484 89.7109 175.484C88.2461 175.484 87.291 176.234 87.291 177.377ZM97.2168 174.119C97.7441 174.119 98.125 173.756 98.125 173.252C98.125 172.742 97.7441 172.379 97.2168 172.379C96.6953 172.379 96.3086 172.742 96.3086 173.252C96.3086 173.756 96.6953 174.119 97.2168 174.119ZM99.9121 182V181.051H97.8496V175.613H94.5977V176.562H96.7012V181.051H94.5508V182H99.9121ZM104.348 184.396C106.117 184.396 107.178 183.494 107.178 181.994V175.613H106.018V176.627H105.906C105.648 175.93 104.945 175.508 104.02 175.508C102.514 175.508 101.559 176.557 101.559 178.227V179.316C101.559 180.98 102.508 182.035 103.979 182.035C104.916 182.035 105.637 181.607 105.889 180.922H106V181.988C106 182.949 105.42 183.477 104.365 183.477C103.557 183.477 102.953 183.154 102.83 182.656H101.67C101.793 183.734 102.812 184.396 104.348 184.396ZM102.754 179.205V178.32C102.754 177.23 103.387 176.527 104.377 176.527C105.361 176.527 106 177.225 106 178.32V179.205C106 180.295 105.361 180.998 104.377 180.998C103.387 180.998 102.754 180.295 102.754 179.205ZM109.264 182H110.436V178.256C110.436 177.225 111.092 176.539 112.07 176.539C113.014 176.539 113.453 177.055 113.453 178.15V182H114.631V177.857C114.631 176.322 113.881 175.49 112.492 175.49C111.537 175.49 110.816 175.936 110.482 176.727H110.4V175.613H109.264V182ZM119.471 174.119C119.998 174.119 120.379 173.756 120.379 173.252C120.379 172.742 119.998 172.379 119.471 172.379C118.949 172.379 118.562 172.742 118.562 173.252C118.562 173.756 118.949 174.119 119.471 174.119ZM122.166 182V181.051H120.104V175.613H116.852V176.562H118.955V181.051H116.805V182H122.166ZM124.1 182H125.271V178.256C125.271 177.225 125.928 176.539 126.906 176.539C127.85 176.539 128.289 177.055 128.289 178.15V182H129.467V177.857C129.467 176.322 128.717 175.49 127.328 175.49C126.373 175.49 125.652 175.936 125.318 176.727H125.236V175.613H124.1V182ZM134.02 184.396C135.789 184.396 136.85 183.494 136.85 181.994V175.613H135.689V176.627H135.578C135.32 175.93 134.617 175.508 133.691 175.508C132.186 175.508 131.23 176.557 131.23 178.227V179.316C131.23 180.98 132.18 182.035 133.65 182.035C134.588 182.035 135.309 181.607 135.561 180.922H135.672V181.988C135.672 182.949 135.092 183.477 134.037 183.477C133.229 183.477 132.625 183.154 132.502 182.656H131.342C131.465 183.734 132.484 184.396 134.02 184.396ZM132.426 179.205V178.32C132.426 177.23 133.059 176.527 134.049 176.527C135.033 176.527 135.672 177.225 135.672 178.32V179.205C135.672 180.295 135.033 180.998 134.049 180.998C133.059 180.998 132.426 180.295 132.426 179.205ZM148.047 178.396H147.959V173.123H146.787V182H147.959V179.732L148.762 178.947L150.842 182H152.225L149.611 178.18L152.055 175.613H150.66L148.047 178.396ZM158.078 180.312C157.92 180.834 157.352 181.156 156.596 181.156C155.588 181.156 154.938 180.465 154.938 179.387V179.1H159.221V178.408C159.221 176.592 158.207 175.49 156.537 175.49C154.879 175.49 153.783 176.598 153.783 178.279V179.252C153.783 181.068 154.809 182.123 156.602 182.123C157.979 182.123 159.033 181.385 159.203 180.312H158.078ZM156.525 176.451C157.492 176.451 158.066 177.137 158.066 178.273H154.938C154.938 177.131 155.535 176.451 156.525 176.451ZM162.051 184.285C163.352 184.285 163.949 183.781 164.506 182.193L166.85 175.613H165.602L163.932 180.84H163.85L162.168 175.613H160.879L163.205 182.047L163.105 182.363C162.871 183.037 162.537 183.295 161.922 183.295C161.828 183.295 161.635 183.289 161.57 183.277V184.268C161.646 184.273 161.869 184.285 162.051 184.285ZM168.889 177.377C168.889 178.309 169.469 178.895 170.635 179.158L171.59 179.375C172.363 179.551 172.65 179.791 172.65 180.26C172.65 180.816 172.135 181.174 171.332 181.174C170.559 181.174 170.031 180.863 169.902 180.318H168.719C168.824 181.443 169.797 182.117 171.303 182.117C172.861 182.117 173.863 181.344 173.863 180.131C173.863 179.193 173.295 178.654 172.035 178.373L171.109 178.168C170.365 178.004 170.055 177.752 170.055 177.295C170.055 176.768 170.541 176.416 171.291 176.416C171.994 176.416 172.492 176.738 172.598 177.26H173.723C173.617 176.152 172.703 175.484 171.309 175.484C169.844 175.484 168.889 176.234 168.889 177.377Z" fill="white"/>
<path d="M1.38086 275.377C1.38086 276.309 1.96094 276.895 3.12695 277.158L4.08203 277.375C4.85547 277.551 5.14258 277.791 5.14258 278.26C5.14258 278.816 4.62695 279.174 3.82422 279.174C3.05078 279.174 2.52344 278.863 2.39453 278.318H1.21094C1.31641 279.443 2.28906 280.117 3.79492 280.117C5.35352 280.117 6.35547 279.344 6.35547 278.131C6.35547 277.193 5.78711 276.654 4.52734 276.373L3.60156 276.168C2.85742 276.004 2.54688 275.752 2.54688 275.295C2.54688 274.768 3.0332 274.416 3.7832 274.416C4.48633 274.416 4.98438 274.738 5.08984 275.26H6.21484C6.10938 274.152 5.19531 273.484 3.80078 273.484C2.33594 273.484 1.38086 274.234 1.38086 275.377ZM11.3066 272.119C11.834 272.119 12.2148 271.756 12.2148 271.252C12.2148 270.742 11.834 270.379 11.3066 270.379C10.7852 270.379 10.3984 270.742 10.3984 271.252C10.3984 271.756 10.7852 272.119 11.3066 272.119ZM14.002 280V279.051H11.9395V273.613H8.6875V274.562H10.791V279.051H8.64062V280H14.002ZM18.4375 282.396C20.207 282.396 21.2676 281.494 21.2676 279.994V273.613H20.1074V274.627H19.9961C19.7383 273.93 19.0352 273.508 18.1094 273.508C16.6035 273.508 15.6484 274.557 15.6484 276.227V277.316C15.6484 278.98 16.5977 280.035 18.0684 280.035C19.0059 280.035 19.7266 279.607 19.9785 278.922H20.0898V279.988C20.0898 280.949 19.5098 281.477 18.4551 281.477C17.6465 281.477 17.043 281.154 16.9199 280.656H15.7598C15.8828 281.734 16.9023 282.396 18.4375 282.396ZM16.8438 277.205V276.32C16.8438 275.23 17.4766 274.527 18.4668 274.527C19.4512 274.527 20.0898 275.225 20.0898 276.32V277.205C20.0898 278.295 19.4512 278.998 18.4668 278.998C17.4766 278.998 16.8438 278.295 16.8438 277.205ZM23.3535 280H24.5254V276.256C24.5254 275.225 25.1816 274.539 26.1602 274.539C27.1035 274.539 27.543 275.055 27.543 276.15V280H28.7207V275.857C28.7207 274.322 27.9707 273.49 26.582 273.49C25.627 273.49 24.9062 273.936 24.5723 274.727H24.4902V273.613H23.3535V280ZM41.6816 272.119C42.2031 272.119 42.584 271.756 42.584 271.252C42.584 270.742 42.2031 270.379 41.6816 270.379C41.1543 270.379 40.7734 270.742 40.7734 271.252C40.7734 271.756 41.1543 272.119 41.6816 272.119ZM42.3379 273.613H38.3594V274.562H41.1895V279.824C41.1895 280.662 40.8438 280.943 39.7715 280.943C39.4492 280.943 38.4883 280.932 38.2363 280.908V281.934C38.582 281.963 39.4434 281.975 39.8125 281.975C41.623 281.975 42.3379 281.395 42.3379 279.906V273.613ZM51.7715 273.613H50.6348L49.8789 278.564H49.7441L48.8125 273.625H47.7695L46.8379 278.564H46.7031L45.9473 273.613H44.8105L46.1582 280H47.2422L48.2617 275.213H48.3262L49.3398 280H50.4238L51.7715 273.613ZM54.5488 271.867V273.648H52.8613V274.615H54.5488V278.066C54.5488 279.438 55.2637 280.023 56.8984 280.023C57.1445 280.023 58.0703 280 58.1992 279.977V279.016C58.0586 279.033 57.2793 279.045 56.9805 279.045C56.166 279.045 55.7266 278.699 55.7266 278.066V274.615H58.2344V273.648H55.709V271.867H54.5488ZM69.3848 271.867V273.648H67.6973V274.615H69.3848V278.066C69.3848 279.438 70.0996 280.023 71.7344 280.023C71.9805 280.023 72.9062 280 73.0352 279.977V279.016C72.8945 279.033 72.1152 279.045 71.8164 279.045C71.002 279.045 70.5625 278.699 70.5625 278.066V274.615H73.0703V273.648H70.5449V271.867H69.3848ZM77.9629 280.123C79.6855 280.123 80.7812 279.021 80.7812 277.293V276.326C80.7812 274.592 79.6855 273.496 77.9629 273.496C76.2402 273.496 75.1445 274.592 75.1445 276.326V277.293C75.1445 279.021 76.2402 280.123 77.9629 280.123ZM77.9629 274.492C78.9824 274.492 79.6211 275.225 79.6211 276.408V277.211C79.6211 278.395 78.9824 279.127 77.9629 279.127C76.9434 279.127 76.3047 278.395 76.3047 277.211V276.408C76.3047 275.225 76.9434 274.492 77.9629 274.492ZM84.3906 276.396H84.3027V271.123H83.1309V280H84.3027V277.732L85.1055 276.947L87.1855 280H88.5684L85.9551 276.18L88.3984 273.613H87.0039L84.3906 276.396ZM94.4219 278.312C94.2637 278.834 93.6953 279.156 92.9395 279.156C91.9316 279.156 91.2812 278.465 91.2812 277.387V277.1H95.5645V276.408C95.5645 274.592 94.5508 273.49 92.8809 273.49C91.2227 273.49 90.127 274.598 90.127 276.279V277.252C90.127 279.068 91.1523 280.123 92.9453 280.123C94.3223 280.123 95.377 279.385 95.5469 278.312H94.4219ZM92.8691 274.451C93.8359 274.451 94.4102 275.137 94.4102 276.273H91.2812C91.2812 275.131 91.8789 274.451 92.8691 274.451ZM97.5332 280H98.7051V276.256C98.7051 275.225 99.3613 274.539 100.34 274.539C101.283 274.539 101.723 275.055 101.723 276.15V280H102.9V275.857C102.9 274.322 102.15 273.49 100.762 273.49C99.8066 273.49 99.0859 273.936 98.752 274.727H98.6699V273.613H97.5332V280Z" fill="white"/>
<path d="M554.393 238.613H553.221V242.357C553.221 243.389 552.564 244.074 551.586 244.074C550.643 244.074 550.203 243.559 550.203 242.469V238.613H549.025V242.756C549.025 244.291 549.775 245.123 551.164 245.123C552.119 245.123 552.84 244.678 553.174 243.893H553.256V245H554.393V238.613ZM556.725 240.377C556.725 241.309 557.305 241.895 558.471 242.158L559.426 242.375C560.199 242.551 560.486 242.791 560.486 243.26C560.486 243.816 559.971 244.174 559.168 244.174C558.395 244.174 557.867 243.863 557.738 243.318H556.555C556.66 244.443 557.633 245.117 559.139 245.117C560.697 245.117 561.699 244.344 561.699 243.131C561.699 242.193 561.131 241.654 559.871 241.373L558.945 241.168C558.201 241.004 557.891 240.752 557.891 240.295C557.891 239.768 558.377 239.416 559.127 239.416C559.83 239.416 560.328 239.738 560.434 240.26H561.559C561.453 239.152 560.539 238.484 559.145 238.484C557.68 238.484 556.725 239.234 556.725 240.377ZM568.168 243.312C568.01 243.834 567.441 244.156 566.686 244.156C565.678 244.156 565.027 243.465 565.027 242.387V242.1H569.311V241.408C569.311 239.592 568.297 238.49 566.627 238.49C564.969 238.49 563.873 239.598 563.873 241.279V242.252C563.873 244.068 564.898 245.123 566.691 245.123C568.068 245.123 569.123 244.385 569.293 243.312H568.168ZM566.615 239.451C567.582 239.451 568.156 240.137 568.156 241.273H565.027C565.027 240.131 565.625 239.451 566.615 239.451ZM573.752 242.152C573.752 240.588 574.555 239.691 575.996 239.691C576.348 239.691 576.764 239.768 577.051 239.873V238.584C576.84 238.496 576.494 238.449 576.131 238.449C574.906 238.449 574.162 239.041 573.91 240.242H573.746V238.613H571.221V239.516H572.609V244.098H571.344V245H575.691V244.098H573.752V242.152ZM586.396 240.377C586.396 241.309 586.977 241.895 588.143 242.158L589.098 242.375C589.871 242.551 590.158 242.791 590.158 243.26C590.158 243.816 589.643 244.174 588.84 244.174C588.066 244.174 587.539 243.863 587.41 243.318H586.227C586.332 244.443 587.305 245.117 588.811 245.117C590.369 245.117 591.371 244.344 591.371 243.131C591.371 242.193 590.803 241.654 589.543 241.373L588.617 241.168C587.873 241.004 587.562 240.752 587.562 240.295C587.562 239.768 588.049 239.416 588.799 239.416C589.502 239.416 590 239.738 590.105 240.26H591.23C591.125 239.152 590.211 238.484 588.816 238.484C587.352 238.484 586.396 239.234 586.396 240.377ZM597.84 243.312C597.682 243.834 597.113 244.156 596.357 244.156C595.35 244.156 594.699 243.465 594.699 242.387V242.1H598.982V241.408C598.982 239.592 597.969 238.49 596.299 238.49C594.641 238.49 593.545 239.598 593.545 241.279V242.252C593.545 244.068 594.57 245.123 596.363 245.123C597.74 245.123 598.795 244.385 598.965 243.312H597.84ZM596.287 239.451C597.254 239.451 597.828 240.137 597.828 241.273H594.699C594.699 240.131 595.297 239.451 596.287 239.451ZM600.951 245H602.123V241.256C602.123 240.225 602.779 239.539 603.758 239.539C604.701 239.539 605.141 240.055 605.141 241.15V245H606.318V240.857C606.318 239.322 605.568 238.49 604.18 238.49C603.225 238.49 602.504 238.936 602.17 239.727H602.088V238.613H600.951V245ZM610.561 245.105C611.48 245.105 612.137 244.713 612.441 243.992H612.553V245H613.73V236.123H612.523V239.627H612.412C612.154 238.912 611.48 238.508 610.561 238.508C609.09 238.508 608.152 239.557 608.152 241.227V242.387C608.152 244.057 609.09 245.105 610.561 245.105ZM610.947 244.062C609.963 244.062 609.342 243.371 609.342 242.275V241.32C609.342 240.225 609.963 239.527 610.947 239.527C611.932 239.527 612.553 240.219 612.553 241.32V242.275C612.553 243.371 611.932 244.062 610.947 244.062ZM616.068 240.377C616.068 241.309 616.648 241.895 617.814 242.158L618.77 242.375C619.543 242.551 619.83 242.791 619.83 243.26C619.83 243.816 619.314 244.174 618.512 244.174C617.738 244.174 617.211 243.863 617.082 243.318H615.898C616.004 244.443 616.977 245.117 618.482 245.117C620.041 245.117 621.043 244.344 621.043 243.131C621.043 242.193 620.475 241.654 619.215 241.373L618.289 241.168C617.545 241.004 617.234 240.752 617.234 240.295C617.234 239.768 617.721 239.416 618.471 239.416C619.174 239.416 619.672 239.738 619.777 240.26H620.902C620.797 239.152 619.883 238.484 618.488 238.484C617.023 238.484 616.068 239.234 616.068 240.377ZM634.115 237.119C634.637 237.119 635.018 236.756 635.018 236.252C635.018 235.742 634.637 235.379 634.115 235.379C633.588 235.379 633.207 235.742 633.207 236.252C633.207 236.756 633.588 237.119 634.115 237.119ZM634.771 238.613H630.793V239.562H633.623V244.824C633.623 245.662 633.277 245.943 632.205 245.943C631.883 245.943 630.922 245.932 630.67 245.908V246.934C631.016 246.963 631.877 246.975 632.246 246.975C634.057 246.975 634.771 246.395 634.771 244.906V238.613ZM644.205 238.613H643.068L642.312 243.564H642.178L641.246 238.625H640.203L639.271 243.564H639.137L638.381 238.613H637.244L638.592 245H639.676L640.695 240.213H640.76L641.773 245H642.857L644.205 238.613ZM646.982 236.867V238.648H645.295V239.615H646.982V243.066C646.982 244.438 647.697 245.023 649.332 245.023C649.578 245.023 650.504 245 650.633 244.977V244.016C650.492 244.033 649.713 244.045 649.414 244.045C648.6 244.045 648.16 243.699 648.16 243.066V239.615H650.668V238.648H648.143V236.867H646.982ZM550.549 250.867V252.648H548.861V253.615H550.549V257.066C550.549 258.438 551.264 259.023 552.898 259.023C553.145 259.023 554.07 259 554.199 258.977V258.016C554.059 258.033 553.279 258.045 552.98 258.045C552.166 258.045 551.727 257.699 551.727 257.066V253.615H554.234V252.648H551.709V250.867H550.549ZM559.127 259.123C560.85 259.123 561.945 258.021 561.945 256.293V255.326C561.945 253.592 560.85 252.496 559.127 252.496C557.404 252.496 556.309 253.592 556.309 255.326V256.293C556.309 258.021 557.404 259.123 559.127 259.123ZM559.127 253.492C560.146 253.492 560.785 254.225 560.785 255.408V256.211C560.785 257.395 560.146 258.127 559.127 258.127C558.107 258.127 557.469 257.395 557.469 256.211V255.408C557.469 254.225 558.107 253.492 559.127 253.492ZM565.555 255.396H565.467V250.123H564.295V259H565.467V256.732L566.27 255.947L568.35 259H569.732L567.119 255.18L569.562 252.613H568.168L565.555 255.396ZM575.586 257.312C575.428 257.834 574.859 258.156 574.104 258.156C573.096 258.156 572.445 257.465 572.445 256.387V256.1H576.729V255.408C576.729 253.592 575.715 252.49 574.045 252.49C572.387 252.49 571.291 253.598 571.291 255.279V256.252C571.291 258.068 572.316 259.123 574.109 259.123C575.486 259.123 576.541 258.385 576.711 257.312H575.586ZM574.033 253.451C575 253.451 575.574 254.137 575.574 255.273H572.445C572.445 254.131 573.043 253.451 574.033 253.451ZM578.697 259H579.869V255.256C579.869 254.225 580.525 253.539 581.504 253.539C582.447 253.539 582.887 254.055 582.887 255.15V259H584.064V254.857C584.064 253.322 583.314 252.49 581.926 252.49C580.971 252.49 580.25 252.936 579.916 253.727H579.834V252.613H578.697V259ZM599.697 252.613H598.561L597.805 257.564H597.67L596.738 252.625H595.695L594.764 257.564H594.629L593.873 252.613H592.736L594.084 259H595.168L596.188 254.213H596.252L597.266 259H598.35L599.697 252.613ZM603.74 251.119C604.268 251.119 604.648 250.756 604.648 250.252C604.648 249.742 604.268 249.379 603.74 249.379C603.219 249.379 602.832 249.742 602.832 250.252C602.832 250.756 603.219 251.119 603.74 251.119ZM606.436 259V258.051H604.373V252.613H601.121V253.562H603.225V258.051H601.074V259H606.436ZM609.893 250.867V252.648H608.205V253.615H609.893V257.066C609.893 258.438 610.607 259.023 612.242 259.023C612.488 259.023 613.414 259 613.543 258.977V258.016C613.402 258.033 612.623 258.045 612.324 258.045C611.51 258.045 611.07 257.699 611.07 257.066V253.615H613.578V252.648H611.053V250.867H609.893ZM615.775 259H616.953V255.268C616.953 254.236 617.609 253.551 618.6 253.551C619.543 253.551 619.994 254.072 619.994 255.156V259H621.166V254.869C621.166 253.34 620.41 252.502 619.021 252.502C618.055 252.502 617.328 252.947 617 253.732H616.912V250.123H615.775V259ZM633.096 256.152C633.096 254.588 633.898 253.691 635.34 253.691C635.691 253.691 636.107 253.768 636.395 253.873V252.584C636.184 252.496 635.838 252.449 635.475 252.449C634.25 252.449 633.506 253.041 633.254 254.242H633.09V252.613H630.564V253.516H631.953V258.098H630.688V259H635.035V258.098H633.096V256.152ZM642.348 257.312C642.189 257.834 641.621 258.156 640.865 258.156C639.857 258.156 639.207 257.465 639.207 256.387V256.1H643.49V255.408C643.49 253.592 642.477 252.49 640.807 252.49C639.148 252.49 638.053 253.598 638.053 255.279V256.252C638.053 258.068 639.078 259.123 640.871 259.123C642.248 259.123 643.303 258.385 643.473 257.312H642.348ZM640.795 253.451C641.762 253.451 642.336 254.137 642.336 255.273H639.207C639.207 254.131 639.805 253.451 640.795 253.451ZM647.645 252.514C646.174 252.514 645.236 253.562 645.236 255.227V256.393C645.236 258.057 646.174 259.105 647.645 259.105C648.57 259.105 649.238 258.701 649.496 257.986H649.607V261.145H650.814V252.613H649.637V253.627H649.525C649.227 252.9 648.57 252.514 647.645 252.514ZM648.037 253.557C649.016 253.557 649.637 254.248 649.637 255.344V256.299C649.637 257.4 649.016 258.092 648.037 258.092C647.053 258.092 646.426 257.395 646.426 256.299V255.344C646.426 254.248 647.053 253.557 648.037 253.557ZM658.244 252.613H657.072V256.357C657.072 257.389 656.416 258.074 655.438 258.074C654.494 258.074 654.055 257.559 654.055 256.469V252.613H652.877V256.756C652.877 258.291 653.627 259.123 655.016 259.123C655.971 259.123 656.691 258.678 657.025 257.893H657.107V259H658.244V252.613ZM664.602 257.312C664.443 257.834 663.875 258.156 663.119 258.156C662.111 258.156 661.461 257.465 661.461 256.387V256.1H665.744V255.408C665.744 253.592 664.73 252.49 663.061 252.49C661.402 252.49 660.307 253.598 660.307 255.279V256.252C660.307 258.068 661.332 259.123 663.125 259.123C664.502 259.123 665.557 258.385 665.727 257.312H664.602ZM663.049 253.451C664.016 253.451 664.59 254.137 664.59 255.273H661.461C661.461 254.131 662.059 253.451 663.049 253.451ZM667.994 254.377C667.994 255.309 668.574 255.895 669.74 256.158L670.695 256.375C671.469 256.551 671.756 256.791 671.756 257.26C671.756 257.816 671.24 258.174 670.438 258.174C669.664 258.174 669.137 257.863 669.008 257.318H667.824C667.93 258.443 668.902 259.117 670.408 259.117C671.967 259.117 672.969 258.344 672.969 257.131C672.969 256.193 672.4 255.654 671.141 255.373L670.215 255.168C669.471 255.004 669.16 254.752 669.16 254.295C669.16 253.768 669.646 253.416 670.396 253.416C671.1 253.416 671.598 253.738 671.703 254.26H672.828C672.723 253.152 671.809 252.484 670.414 252.484C668.949 252.484 667.994 253.234 667.994 254.377ZM676.654 250.867V252.648H674.967V253.615H676.654V257.066C676.654 258.438 677.369 259.023 679.004 259.023C679.25 259.023 680.176 259 680.305 258.977V258.016C680.164 258.033 679.385 258.045 679.086 258.045C678.271 258.045 677.832 257.699 677.832 257.066V253.615H680.34V252.648H677.814V250.867H676.654ZM682.83 254.377C682.83 255.309 683.41 255.895 684.576 256.158L685.531 256.375C686.305 256.551 686.592 256.791 686.592 257.26C686.592 257.816 686.076 258.174 685.273 258.174C684.5 258.174 683.973 257.863 683.844 257.318H682.66C682.766 258.443 683.738 259.117 685.244 259.117C686.803 259.117 687.805 258.344 687.805 257.131C687.805 256.193 687.236 255.654 685.977 255.373L685.051 255.168C684.307 255.004 683.996 254.752 683.996 254.295C683.996 253.768 684.482 253.416 685.232 253.416C685.936 253.416 686.434 253.738 686.539 254.26H687.664C687.559 253.152 686.645 252.484 685.25 252.484C683.785 252.484 682.83 253.234 682.83 254.377Z" fill="white"/>
<path d="M473.168 39.2187C473.824 39.2187 474.27 38.8144 474.27 38.2051C474.27 37.5957 473.824 37.1914 473.168 37.1914C472.512 37.1914 472.072 37.5957 472.072 38.2051C472.072 38.8144 472.512 39.2187 473.168 39.2187ZM475.928 47V45.7227H473.977V40.5371H470.449V41.8203H472.418V45.7227H470.344V47H475.928ZM477.615 47H479.215V43.2676C479.215 42.3711 479.748 41.8027 480.568 41.8027C481.383 41.8027 481.764 42.2539 481.764 43.2031V47H483.369V42.8223C483.369 41.2461 482.619 40.4023 481.213 40.4023C480.281 40.4023 479.584 40.8418 479.268 41.6211H479.168V40.5371H477.615V47ZM486.803 47H488.408V41.8848H490.98V40.6016H488.373V40.0391C488.373 39.5586 488.684 39.3125 489.287 39.3125C489.439 39.3125 490.857 39.3184 490.98 39.3301V38.1523C490.887 38.1406 489.398 38.1289 489.24 38.1289C487.494 38.1289 486.803 38.6797 486.803 40.1445V40.6016H485.08V41.8848H486.803V47ZM495.205 44.1348C495.205 42.7461 495.949 42.0547 497.473 42.0547C497.836 42.0547 498.258 42.1309 498.551 42.2422V40.5019C498.322 40.4141 497.994 40.3672 497.631 40.3672C496.412 40.3672 495.75 40.9121 495.469 42.1953H495.217V40.5371H492.322V41.7207H493.67V45.8223H492.439V47H497.08V45.8223H495.205V44.1348ZM501.873 47.1055C502.717 47.1055 503.396 46.748 503.713 46.1387H503.854V47H505.377V42.6172C505.377 41.2051 504.445 40.4141 502.787 40.4141C501.252 40.4141 500.191 41.1699 500.074 42.3418H501.633C501.768 41.9375 502.184 41.6914 502.74 41.6914C503.402 41.6914 503.789 42.0195 503.789 42.582V43.0977L502.277 43.1914C500.684 43.3027 499.834 43.9883 499.834 45.1543C499.834 46.3203 500.654 47.1055 501.873 47.1055ZM502.424 45.8223C501.803 45.8223 501.416 45.5176 501.416 45.0371C501.416 44.5391 501.797 44.2519 502.547 44.2051L503.789 44.1289V44.5977C503.789 45.3184 503.221 45.8223 502.424 45.8223ZM520.506 42.793C520.354 41.2109 519.381 40.3789 517.711 40.3789C515.807 40.3789 514.752 41.457 514.752 43.4199V44.0996C514.752 46.0625 515.807 47.1406 517.711 47.1406C519.381 47.1406 520.365 46.3203 520.506 44.7793H518.936C518.824 45.4707 518.402 45.8047 517.699 45.8047C516.838 45.8047 516.363 45.1602 516.363 43.9766V43.543C516.363 42.3594 516.838 41.7148 517.699 41.7148C518.396 41.7148 518.83 42.0664 518.936 42.793H520.506ZM525 47.1406C526.822 47.1406 527.971 46.0332 527.971 44.2695V43.2734C527.971 41.5098 526.822 40.4023 525 40.4023C523.178 40.4023 522.029 41.5098 522.029 43.2734V44.2695C522.029 46.0332 523.178 47.1406 525 47.1406ZM525 41.7148C525.861 41.7148 526.395 42.3359 526.395 43.3379V44.2051C526.395 45.2012 525.861 45.8281 525 45.8281C524.139 45.8281 523.605 45.2012 523.605 44.2051V43.3379C523.605 42.3359 524.139 41.7148 525 41.7148ZM529.541 47H531.141V43.2676C531.141 42.3711 531.674 41.8027 532.494 41.8027C533.309 41.8027 533.689 42.2539 533.689 43.2031V47H535.295V42.8223C535.295 41.2461 534.545 40.4023 533.139 40.4023C532.207 40.4023 531.51 40.8418 531.193 41.6211H531.094V40.5371H529.541V47ZM536.959 47H538.559V43.2676C538.559 42.3711 539.092 41.8027 539.912 41.8027C540.727 41.8027 541.107 42.2539 541.107 43.2031V47H542.713V42.8223C542.713 41.2461 541.963 40.4023 540.557 40.4023C539.625 40.4023 538.928 40.8418 538.611 41.6211H538.512V40.5371H536.959V47ZM548.654 45.1836C548.537 45.6055 548.027 45.8984 547.383 45.8984C546.545 45.8984 546 45.3477 546 44.5039V44.1523H550.166V43.2617C550.166 41.5273 549.07 40.4023 547.359 40.4023C545.602 40.4023 544.43 41.5215 544.43 43.2148V44.2519C544.43 46.0859 545.508 47.1406 547.389 47.1406C548.889 47.1406 550.031 46.3262 550.166 45.1836H548.654ZM547.33 41.6445C548.139 41.6445 548.619 42.2012 548.619 43.1269H546C546 42.2012 546.498 41.6445 547.33 41.6445ZM557.596 42.793C557.443 41.2109 556.471 40.3789 554.801 40.3789C552.896 40.3789 551.842 41.457 551.842 43.4199V44.0996C551.842 46.0625 552.896 47.1406 554.801 47.1406C556.471 47.1406 557.455 46.3203 557.596 44.7793H556.025C555.914 45.4707 555.492 45.8047 554.789 45.8047C553.928 45.8047 553.453 45.1602 553.453 43.9766V43.543C553.453 42.3594 553.928 41.7148 554.789 41.7148C555.486 41.7148 555.92 42.0664 556.025 42.793H557.596ZM560.754 38.6914V40.6016H559.072V41.8848H560.754V44.9551C560.754 46.4551 561.428 47.0117 563.186 47.0117C563.314 47.0117 564.592 47 564.656 46.9883V45.7227C564.586 45.7285 563.467 45.7344 563.314 45.7344C562.699 45.7344 562.354 45.459 562.354 44.9727V41.8848H564.732V40.6016H562.324V38.6914H560.754ZM569.508 47.1406C571.33 47.1406 572.479 46.0332 572.479 44.2695V43.2734C572.479 41.5098 571.33 40.4023 569.508 40.4023C567.686 40.4023 566.537 41.5098 566.537 43.2734V44.2695C566.537 46.0332 567.686 47.1406 569.508 47.1406ZM569.508 41.7148C570.369 41.7148 570.902 42.3359 570.902 43.3379V44.2051C570.902 45.2012 570.369 45.8281 569.508 45.8281C568.646 45.8281 568.113 45.2012 568.113 44.2051V43.3379C568.113 42.3359 568.646 41.7148 569.508 41.7148ZM576.803 44.1348C576.803 42.7461 577.547 42.0547 579.07 42.0547C579.434 42.0547 579.855 42.1309 580.148 42.2422V40.5019C579.92 40.4141 579.592 40.3672 579.229 40.3672C578.01 40.3672 577.348 40.9121 577.066 42.1953H576.814V40.5371H573.92V41.7207H575.268V45.8223H574.037V47H578.678V45.8223H576.803V44.1348Z" fill="white"/>
<path d="M83.2949 39.2187C83.9512 39.2187 84.3965 38.8144 84.3965 38.2051C84.3965 37.5957 83.9512 37.1914 83.2949 37.1914C82.6387 37.1914 82.1992 37.5957 82.1992 38.2051C82.1992 38.8144 82.6387 39.2187 83.2949 39.2187ZM86.0547 47V45.7227H84.1035V40.5371H80.5762V41.8203H82.5449V45.7227H80.4707V47H86.0547ZM87.7422 47H89.3418V43.2676C89.3418 42.3711 89.875 41.8027 90.6953 41.8027C91.5098 41.8027 91.8906 42.2539 91.8906 43.2031V47H93.4961V42.8223C93.4961 41.2461 92.7461 40.4023 91.3398 40.4023C90.4082 40.4023 89.7109 40.8418 89.3945 41.6211H89.2949V40.5371H87.7422V47ZM96.9297 47H98.5352V41.8848H101.107V40.6016H98.5V40.0391C98.5 39.5586 98.8105 39.3125 99.4141 39.3125C99.5664 39.3125 100.984 39.3184 101.107 39.3301V38.1523C101.014 38.1406 99.5254 38.1289 99.3672 38.1289C97.6211 38.1289 96.9297 38.6797 96.9297 40.1445V40.6016H95.207V41.8848H96.9297V47ZM105.332 44.1348C105.332 42.7461 106.076 42.0547 107.6 42.0547C107.963 42.0547 108.385 42.1309 108.678 42.2422V40.5019C108.449 40.4141 108.121 40.3672 107.758 40.3672C106.539 40.3672 105.877 40.9121 105.596 42.1953H105.344V40.5371H102.449V41.7207H103.797V45.8223H102.566V47H107.207V45.8223H105.332V44.1348ZM112 47.1055C112.844 47.1055 113.523 46.748 113.84 46.1387H113.98V47H115.504V42.6172C115.504 41.2051 114.572 40.4141 112.914 40.4141C111.379 40.4141 110.318 41.1699 110.201 42.3418H111.76C111.895 41.9375 112.311 41.6914 112.867 41.6914C113.529 41.6914 113.916 42.0195 113.916 42.582V43.0977L112.404 43.1914C110.811 43.3027 109.961 43.9883 109.961 45.1543C109.961 46.3203 110.781 47.1055 112 47.1055ZM112.551 45.8223C111.93 45.8223 111.543 45.5176 111.543 45.0371C111.543 44.5391 111.924 44.2519 112.674 44.2051L113.916 44.1289V44.5977C113.916 45.3184 113.348 45.8223 112.551 45.8223ZM125.096 42.4238C125.096 43.4199 125.711 44.0527 126.924 44.3164L127.891 44.5215C128.57 44.668 128.816 44.8437 128.816 45.207C128.816 45.6289 128.395 45.9043 127.738 45.9043C127.07 45.9043 126.637 45.6582 126.537 45.2129H124.955C125.043 46.4258 126.062 47.1348 127.715 47.1348C129.396 47.1348 130.463 46.3086 130.463 45.0019C130.463 44.0176 129.883 43.4609 128.576 43.1914L127.574 42.9863C126.947 42.8574 126.678 42.6465 126.678 42.2949C126.678 41.8848 127.082 41.6094 127.691 41.6094C128.289 41.6094 128.711 41.873 128.787 42.3008H130.299C130.223 41.0879 129.268 40.3848 127.703 40.3848C126.104 40.3848 125.096 41.1699 125.096 42.4238ZM136.527 45.1836C136.41 45.6055 135.9 45.8984 135.256 45.8984C134.418 45.8984 133.873 45.3477 133.873 44.5039V44.1523H138.039V43.2617C138.039 41.5273 136.943 40.4023 135.232 40.4023C133.475 40.4023 132.303 41.5215 132.303 43.2148V44.2519C132.303 46.0859 133.381 47.1406 135.262 47.1406C136.762 47.1406 137.904 46.3262 138.039 45.1836H136.527ZM135.203 41.6445C136.012 41.6445 136.492 42.2012 136.492 43.1269H133.873C133.873 42.2012 134.371 41.6445 135.203 41.6445ZM142.422 44.1348C142.422 42.7461 143.166 42.0547 144.689 42.0547C145.053 42.0547 145.475 42.1309 145.768 42.2422V40.5019C145.539 40.4141 145.211 40.3672 144.848 40.3672C143.629 40.3672 142.967 40.9121 142.686 42.1953H142.434V40.5371H139.539V41.7207H140.887V45.8223H139.656V47H144.297V45.8223H142.422V44.1348ZM146.805 40.5371L149.055 47H150.883L153.121 40.5371H151.428L150.033 45.4355H149.939L148.527 40.5371H146.805ZM158.781 45.1836C158.664 45.6055 158.154 45.8984 157.51 45.8984C156.672 45.8984 156.127 45.3477 156.127 44.5039V44.1523H160.293V43.2617C160.293 41.5273 159.197 40.4023 157.486 40.4023C155.729 40.4023 154.557 41.5215 154.557 43.2148V44.2519C154.557 46.0859 155.635 47.1406 157.516 47.1406C159.016 47.1406 160.158 46.3262 160.293 45.1836H158.781ZM157.457 41.6445C158.266 41.6445 158.746 42.2012 158.746 43.1269H156.127C156.127 42.2012 156.625 41.6445 157.457 41.6445ZM164.676 44.1348C164.676 42.7461 165.42 42.0547 166.943 42.0547C167.307 42.0547 167.729 42.1309 168.021 42.2422V40.5019C167.793 40.4141 167.465 40.3672 167.102 40.3672C165.883 40.3672 165.221 40.9121 164.939 42.1953H164.688V40.5371H161.793V41.7207H163.141V45.8223H161.91V47H166.551V45.8223H164.676V44.1348Z" fill="white"/>
<path d="M529.5 326V326.5H530V326H529.5ZM529.854 174.146C529.658 173.951 529.342 173.951 529.146 174.146L525.964 177.328C525.769 177.524 525.769 177.84 525.964 178.036C526.16 178.231 526.476 178.231 526.672 178.036L529.5 175.207L532.328 178.036C532.524 178.231 532.84 178.231 533.036 178.036C533.231 177.84 533.231 177.524 533.036 177.328L529.854 174.146ZM471.5 326.5H529.5V325.5H471.5V326.5ZM530 326V174.5H529V326H530Z" fill="white"/>
<path d="M251.178 105.67C251.02 104.287 250.053 103.484 248.564 103.484C246.789 103.484 245.764 104.545 245.764 106.408V107.193C245.764 109.057 246.789 110.123 248.564 110.123C250.053 110.123 251.02 109.32 251.178 107.961H250.018C249.9 108.682 249.338 109.109 248.553 109.109C247.516 109.109 246.941 108.383 246.941 107.07V106.531C246.941 105.219 247.516 104.492 248.553 104.492C249.332 104.492 249.906 104.932 250.018 105.67H251.178ZM255.865 110.123C257.588 110.123 258.684 109.022 258.684 107.293V106.326C258.684 104.592 257.588 103.496 255.865 103.496C254.143 103.496 253.047 104.592 253.047 106.326V107.293C253.047 109.022 254.143 110.123 255.865 110.123ZM255.865 104.492C256.885 104.492 257.523 105.225 257.523 106.408V107.211C257.523 108.395 256.885 109.127 255.865 109.127C254.846 109.127 254.207 108.395 254.207 107.211V106.408C254.207 105.225 254.846 104.492 255.865 104.492ZM260.6 110H261.771V106.256C261.771 105.225 262.428 104.539 263.406 104.539C264.35 104.539 264.789 105.055 264.789 106.15V110H265.967V105.857C265.967 104.322 265.217 103.49 263.828 103.49C262.873 103.49 262.152 103.936 261.818 104.727H261.736V103.613H260.6V110ZM268.018 110H269.189V106.256C269.189 105.225 269.846 104.539 270.824 104.539C271.768 104.539 272.207 105.055 272.207 106.15V110H273.385V105.857C273.385 104.322 272.635 103.49 271.246 103.49C270.291 103.49 269.57 103.936 269.236 104.727H269.154V103.613H268.018V110ZM279.742 108.313C279.584 108.834 279.016 109.156 278.26 109.156C277.252 109.156 276.602 108.465 276.602 107.387V107.1H280.885V106.408C280.885 104.592 279.871 103.49 278.201 103.49C276.543 103.49 275.447 104.598 275.447 106.279V107.252C275.447 109.068 276.473 110.123 278.266 110.123C279.643 110.123 280.697 109.385 280.867 108.313H279.742ZM278.189 104.451C279.156 104.451 279.73 105.137 279.73 106.273H276.602C276.602 105.131 277.199 104.451 278.189 104.451ZM288.268 105.67C288.109 104.287 287.143 103.484 285.654 103.484C283.879 103.484 282.854 104.545 282.854 106.408V107.193C282.854 109.057 283.879 110.123 285.654 110.123C287.143 110.123 288.109 109.32 288.268 107.961H287.107C286.99 108.682 286.428 109.109 285.643 109.109C284.605 109.109 284.031 108.383 284.031 107.07V106.531C284.031 105.219 284.605 104.492 285.643 104.492C286.422 104.492 286.996 104.932 287.107 105.67H288.268ZM291.795 101.867V103.648H290.107V104.615H291.795V108.066C291.795 109.438 292.51 110.023 294.145 110.023C294.391 110.023 295.316 110 295.445 109.977V109.016C295.305 109.033 294.525 109.045 294.227 109.045C293.412 109.045 292.973 108.699 292.973 108.066V104.615H295.48V103.648H292.955V101.867H291.795ZM300.373 110.123C302.096 110.123 303.191 109.022 303.191 107.293V106.326C303.191 104.592 302.096 103.496 300.373 103.496C298.65 103.496 297.555 104.592 297.555 106.326V107.293C297.555 109.022 298.65 110.123 300.373 110.123ZM300.373 104.492C301.393 104.492 302.031 105.225 302.031 106.408V107.211C302.031 108.395 301.393 109.127 300.373 109.127C299.354 109.127 298.715 108.395 298.715 107.211V106.408C298.715 105.225 299.354 104.492 300.373 104.492ZM307.58 107.152C307.58 105.588 308.383 104.691 309.824 104.691C310.176 104.691 310.592 104.768 310.879 104.873V103.584C310.668 103.496 310.322 103.449 309.959 103.449C308.734 103.449 307.99 104.041 307.738 105.242H307.574V103.613H305.049V104.516H306.438V109.098H305.172V110H309.52V109.098H307.58V107.152ZM319.668 103.613L321.977 110H323.283L325.586 103.613H324.338L322.68 108.799H322.598L320.928 103.613H319.668ZM331.668 108.313C331.51 108.834 330.941 109.156 330.186 109.156C329.178 109.156 328.527 108.465 328.527 107.387V107.1H332.811V106.408C332.811 104.592 331.797 103.49 330.127 103.49C328.469 103.49 327.373 104.598 327.373 106.279V107.252C327.373 109.068 328.398 110.123 330.191 110.123C331.568 110.123 332.623 109.385 332.793 108.313H331.668ZM330.115 104.451C331.082 104.451 331.656 105.137 331.656 106.273H328.527C328.527 105.131 329.125 104.451 330.115 104.451ZM337.252 107.152C337.252 105.588 338.055 104.691 339.496 104.691C339.848 104.691 340.264 104.768 340.551 104.873V103.584C340.34 103.496 339.994 103.449 339.631 103.449C338.406 103.449 337.662 104.041 337.41 105.242H337.246V103.613H334.721V104.516H336.109V109.098H334.844V110H339.191V109.098H337.252V107.152ZM344.986 102.119C345.514 102.119 345.895 101.756 345.895 101.252C345.895 100.742 345.514 100.379 344.986 100.379C344.465 100.379 344.078 100.742 344.078 101.252C344.078 101.756 344.465 102.119 344.986 102.119ZM347.682 110V109.051H345.619V103.613H342.367V104.563H344.471V109.051H342.32V110H347.682ZM351.314 110H352.486V104.615H355.217V103.648H352.469V103.01C352.469 102.418 352.891 102.107 353.693 102.107C353.986 102.107 354.982 102.131 355.217 102.154V101.246C355.041 101.217 353.975 101.193 353.67 101.193C352.053 101.193 351.314 101.762 351.314 103.051V103.648H349.604V104.615H351.314V110ZM359.822 102.119C360.35 102.119 360.73 101.756 360.73 101.252C360.73 100.742 360.35 100.379 359.822 100.379C359.301 100.379 358.914 100.742 358.914 101.252C358.914 101.756 359.301 102.119 359.822 102.119ZM362.518 110V109.051H360.455V103.613H357.203V104.563H359.307V109.051H357.156V110H362.518ZM368.758 108.313C368.6 108.834 368.031 109.156 367.275 109.156C366.268 109.156 365.617 108.465 365.617 107.387V107.1H369.9V106.408C369.9 104.592 368.887 103.49 367.217 103.49C365.559 103.49 364.463 104.598 364.463 106.279V107.252C364.463 109.068 365.488 110.123 367.281 110.123C368.658 110.123 369.713 109.385 369.883 108.313H368.758ZM367.205 104.451C368.172 104.451 368.746 105.137 368.746 106.273H365.617C365.617 105.131 366.215 104.451 367.205 104.451ZM372.15 105.377C372.15 106.309 372.73 106.895 373.896 107.158L374.852 107.375C375.625 107.551 375.912 107.791 375.912 108.26C375.912 108.816 375.396 109.174 374.594 109.174C373.82 109.174 373.293 108.863 373.164 108.318H371.98C372.086 109.443 373.059 110.117 374.564 110.117C376.123 110.117 377.125 109.344 377.125 108.131C377.125 107.193 376.557 106.654 375.297 106.373L374.371 106.168C373.627 106.004 373.316 105.752 373.316 105.295C373.316 104.768 373.803 104.416 374.553 104.416C375.256 104.416 375.754 104.738 375.859 105.26H376.984C376.879 104.152 375.965 103.484 374.57 103.484C373.105 103.484 372.15 104.234 372.15 105.377ZM279.426 119.377C279.426 120.309 280.006 120.895 281.172 121.158L282.127 121.375C282.9 121.551 283.188 121.791 283.188 122.26C283.188 122.816 282.672 123.174 281.869 123.174C281.096 123.174 280.568 122.863 280.439 122.318H279.256C279.361 123.443 280.334 124.117 281.84 124.117C283.398 124.117 284.4 123.344 284.4 122.131C284.4 121.193 283.832 120.654 282.572 120.373L281.646 120.168C280.902 120.004 280.592 119.752 280.592 119.295C280.592 118.768 281.078 118.416 281.828 118.416C282.531 118.416 283.029 118.738 283.135 119.26H284.26C284.154 118.152 283.24 117.484 281.846 117.484C280.381 117.484 279.426 118.234 279.426 119.377ZM289.352 116.119C289.879 116.119 290.26 115.756 290.26 115.252C290.26 114.742 289.879 114.379 289.352 114.379C288.83 114.379 288.443 114.742 288.443 115.252C288.443 115.756 288.83 116.119 289.352 116.119ZM292.047 124V123.051H289.984V117.613H286.732V118.563H288.836V123.051H286.686V124H292.047ZM296.482 126.397C298.252 126.397 299.312 125.494 299.312 123.994V117.613H298.152V118.627H298.041C297.783 117.93 297.08 117.508 296.154 117.508C294.648 117.508 293.693 118.557 293.693 120.227V121.316C293.693 122.981 294.643 124.035 296.113 124.035C297.051 124.035 297.771 123.607 298.023 122.922H298.135V123.988C298.135 124.949 297.555 125.477 296.5 125.477C295.691 125.477 295.088 125.154 294.965 124.656H293.805C293.928 125.734 294.947 126.397 296.482 126.397ZM294.889 121.205V120.32C294.889 119.231 295.521 118.527 296.512 118.527C297.496 118.527 298.135 119.225 298.135 120.32V121.205C298.135 122.295 297.496 122.998 296.512 122.998C295.521 122.998 294.889 122.295 294.889 121.205ZM301.398 124H302.57V120.256C302.57 119.225 303.227 118.539 304.205 118.539C305.148 118.539 305.588 119.055 305.588 120.15V124H306.766V119.857C306.766 118.322 306.016 117.49 304.627 117.49C303.672 117.49 302.951 117.936 302.617 118.727H302.535V117.613H301.398V124ZM310.791 124.106C311.693 124.106 312.379 123.731 312.684 123.074H312.795V124.006H313.914V119.641C313.914 118.299 313.035 117.525 311.494 117.525C310.123 117.525 309.121 118.24 309.004 119.295H310.152C310.305 118.791 310.791 118.498 311.471 118.498C312.291 118.498 312.748 118.908 312.748 119.641V120.203L311.072 120.291C309.584 120.379 308.764 121.047 308.764 122.184C308.764 123.338 309.572 124.106 310.791 124.106ZM311.154 123.127C310.404 123.127 309.936 122.746 309.936 122.131C309.936 121.51 310.381 121.158 311.23 121.111L312.748 121.035V121.709C312.748 122.523 312.068 123.127 311.154 123.127ZM317.758 115.867V117.648H316.07V118.615H317.758V122.066C317.758 123.438 318.473 124.023 320.107 124.023C320.354 124.023 321.279 124 321.408 123.977V123.016C321.268 123.033 320.488 123.045 320.189 123.045C319.375 123.045 318.936 122.699 318.936 122.066V118.615H321.443V117.648H318.918V115.867H317.758ZM329.02 117.613H327.848V121.357C327.848 122.389 327.191 123.074 326.213 123.074C325.27 123.074 324.83 122.559 324.83 121.469V117.613H323.652V121.756C323.652 123.291 324.402 124.123 325.791 124.123C326.746 124.123 327.467 123.678 327.801 122.893H327.883V124H329.02V117.613ZM333.543 121.152C333.543 119.588 334.346 118.691 335.787 118.691C336.139 118.691 336.555 118.768 336.842 118.873V117.584C336.631 117.496 336.285 117.449 335.922 117.449C334.697 117.449 333.953 118.041 333.701 119.242H333.537V117.613H331.012V118.516H332.4V123.098H331.135V124H335.482V123.098H333.543V121.152ZM342.795 122.313C342.637 122.834 342.068 123.156 341.312 123.156C340.305 123.156 339.654 122.465 339.654 121.387V121.1H343.938V120.408C343.938 118.592 342.924 117.49 341.254 117.49C339.596 117.49 338.5 118.598 338.5 120.279V121.252C338.5 123.068 339.525 124.123 341.318 124.123C342.695 124.123 343.75 123.385 343.92 122.313H342.795ZM341.242 118.451C342.209 118.451 342.783 119.137 342.783 120.273H339.654C339.654 119.131 340.252 118.451 341.242 118.451Z" fill="white"/>
<path d="M317.426 380.109C316.793 380.109 316.281 379.905 315.888 379.498C315.502 379.084 315.31 378.542 315.31 377.873V373.455H316.401V377.655C316.401 378.135 316.506 378.491 316.717 378.724C316.928 378.956 317.251 379.073 317.688 379.073C318.03 379.073 318.361 378.982 318.681 378.8C319.008 378.611 319.339 378.32 319.673 377.927V373.455H320.764V380H319.673V378.909H319.346C319.193 379.265 318.939 379.556 318.582 379.782C318.233 380 317.848 380.109 317.426 380.109ZM325.765 380.109C325.212 380.109 324.678 380.029 324.161 379.869C323.645 379.702 323.168 379.447 322.732 379.105L323.223 378.244C323.579 378.535 323.976 378.756 324.412 378.909C324.856 379.055 325.307 379.127 325.765 379.127C326.143 379.127 326.503 379.069 326.845 378.953C327.194 378.836 327.368 378.589 327.368 378.211C327.368 377.898 327.227 377.676 326.943 377.545C326.659 377.415 326.139 377.302 325.383 377.207C324.583 377.113 323.976 376.927 323.561 376.651C323.154 376.367 322.95 375.924 322.95 375.32C322.95 374.665 323.198 374.175 323.692 373.847C324.187 373.513 324.761 373.345 325.416 373.345C325.932 373.345 326.427 373.433 326.899 373.607C327.379 373.782 327.823 374.029 328.23 374.349L327.739 375.211C327.405 374.942 327.041 374.727 326.648 374.567C326.256 374.407 325.845 374.327 325.416 374.327C325.067 374.327 324.747 374.393 324.456 374.524C324.172 374.655 324.03 374.895 324.03 375.244C324.03 375.542 324.161 375.76 324.423 375.898C324.692 376.029 325.205 376.142 325.961 376.236C326.79 376.331 327.412 376.535 327.827 376.847C328.241 377.153 328.448 377.582 328.448 378.135C328.448 378.818 328.172 379.32 327.619 379.64C327.067 379.953 326.448 380.109 325.765 380.109ZM336.067 378.56C335.871 379.105 335.573 379.502 335.173 379.749C334.773 379.989 334.158 380.109 333.329 380.109C332.464 380.109 331.791 379.902 331.311 379.487C330.831 379.065 330.591 378.444 330.591 377.622V375.865C330.591 375.022 330.842 374.393 331.344 373.978C331.853 373.556 332.515 373.345 333.329 373.345C334.151 373.345 334.809 373.56 335.304 373.989C335.798 374.411 336.045 375.062 336.045 375.942V376.945H331.682V377.633C331.682 378.178 331.816 378.575 332.085 378.822C332.362 379.062 332.773 379.182 333.318 379.182C333.842 379.182 334.224 379.109 334.464 378.964C334.704 378.818 334.885 378.582 335.009 378.255L336.067 378.56ZM331.682 375.865V376.127H334.955V375.964C334.955 375.375 334.816 374.945 334.54 374.676C334.271 374.407 333.864 374.273 333.318 374.273C332.773 374.273 332.362 374.404 332.085 374.665C331.816 374.92 331.682 375.32 331.682 375.865ZM338.777 380V373.455H339.868V374.545H340.195C340.348 374.131 340.581 373.829 340.893 373.64C341.206 373.444 341.584 373.345 342.028 373.345C342.515 373.345 342.922 373.509 343.25 373.836C343.577 374.156 343.741 374.611 343.741 375.2V376.182H342.704V375.593C342.704 375.178 342.61 374.873 342.421 374.676C342.239 374.48 341.959 374.382 341.581 374.382C341.239 374.382 340.926 374.465 340.642 374.633C340.366 374.8 340.108 375.062 339.868 375.418V380H338.777Z" fill="white"/>
<path opacity="0.3" d="M466 290.5H193C191.619 290.5 190.5 291.619 190.5 293V352C190.5 353.381 191.619 354.5 193 354.5H466C467.381 354.5 468.5 353.381 468.5 352V293C468.5 291.619 467.381 290.5 466 290.5Z" stroke="white"/>
<path d="M268.59 327.132C267.926 327.092 267.374 326.94 266.934 326.676C266.494 326.404 266.13 326.068 265.842 325.668L266.574 325.068C266.862 325.428 267.166 325.708 267.486 325.908C267.806 326.108 268.178 326.228 268.602 326.268V323.136L268.326 323.088C267.91 323.016 267.562 322.908 267.282 322.764C267.002 322.612 266.778 322.436 266.61 322.236C266.442 322.028 266.322 321.8 266.25 321.552C266.178 321.296 266.142 321.032 266.142 320.76C266.142 320.08 266.358 319.548 266.79 319.164C267.23 318.772 267.83 318.548 268.59 318.492V317.268H269.334V318.492C269.886 318.532 270.362 318.668 270.762 318.9C271.17 319.124 271.526 319.44 271.83 319.848L271.074 320.388C270.858 320.1 270.61 319.868 270.33 319.692C270.058 319.516 269.722 319.408 269.322 319.368V322.308L269.682 322.368C270.09 322.44 270.434 322.548 270.714 322.692C270.994 322.836 271.218 323.012 271.386 323.22C271.562 323.42 271.686 323.648 271.758 323.904C271.83 324.16 271.866 324.428 271.866 324.708C271.866 325.412 271.646 325.976 271.206 326.4C270.774 326.824 270.15 327.068 269.334 327.132V328.356H268.59V327.132ZM267.114 320.76C267.114 321.152 267.226 321.46 267.45 321.684C267.682 321.908 268.066 322.076 268.602 322.188V319.356C268.122 319.404 267.754 319.548 267.498 319.788C267.242 320.02 267.114 320.344 267.114 320.76ZM270.894 324.72C270.894 324.288 270.77 323.96 270.522 323.736C270.282 323.512 269.882 323.352 269.322 323.256V326.256C269.826 326.2 270.214 326.04 270.486 325.776C270.758 325.512 270.894 325.16 270.894 324.72ZM280.893 318.12H281.853V323.724H281.901L282.981 322.704L285.045 320.808H286.221L283.653 323.232L286.521 327H285.333L282.921 323.784L281.853 324.756V327H280.893V318.12ZM291.892 325.992H291.844C291.78 326.144 291.7 326.292 291.604 326.436C291.508 326.572 291.388 326.692 291.244 326.796C291.108 326.9 290.944 326.984 290.752 327.048C290.56 327.112 290.336 327.144 290.08 327.144C289.432 327.144 288.912 326.94 288.52 326.532C288.128 326.116 287.932 325.532 287.932 324.78V320.808H288.892V324.612C288.892 325.18 289.016 325.604 289.264 325.884C289.512 326.156 289.876 326.292 290.356 326.292C290.548 326.292 290.736 326.268 290.92 326.22C291.104 326.172 291.268 326.1 291.412 326.004C291.556 325.908 291.672 325.788 291.76 325.644C291.848 325.492 291.892 325.312 291.892 325.104V320.808H292.852V327H291.892V325.992ZM295.163 318.12H296.123V321.816H296.171C296.571 321.048 297.207 320.664 298.079 320.664C298.839 320.664 299.431 320.948 299.855 321.516C300.287 322.084 300.503 322.88 300.503 323.904C300.503 324.928 300.287 325.724 299.855 326.292C299.431 326.86 298.839 327.144 298.079 327.144C297.207 327.144 296.571 326.76 296.171 325.992H296.123V327H295.163V318.12ZM297.707 326.292C298.267 326.292 298.699 326.124 299.003 325.788C299.315 325.444 299.471 324.992 299.471 324.432V323.376C299.471 322.816 299.315 322.368 299.003 322.032C298.699 321.688 298.267 321.516 297.707 321.516C297.491 321.516 297.287 321.544 297.095 321.6C296.903 321.656 296.735 321.74 296.591 321.852C296.447 321.956 296.331 322.088 296.243 322.248C296.163 322.4 296.123 322.58 296.123 322.788V325.02C296.123 325.228 296.163 325.412 296.243 325.572C296.331 325.724 296.447 325.856 296.591 325.968C296.735 326.072 296.903 326.152 297.095 326.208C297.287 326.264 297.491 326.292 297.707 326.292ZM304.927 327.144C304.479 327.144 304.075 327.068 303.715 326.916C303.363 326.764 303.059 326.548 302.803 326.268C302.555 325.98 302.363 325.64 302.227 325.248C302.091 324.848 302.023 324.404 302.023 323.916C302.023 323.42 302.091 322.972 302.227 322.572C302.371 322.172 302.567 321.832 302.815 321.552C303.063 321.264 303.359 321.044 303.703 320.892C304.055 320.74 304.443 320.664 304.867 320.664C305.283 320.664 305.659 320.74 305.995 320.892C306.339 321.044 306.631 321.256 306.871 321.528C307.111 321.792 307.295 322.108 307.423 322.476C307.551 322.844 307.615 323.248 307.615 323.688V324.144H303.031V324.432C303.031 324.704 303.075 324.956 303.163 325.188C303.251 325.42 303.375 325.62 303.535 325.788C303.703 325.956 303.903 326.088 304.135 326.184C304.375 326.272 304.639 326.316 304.927 326.316C305.343 326.316 305.703 326.22 306.007 326.028C306.311 325.836 306.543 325.572 306.703 325.236L307.411 325.716C307.227 326.132 306.919 326.476 306.487 326.748C306.063 327.012 305.543 327.144 304.927 327.144ZM304.867 321.456C304.603 321.456 304.359 321.504 304.135 321.6C303.911 321.696 303.715 321.828 303.547 321.996C303.387 322.164 303.259 322.364 303.163 322.596C303.075 322.82 303.031 323.068 303.031 323.34V323.424H306.583V323.292C306.583 323.02 306.539 322.772 306.451 322.548C306.371 322.324 306.255 322.132 306.103 321.972C305.959 321.804 305.779 321.676 305.563 321.588C305.355 321.5 305.123 321.456 304.867 321.456ZM312.23 327.144C311.782 327.144 311.382 327.068 311.03 326.916C310.686 326.756 310.394 326.536 310.154 326.256C309.914 325.976 309.73 325.636 309.602 325.236C309.482 324.836 309.422 324.392 309.422 323.904C309.422 323.416 309.486 322.972 309.614 322.572C309.742 322.172 309.926 321.832 310.166 321.552C310.406 321.264 310.698 321.044 311.042 320.892C311.386 320.74 311.778 320.664 312.218 320.664C312.818 320.664 313.306 320.796 313.682 321.06C314.058 321.324 314.334 321.668 314.51 322.092L313.742 322.5C313.63 322.18 313.442 321.932 313.178 321.756C312.922 321.58 312.602 321.492 312.218 321.492C311.938 321.492 311.686 321.54 311.462 321.636C311.246 321.724 311.062 321.852 310.91 322.02C310.758 322.188 310.642 322.388 310.562 322.62C310.49 322.852 310.454 323.104 310.454 323.376V324.432C310.454 324.704 310.49 324.956 310.562 325.188C310.642 325.42 310.758 325.62 310.91 325.788C311.062 325.956 311.25 326.088 311.474 326.184C311.698 326.272 311.954 326.316 312.242 326.316C312.658 326.316 313.002 326.22 313.274 326.028C313.546 325.836 313.762 325.572 313.922 325.236L314.606 325.704C314.422 326.12 314.134 326.464 313.742 326.736C313.358 327.008 312.854 327.144 312.23 327.144ZM319.509 327C319.037 327 318.689 326.868 318.465 326.604C318.249 326.34 318.141 326 318.141 325.584V321.624H316.077V320.808H317.613C317.821 320.808 317.965 320.768 318.045 320.688C318.133 320.6 318.177 320.452 318.177 320.244V318.624H319.101V320.808H321.921V321.624H319.101V326.184H321.921V327H319.509ZM323.765 326.184H325.925V318.936H323.765V318.12H326.885V326.184H329.045V327H323.765V326.184ZM343.927 327.708C343.927 328.332 343.667 328.792 343.147 329.088C342.627 329.392 341.847 329.544 340.807 329.544C339.807 329.544 339.087 329.412 338.647 329.148C338.215 328.884 337.999 328.504 337.999 328.008C337.999 327.672 338.087 327.412 338.263 327.228C338.439 327.044 338.687 326.908 339.007 326.82V326.676C338.831 326.588 338.695 326.476 338.599 326.34C338.503 326.204 338.455 326.032 338.455 325.824C338.455 325.504 338.559 325.264 338.767 325.104C338.983 324.944 339.251 324.824 339.571 324.744V324.696C339.187 324.528 338.887 324.28 338.671 323.952C338.463 323.624 338.359 323.24 338.359 322.8C338.359 322.488 338.415 322.2 338.527 321.936C338.639 321.672 338.799 321.448 339.007 321.264C339.223 321.072 339.479 320.924 339.775 320.82C340.071 320.716 340.399 320.664 340.759 320.664C341.223 320.664 341.631 320.748 341.983 320.916V320.808C341.983 320.568 342.039 320.368 342.151 320.208C342.263 320.048 342.455 319.968 342.727 319.968H343.867V320.808H342.475V321.228C342.699 321.42 342.871 321.648 342.991 321.912C343.111 322.176 343.171 322.472 343.171 322.8C343.171 323.112 343.111 323.4 342.991 323.664C342.879 323.928 342.719 324.156 342.511 324.348C342.303 324.532 342.047 324.676 341.743 324.78C341.447 324.884 341.119 324.936 340.759 324.936C340.655 324.936 340.555 324.932 340.459 324.924C340.363 324.916 340.267 324.904 340.171 324.888C340.075 324.904 339.975 324.932 339.871 324.972C339.767 325.004 339.671 325.052 339.583 325.116C339.495 325.172 339.423 325.24 339.367 325.32C339.311 325.4 339.283 325.492 339.283 325.596C339.283 325.78 339.375 325.904 339.559 325.968C339.743 326.024 339.983 326.052 340.279 326.052H341.647C342.447 326.052 343.027 326.204 343.387 326.508C343.747 326.804 343.927 327.204 343.927 327.708ZM343.027 327.756C343.027 327.508 342.927 327.308 342.727 327.156C342.527 327.012 342.179 326.94 341.683 326.94H339.535C339.119 327.108 338.911 327.388 338.911 327.78C338.911 328.052 339.019 328.284 339.235 328.476C339.451 328.676 339.811 328.776 340.315 328.776H341.251C341.811 328.776 342.247 328.688 342.559 328.512C342.871 328.344 343.027 328.092 343.027 327.756ZM340.759 324.192C341.239 324.192 341.591 324.08 341.815 323.856C342.047 323.632 342.163 323.336 342.163 322.968V322.62C342.163 322.252 342.047 321.96 341.815 321.744C341.591 321.52 341.239 321.408 340.759 321.408C340.279 321.408 339.927 321.52 339.703 321.744C339.479 321.96 339.367 322.252 339.367 322.62V322.968C339.367 323.336 339.479 323.632 339.703 323.856C339.927 324.08 340.279 324.192 340.759 324.192ZM348.099 327.144C347.651 327.144 347.247 327.068 346.887 326.916C346.535 326.764 346.231 326.548 345.975 326.268C345.727 325.98 345.535 325.64 345.399 325.248C345.263 324.848 345.195 324.404 345.195 323.916C345.195 323.42 345.263 322.972 345.399 322.572C345.543 322.172 345.739 321.832 345.987 321.552C346.235 321.264 346.531 321.044 346.875 320.892C347.227 320.74 347.615 320.664 348.039 320.664C348.455 320.664 348.831 320.74 349.167 320.892C349.511 321.044 349.803 321.256 350.043 321.528C350.283 321.792 350.467 322.108 350.595 322.476C350.723 322.844 350.787 323.248 350.787 323.688V324.144H346.203V324.432C346.203 324.704 346.247 324.956 346.335 325.188C346.423 325.42 346.547 325.62 346.707 325.788C346.875 325.956 347.075 326.088 347.307 326.184C347.547 326.272 347.811 326.316 348.099 326.316C348.515 326.316 348.875 326.22 349.179 326.028C349.483 325.836 349.715 325.572 349.875 325.236L350.583 325.716C350.399 326.132 350.091 326.476 349.659 326.748C349.235 327.012 348.715 327.144 348.099 327.144ZM348.039 321.456C347.775 321.456 347.531 321.504 347.307 321.6C347.083 321.696 346.887 321.828 346.719 321.996C346.559 322.164 346.431 322.364 346.335 322.596C346.247 322.82 346.203 323.068 346.203 323.34V323.424H349.755V323.292C349.755 323.02 349.711 322.772 349.623 322.548C349.543 322.324 349.427 322.132 349.275 321.972C349.131 321.804 348.951 321.676 348.735 321.588C348.527 321.5 348.295 321.456 348.039 321.456ZM355.486 327C355.014 327 354.666 326.868 354.442 326.604C354.226 326.34 354.118 326 354.118 325.584V321.624H352.054V320.808H353.59C353.798 320.808 353.942 320.768 354.022 320.688C354.11 320.6 354.154 320.452 354.154 320.244V318.624H355.078V320.808H357.898V321.624H355.078V326.184H357.898V327H355.486ZM367.117 320.808H368.077V321.816H368.125C368.525 321.048 369.161 320.664 370.033 320.664C370.793 320.664 371.385 320.948 371.809 321.516C372.241 322.084 372.457 322.88 372.457 323.904C372.457 324.928 372.241 325.724 371.809 326.292C371.385 326.86 370.793 327.144 370.033 327.144C369.161 327.144 368.525 326.76 368.125 325.992H368.077V329.4H367.117V320.808ZM369.661 326.292C370.221 326.292 370.653 326.124 370.957 325.788C371.269 325.444 371.425 324.992 371.425 324.432V323.376C371.425 322.816 371.269 322.368 370.957 322.032C370.653 321.688 370.221 321.516 369.661 321.516C369.445 321.516 369.241 321.544 369.049 321.6C368.857 321.656 368.689 321.74 368.545 321.852C368.401 321.956 368.285 322.088 368.197 322.248C368.117 322.4 368.077 322.58 368.077 322.788V325.02C368.077 325.228 368.117 325.412 368.197 325.572C368.285 325.724 368.401 325.856 368.545 325.968C368.689 326.072 368.857 326.152 369.049 326.208C369.241 326.264 369.445 326.292 369.661 326.292ZM376.772 327.144C376.34 327.144 375.948 327.068 375.596 326.916C375.252 326.764 374.956 326.548 374.708 326.268C374.468 325.98 374.284 325.64 374.156 325.248C374.028 324.848 373.964 324.4 373.964 323.904C373.964 323.416 374.028 322.972 374.156 322.572C374.284 322.172 374.468 321.832 374.708 321.552C374.956 321.264 375.252 321.044 375.596 320.892C375.948 320.74 376.34 320.664 376.772 320.664C377.204 320.664 377.592 320.74 377.936 320.892C378.288 321.044 378.584 321.264 378.824 321.552C379.072 321.832 379.26 322.172 379.388 322.572C379.516 322.972 379.58 323.416 379.58 323.904C379.58 324.4 379.516 324.848 379.388 325.248C379.26 325.64 379.072 325.98 378.824 326.268C378.584 326.548 378.288 326.764 377.936 326.916C377.592 327.068 377.204 327.144 376.772 327.144ZM376.772 326.316C377.308 326.316 377.74 326.156 378.068 325.836C378.396 325.516 378.56 325.02 378.56 324.348V323.46C378.56 322.788 378.396 322.292 378.068 321.972C377.74 321.652 377.308 321.492 376.772 321.492C376.236 321.492 375.804 321.652 375.476 321.972C375.148 322.292 374.984 322.788 374.984 323.46V324.348C374.984 325.02 375.148 325.516 375.476 325.836C375.804 326.156 376.236 326.316 376.772 326.316ZM385.467 325.992H385.419C385.019 326.76 384.383 327.144 383.511 327.144C382.751 327.144 382.155 326.86 381.723 326.292C381.299 325.724 381.087 324.928 381.087 323.904C381.087 322.88 381.299 322.084 381.723 321.516C382.155 320.948 382.751 320.664 383.511 320.664C384.383 320.664 385.019 321.048 385.419 321.816H385.467V318.12H386.427V327H385.467V325.992ZM383.883 326.292C384.099 326.292 384.303 326.264 384.495 326.208C384.687 326.152 384.855 326.072 384.999 325.968C385.143 325.856 385.255 325.724 385.335 325.572C385.423 325.412 385.467 325.228 385.467 325.02V322.788C385.467 322.58 385.423 322.4 385.335 322.248C385.255 322.088 385.143 321.956 384.999 321.852C384.855 321.74 384.687 321.656 384.495 321.6C384.303 321.544 384.099 321.516 383.883 321.516C383.323 321.516 382.887 321.688 382.575 322.032C382.271 322.368 382.119 322.816 382.119 323.376V324.432C382.119 324.992 382.271 325.444 382.575 325.788C382.887 326.124 383.323 326.292 383.883 326.292ZM391.235 327.144C390.587 327.144 390.027 327.036 389.555 326.82C389.091 326.596 388.695 326.3 388.367 325.932L389.015 325.368C389.311 325.68 389.635 325.92 389.987 326.088C390.339 326.256 390.763 326.34 391.259 326.34C391.739 326.34 392.131 326.256 392.435 326.088C392.747 325.912 392.903 325.64 392.903 325.272C392.903 325.112 392.871 324.98 392.807 324.876C392.751 324.764 392.671 324.676 392.567 324.612C392.463 324.548 392.347 324.5 392.219 324.468C392.091 324.428 391.955 324.396 391.811 324.372L390.839 324.228C390.623 324.196 390.387 324.152 390.131 324.096C389.883 324.04 389.655 323.952 389.447 323.832C389.239 323.704 389.063 323.536 388.919 323.328C388.783 323.12 388.715 322.848 388.715 322.512C388.715 322.2 388.775 321.932 388.895 321.708C389.023 321.476 389.199 321.284 389.423 321.132C389.647 320.972 389.911 320.856 390.215 320.784C390.519 320.704 390.851 320.664 391.211 320.664C391.771 320.664 392.255 320.752 392.663 320.928C393.079 321.104 393.435 321.348 393.73 321.66L393.107 322.248C393.035 322.16 392.943 322.072 392.831 321.984C392.727 321.888 392.595 321.804 392.435 321.732C392.283 321.652 392.103 321.588 391.895 321.54C391.687 321.492 391.447 321.468 391.175 321.468C390.687 321.468 390.311 321.552 390.047 321.72C389.791 321.888 389.663 322.132 389.663 322.452C389.663 322.612 389.691 322.748 389.747 322.86C389.811 322.964 389.895 323.048 389.999 323.112C390.103 323.176 390.219 323.228 390.347 323.268C390.483 323.3 390.619 323.328 390.755 323.352L391.727 323.496C391.951 323.528 392.187 323.572 392.435 323.628C392.683 323.684 392.911 323.776 393.119 323.904C393.327 324.024 393.499 324.188 393.635 324.396C393.779 324.604 393.851 324.876 393.851 325.212C393.851 325.828 393.611 326.304 393.131 326.64C392.659 326.976 392.027 327.144 391.235 327.144Z" fill="white"/>
<g opacity="0.5">
<path opacity="0.5" d="M202.423 302.572C203.761 302.572 204.846 301.491 204.846 300.157C204.846 298.824 203.761 297.743 202.423 297.743C201.085 297.743 200 298.824 200 300.157C200 301.491 201.085 302.572 202.423 302.572Z" fill="white"/>
<path opacity="0.5" d="M209.269 302.572C210.607 302.572 211.692 301.491 211.692 300.157C211.692 298.824 210.607 297.743 209.269 297.743C207.931 297.743 206.846 298.824 206.846 300.157C206.846 301.491 207.931 302.572 209.269 302.572Z" fill="white"/>
<path opacity="0.5" d="M216.116 302.572C217.454 302.572 218.539 301.491 218.539 300.157C218.539 298.824 217.454 297.743 216.116 297.743C214.778 297.743 213.693 298.824 213.693 300.157C213.693 301.491 214.778 302.572 216.116 302.572Z" fill="white"/>
</g>
<path d="M205.646 156.646C205.451 156.842 205.451 157.158 205.646 157.354L208.828 160.536C209.024 160.731 209.34 160.731 209.536 160.536C209.731 160.34 209.731 160.024 209.536 159.828L206.707 157L209.536 154.172C209.731 153.976 209.731 153.66 209.536 153.464C209.34 153.269 209.024 153.269 208.828 153.464L205.646 156.646ZM507 156.5H206V157.5H507V156.5Z" fill="white"/>
<path d="M126.5 324.5H126V325H126.5V324.5ZM186.854 324.854C187.049 324.658 187.049 324.342 186.854 324.146L183.672 320.964C183.476 320.769 183.16 320.769 182.964 320.964C182.769 321.16 182.769 321.476 182.964 321.672L185.793 324.5L182.964 327.328C182.769 327.524 182.769 327.84 182.964 328.036C183.16 328.231 183.476 328.231 183.672 328.036L186.854 324.854ZM126 212.5V324.5H127V212.5H126ZM126.5 325H186.5V324H126.5V325Z" fill="white"/>
<defs>
<filter id="filter0_d_150_1073" x="447" y="95" width="161" height="161" filterUnits="userSpaceOnUse" color-interpolation-filters="sRGB">
<feFlood flood-opacity="0" result="BackgroundImageFix"/>
<feColorMatrix in="SourceAlpha" type="matrix" values="0 0 0 0 0 0 0 0 0 0 0 0 0 0 0 0 0 0 127 0" result="hardAlpha"/>
<feOffset dy="25"/>
<feGaussianBlur stdDeviation="30"/>
<feColorMatrix type="matrix" values="0 0 0 0 0 0 0 0 0 0 0 0 0 0 0 0 0 0 0.29 0"/>
<feBlend mode="normal" in2="BackgroundImageFix" result="effect1_dropShadow_150_1073"/>
<feBlend mode="normal" in="SourceGraphic" in2="effect1_dropShadow_150_1073" result="shape"/>
</filter>
</defs>
</svg>
